{
.appVersion = "3133";
copyright = "Copyright 2022 The Aboreto Project Authors (https://github.com/domija/Aboreto)";
customParameters = (
{
name = panose;
value = (
0,
0,
0,
0,
0,
0,
0,
0,
0,
0
);
},
{
name = fsType;
value = (
);
},
{
name = blueScale;
value = 0.03963;
},
{
name = blueShift;
value = 7;
},
{
name = "Use Typo Metrics";
value = 1;
},
{
name = license;
value = "This Font Software is licensed under the SIL Open Font License, Version 1.1. This license is available with a FAQ at: https://scripts.sil.org/OFL";
},
{
name = licenseURL;
value = "https://scripts.sil.org/OFL";
}
);
date = "2022-03-29 16:18:25 +0000";
designer = "Dominik Jáger";
designerURL = "https://www.behance.net/dominikjagcc76";
familyName = Aboreto;
featurePrefixes = (
{
automatic = 1;
code = "languagesystem DFLT dflt;\012\012languagesystem latn dflt;\012languagesystem latn AZE;\012languagesystem latn CRT;\012languagesystem latn KAZ;\012languagesystem latn TAT;\012languagesystem latn TRK;\012languagesystem latn ROM;\012languagesystem latn MOL;\012languagesystem latn CAT;\012languagesystem latn NLD;\012languagesystem latn FLE;\012";
name = Languagesystems;
}
);
features = (
{
automatic = 1;
code = "feature locl;\012feature subs;\012feature sinf;\012feature sups;\012feature numr;\012feature dnom;\012feature frac;\012feature ordn;\012feature calt;\012feature pnum;\012feature tnum;\012";
name = aalt;
},
{
automatic = 1;
code = "lookup ccmp_latn_1 {\012	sub Ldot by L periodcentered.loclCAT.case;\012} ccmp_latn_1;\012\012script latn;\012lookup ccmp_latn_1;\012";
name = ccmp;
},
{

glyphs = (
{
color = (153,255,154,255);
glyphname = A;
lastChange = "2022-05-26 13:13:16 +0000";
layers = (
{
anchors = (
{
name = bottom;
position = "{329, 0}";
},
{
name = ogonek;
position = "{578, 0}";
},
{
name = top;
position = "{329, 700}";
}
);
background = {
anchors = (
{
name = bottom;
position = "{578, 0}";
},
{
name = top;
position = "{327, 765}";
}
);
paths = (
{
closed = 1;
nodes = (
"99 0 LINE",
"302 648 LINE",
"308 648 LINE",
"553 0 LINE",
"626 0 LINE",
"357 700 LINE",
"295 700 LINE",
"26 0 LINE"
);
},
{
closed = 1;
nodes = (
"469 328 LINE",
"469 352 LINE",
"181 352 LINE",
"181 328 LINE"
);
}
);
};
layerId = "879304B0-C0BD-4EE0-9B7F-878EED11B82D";
paths = (
{
closed = 1;
nodes = (
"99 0 LINE",
"302 648 LINE",
"308 648 LINE",
"553 0 LINE",
"626 0 LINE",
"357 700 LINE",
"295 700 LINE",
"26 0 LINE"
);
},
{
closed = 1;
nodes = (
"469 328 LINE",
"469 352 LINE",
"181 352 LINE",
"181 328 LINE"
);
}
);
userData = {
com.fontlab.metricsLeft = "|V";
com.fontlab.metricsRight = "|V";
};
vertWidth = 0;
width = 658;
}
);
leftKerningGroup = A_gr;
rightKerningGroup = A_gr;
unicode = "0041,0061";
},
{
color = (255,153,253,255);
glyphname = Aacute;
lastChange = "2022-05-26 13:10:21 +0000";
layers = (
{
background = {
anchors = (
{
name = bottom;
position = "{578, 0}";
},
{
name = top;
position = "{327, 765}";
}
);
paths = (
{
closed = 1;
nodes = (
"99 0 LINE",
"302 648 LINE",
"308 648 LINE",
"553 0 LINE",
"626 0 LINE",
"357 700 LINE",
"295 700 LINE",
"26 0 LINE"
);
},
{
closed = 1;
nodes = (
"469 328 LINE",
"469 352 LINE",
"181 352 LINE",
"181 328 LINE"
);
},
{
closed = 1;
nodes = (
"281 763 LINE",
"455 891 LINE",
"455 897 LINE",
"365 897 LINE",
"268 775 LINE"
);
}
);
};
components = (
{
name = A;
},
{
name = acutecomb;
transform = "{1, 0, 0, 1, 238, 0}";
}
);
layerId = "879304B0-C0BD-4EE0-9B7F-878EED11B82D";
userData = {
com.fontlab.autolayer = 1;
};
width = 658;
}
);
leftKerningGroup = A_gr;
rightKerningGroup = A_gr;
unicode = "00C1,00E1";
},
{
color = (255,153,253,255);
glyphname = Abreve;
lastChange = "2022-05-26 13:10:47 +0000";
layers = (
{
background = {
anchors = (
{
name = bottom;
position = "{578, 0}";
},
{
name = top;
position = "{327, 765}";
}
);
paths = (
{
closed = 1;
nodes = (
"99 0 LINE",
"302 648 LINE",
"308 648 LINE",
"553 0 LINE",
"626 0 LINE",
"357 700 LINE",
"295 700 LINE",
"26 0 LINE"
);
},
{
closed = 1;
nodes = (
"469 328 LINE",
"469 352 LINE",
"181 352 LINE",
"181 328 LINE"
);
},
{
closed = 1;
nodes = (
"391 777 OFFCURVE",
"438 824 OFFCURVE",
"456 906 CURVE",
"439 912 LINE",
"406 855 OFFCURVE",
"377 835 OFFCURVE",
"327 835 CURVE SMOOTH",
"277 835 OFFCURVE",
"248 855 OFFCURVE",
"215 912 CURVE",
"198 906 LINE",
"216 824 OFFCURVE",
"263 777 OFFCURVE",
"327 777 CURVE SMOOTH"
);
}
);
};
components = (
{
name = A;
},
{
name = brevecomb;
transform = "{1, 0, 0, 1, 130, 0}";
}
);
layerId = "879304B0-C0BD-4EE0-9B7F-878EED11B82D";
userData = {
com.fontlab.autolayer = 1;
com.fontlab.recipe = "A+breve";
};
width = 658;
}
);
leftKerningGroup = A_gr;
rightKerningGroup = A_gr;
unicode = "0102,0103";
},
{
color = (255,153,253,255);
glyphname = Acaron;
lastChange = "2022-05-26 13:10:59 +0000";
layers = (
{
background = {
anchors = (
{
name = bottom;
position = "{578, 0}";
},
{
name = top;
position = "{327, 765}";
}
);
paths = (
{
closed = 1;
nodes = (
"99 0 LINE",
"302 648 LINE",
"308 648 LINE",
"553 0 LINE",
"626 0 LINE",
"357 700 LINE",
"295 700 LINE",
"26 0 LINE"
);
},
{
closed = 1;
nodes = (
"469 328 LINE",
"469 352 LINE",
"181 352 LINE",
"181 328 LINE"
);
},
{
closed = 1;
nodes = (
"340 775 LINE",
"461 905 LINE",
"448 917 LINE",
"327 837 LINE",
"206 917 LINE",
"193 905 LINE",
"314 775 LINE"
);
}
);
};
components = (
{
name = A;
},
{
name = caroncomb;
transform = "{1, 0, 0, 1, 125, 0}";
}
);
layerId = "879304B0-C0BD-4EE0-9B7F-878EED11B82D";
userData = {
com.fontlab.autolayer = 1;
com.fontlab.recipe = "A+caron";
};
width = 658;
}
);
leftKerningGroup = A_gr;
rightKerningGroup = A_gr;
unicode = "01CD,01CE";
},
{
color = (255,153,253,255);
glyphname = Acircumflex;
lastChange = "2022-05-26 13:11:50 +0000";
layers = (
{
background = {
anchors = (
{
name = bottom;
position = "{578, 0}";
},
{
name = top;
position = "{327, 765}";
}
);
paths = (
{
closed = 1;
nodes = (
"99 0 LINE",
"302 648 LINE",
"308 648 LINE",
"553 0 LINE",
"626 0 LINE",
"357 700 LINE",
"295 700 LINE",
"26 0 LINE"
);
},
{
closed = 1;
nodes = (
"469 328 LINE",
"469 352 LINE",
"181 352 LINE",
"181 328 LINE"
);
},
{
closed = 1;
nodes = (
"314 905 LINE",
"193 775 LINE",
"206 763 LINE",
"327 843 LINE",
"448 763 LINE",
"461 775 LINE",
"340 905 LINE"
);
}
);
};
components = (
{
name = A;
},
{
name = circumflexcomb;
transform = "{1, 0, 0, 1, 125, 0}";
}
);
layerId = "879304B0-C0BD-4EE0-9B7F-878EED11B82D";
userData = {
com.fontlab.autolayer = 1;
com.fontlab.recipe = "A+circumflex";
};
width = 658;
}
);
leftKerningGroup = A_gr;
rightKerningGroup = A_gr;
unicode = "00C2,00E2";
},
{
color = (255,153,253,255);
glyphname = Adieresis;
lastChange = "2022-05-26 13:11:58 +0000";
layers = (
{
background = {
anchors = (
{
name = bottom;
position = "{578, 0}";
},
{
name = top;
position = "{327, 765}";
}
);
paths = (
{
closed = 1;
nodes = (
"99 0 LINE",
"302 648 LINE",
"308 648 LINE",
"553 0 LINE",
"626 0 LINE",
"357 700 LINE",
"295 700 LINE",
"26 0 LINE"
);
},
{
closed = 1;
nodes = (
"469 328 LINE",
"469 352 LINE",
"181 352 LINE",
"181 328 LINE"
);
},
{
closed = 1;
nodes = (
"385 819 OFFCURVE",
"404 800 OFFCURVE",
"430 800 CURVE SMOOTH",
"456 800 OFFCURVE",
"475 819 OFFCURVE",
"475 845 CURVE SMOOTH",
"475 871 OFFCURVE",
"456 890 OFFCURVE",
"430 890 CURVE SMOOTH",
"404 890 OFFCURVE",
"385 871 OFFCURVE",
"385 845 CURVE SMOOTH"
);
},
{
closed = 1;
nodes = (
"179 819 OFFCURVE",
"198 800 OFFCURVE",
"224 800 CURVE SMOOTH",
"250 800 OFFCURVE",
"269 819 OFFCURVE",
"269 845 CURVE SMOOTH",
"269 871 OFFCURVE",
"250 890 OFFCURVE",
"224 890 CURVE SMOOTH",
"198 890 OFFCURVE",
"179 871 OFFCURVE",
"179 845 CURVE SMOOTH"
);
}
);
};
components = (
{
name = A;
},
{
name = dieresiscomb;
transform = "{1, 0, 0, 1, 111, 0}";
}
);
layerId = "879304B0-C0BD-4EE0-9B7F-878EED11B82D";
userData = {
com.fontlab.autolayer = 1;
com.fontlab.recipe = "A+dieresis";
};
width = 658;
}
);
leftKerningGroup = A_gr;
rightKerningGroup = A_gr;
unicode = "00C4,00E4";
},
{
color = (255,153,253,255);
glyphname = Agrave;
lastChange = "2022-05-26 13:12:46 +0000";
layers = (
{
background = {
anchors = (
{
name = bottom;
position = "{578, 0}";
},
{
name = top;
position = "{327, 765}";
}
);
paths = (
{
closed = 1;
nodes = (
"99 0 LINE",
"302 648 LINE",
"308 648 LINE",
"553 0 LINE",
"626 0 LINE",
"357 700 LINE",
"295 700 LINE",
"26 0 LINE"
);
},
{
closed = 1;
nodes = (
"469 328 LINE",
"469 352 LINE",
"181 352 LINE",
"181 328 LINE"
);
},
{
closed = 1;
nodes = (
"289 897 LINE",
"199 897 LINE",
"199 891 LINE",
"373 763 LINE",
"386 775 LINE"
);
}
);
};
components = (
{
name = A;
},
{
name = gravecomb;
transform = "{1, 0, 0, 1, 181, 0}";
}
);
layerId = "879304B0-C0BD-4EE0-9B7F-878EED11B82D";
userData = {
com.fontlab.autolayer = 1;
com.fontlab.recipe = "A+grave";
};
width = 658;
}
);
leftKerningGroup = A_gr;
rightKerningGroup = A_gr;
unicode = "00C0,00E0";
},
{
color = (255,153,253,255);
glyphname = Amacron;
lastChange = "2022-05-26 13:12:56 +0000";
layers = (
{
background = {
anchors = (
{
name = bottom;
position = "{578, 0}";
},
{
name = top;
position = "{327, 765}";
}
);
paths = (
{
closed = 1;
nodes = (
"99 0 LINE",
"302 648 LINE",
"308 648 LINE",
"553 0 LINE",
"626 0 LINE",
"357 700 LINE",
"295 700 LINE",
"26 0 LINE"
);
},
{
closed = 1;
nodes = (
"469 328 LINE",
"469 352 LINE",
"181 352 LINE",
"181 328 LINE"
);
},
{
closed = 1;
nodes = (
"461 818 LINE",
"461 858 LINE",
"193 858 LINE",
"193 818 LINE"
);
}
);
};
components = (
{
name = A;
},
{
name = macroncomb;
transform = "{1, 0, 0, 1, 145, 0}";
}
);
layerId = "879304B0-C0BD-4EE0-9B7F-878EED11B82D";
userData = {
com.fontlab.autolayer = 1;
com.fontlab.recipe = "A+macron";
};
width = 658;
}
);
leftKerningGroup = A_gr;
rightKerningGroup = A_gr;
unicode = "0100,0101";
},
{
color = (255,153,253,255);
glyphname = Aogonek;
lastChange = "2022-05-26 13:13:16 +0000";
layers = (
{
background = {
anchors = (
{
name = bottom;
position = "{578, 0}";
},
{
name = top;
position = "{327, 765}";
}
);
paths = (
{
closed = 1;
nodes = (
"99 0 LINE",
"302 648 LINE",
"308 648 LINE",
"553 0 LINE",
"626 0 LINE",
"357 700 LINE",
"295 700 LINE",
"26 0 LINE"
);
},
{
closed = 1;
nodes = (
"469 328 LINE",
"469 352 LINE",
"181 352 LINE",
"181 328 LINE"
);
},
{
closed = 1;
nodes = (
"615 -164 LINE",
"601 -174 OFFCURVE",
"584 -180 OFFCURVE",
"570 -180 CURVE SMOOTH",
"541 -180 OFFCURVE",
"523 -156 OFFCURVE",
"523 -118 CURVE SMOOTH",
"523 -81 OFFCURVE",
"540 -44 OFFCURVE",
"578 0 CURVE",
"576 10 LINE",
"567 10 LINE",
"494 -42 OFFCURVE",
"463 -85 OFFCURVE",
"463 -135 CURVE SMOOTH",
"463 -186 OFFCURVE",
"495 -220 OFFCURVE",
"544 -220 CURVE SMOOTH",
"575 -220 OFFCURVE",
"600 -207 OFFCURVE",
"626 -178 CURVE"
);
}
);
};
components = (
{
name = A;
},
{
name = ogonekcomb;
transform = "{1, 0, 0, 1, 393, 0}";
}
);
layerId = "879304B0-C0BD-4EE0-9B7F-878EED11B82D";
userData = {
com.fontlab.autolayer = 1;
com.fontlab.recipe = "A+ogonek";
};
width = 658;
}
);
leftKerningGroup = A_gr;
rightKerningGroup = A_gr;
unicode = "0104,0105";
},
{
color = (255,153,253,255);
glyphname = Aring;
lastChange = "2022-05-26 13:13:29 +0000";
layers = (
{
background = {
anchors = (
{
name = bottom;
position = "{578, 0}";
},
{
name = top;
position = "{327, 765}";
}
);
paths = (
{
closed = 1;
nodes = (
"99 0 LINE",
"302 648 LINE",
"308 648 LINE",
"553 0 LINE",
"626 0 LINE",
"357 700 LINE",
"295 700 LINE",
"26 0 LINE"
);
},
{
closed = 1;
nodes = (
"469 328 LINE",
"469 352 LINE",
"181 352 LINE",
"181 328 LINE"
);
},
{
closed = 1;
nodes = (
"233 784 OFFCURVE",
"272 747 OFFCURVE",
"327 747 CURVE SMOOTH",
"382 747 OFFCURVE",
"421 784 OFFCURVE",
"421 835 CURVE SMOOTH",
"421 886 OFFCURVE",
"382 923 OFFCURVE",
"327 923 CURVE SMOOTH",
"272 923 OFFCURVE",
"233 886 OFFCURVE",
"233 835 CURVE SMOOTH"
);
},
{
closed = 1;
nodes = (
"354 905 OFFCURVE",
"375 876 OFFCURVE",
"375 835 CURVE SMOOTH",
"375 794 OFFCURVE",
"354 765 OFFCURVE",
"327 765 CURVE SMOOTH",
"299 765 OFFCURVE",
"279 794 OFFCURVE",
"279 835 CURVE SMOOTH",
"279 876 OFFCURVE",
"299 905 OFFCURVE",
"327 905 CURVE SMOOTH"
);
}
);
};
components = (
{
name = A;
},
{
name = ringcomb;
transform = "{1, 0, 0, 1, 175, 0}";
}
);
layerId = "879304B0-C0BD-4EE0-9B7F-878EED11B82D";
userData = {
com.fontlab.autolayer = 1;
com.fontlab.recipe = "A+ring";
};
width = 658;
}
);
leftKerningGroup = A_gr;
rightKerningGroup = A_gr;
unicode = "00C5,00E5";
},
{
color = (255,153,253,255);
glyphname = Atilde;
lastChange = "2022-05-26 13:13:44 +0000";
layers = (
{
background = {
anchors = (
{
name = bottom;
position = "{578, 0}";
},
{
name = top;
position = "{327, 765}";
}
);
paths = (
{
closed = 1;
nodes = (
"99 0 LINE",
"302 648 LINE",
"308 648 LINE",
"553 0 LINE",
"626 0 LINE",
"357 700 LINE",
"295 700 LINE",
"26 0 LINE"
);
},
{
closed = 1;
nodes = (
"469 328 LINE",
"469 352 LINE",
"181 352 LINE",
"181 328 LINE"
);
},
{
closed = 1;
nodes = (
"315 887 OFFCURVE",
"293 900 OFFCURVE",
"265 900 CURVE SMOOTH",
"228 900 OFFCURVE",
"202 877 OFFCURVE",
"167 808 CURVE",
"182 798 LINE",
"210 836 OFFCURVE",
"230 846 OFFCURVE",
"251 846 CURVE SMOOTH",
"275 846 OFFCURVE",
"297 832 OFFCURVE",
"317 819 CURVE SMOOTH",
"339 805 OFFCURVE",
"361 792 OFFCURVE {name = hr01;}",
"389 792 CURVE SMOOTH",
"426 792 OFFCURVE",
"452 815 OFFCURVE",
"487 884 CURVE",
"472 894 LINE",
"444 856 OFFCURVE",
"424 846 OFFCURVE",
"403 846 CURVE SMOOTH",
"379 846 OFFCURVE",
"357 860 OFFCURVE",
"337 873 CURVE SMOOTH"
);
}
);
};
components = (
{
name = A;
},
{
name = tildecomb;
transform = "{1, 0, 0, 1, 126, 0}";
}
);
layerId = "879304B0-C0BD-4EE0-9B7F-878EED11B82D";
userData = {
com.fontlab.autolayer = 1;
};
width = 658;
}
);
leftKerningGroup = A_gr;
rightKerningGroup = A_gr;
unicode = "00C3,00E3";
},
{
color = (255,153,253,255);
glyphname = AE;
lastChange = "2022-05-26 13:13:54 +0000";
layers = (
{
anchors = (
{
name = bottom;
position = "{408, 0}";
},
{
name = top;
position = "{519, 700}";
}
);
background = {
anchors = (
{
name = bottom;
position = "{687, 0}";
},
{
name = top;
position = "{517, 765}";
}
);
paths = (
{
closed = 1;
nodes = (
"86 0 LINE",
"421 646 LINE",
"428 646 LINE",
"479 700 LINE",
"424 700 LINE",
"10 0 LINE"
);
},
{
closed = 1;
nodes = (
"459 298 LINE",
"459 322 LINE",
"211 322 LINE",
"211 298 LINE"
);
},
{
closed = 1;
nodes = (
"495 355 LINE SMOOTH",
"503.532 355 OFFCURVE",
"524.198 354 OFFCURVE",
"557 352 CURVE SMOOTH",
"721 342 LINE",
"721 388 LINE",
"557 378 LINE SMOOTH",
"524.198 376 OFFCURVE",
"503.532 375 OFFCURVE",
"495 375 CURVE SMOOTH",
"485 375 LINE",
"485 355 LINE"
);
},
{
closed = 1;
nodes = (
"495 0 LINE",
"495 700 LINE",
"427 700 LINE",
"427 0 LINE"
);
},
{
closed = 1;
nodes = (
"485 680 LINE",
"494.914 680 LINE SMOOTH",
"505.905 680 OFFCURVE",
"526.6 678 OFFCURVE",
"557 674 CURVE SMOOTH",
"732 651 LINE",
"732 700 LINE",
"485 700 LINE"
);
},
{
closed = 1;
nodes = (
"735 0 LINE",
"735 49 LINE",
"558 26 LINE SMOOTH",
"527.6 22 OFFCURVE",
"506.6 20 OFFCURVE",
"495 20 CURVE SMOOTH",
"485 20 LINE",
"485 0 LINE"
);
}
);
};
guideLines = (
{
position = "{0, 364}";
},
{
angle = 90.0022;
position = "{626, 0}";
},
{
angle = 90;
position = "{735, 0}";
},
{
angle = 90;
position = "{581, 0}";
},
{
position = "{0, 365}";
},
{
angle = 90;
position = "{698, 0}";
},
{
angle = 90;
position = "{735, 0}";
}
);
layerId = "879304B0-C0BD-4EE0-9B7F-878EED11B82D";
paths = (
{
closed = 1;
nodes = (
"86 0 LINE",
"421 646 LINE",
"428 646 LINE",
"479 700 LINE",
"424 700 LINE",
"10 0 LINE"
);
},
{
closed = 1;
nodes = (
"459 298 LINE",
"459 322 LINE",
"211 322 LINE",
"211 298 LINE"
);
},
{
closed = 1;
nodes = (
"495 355 LINE SMOOTH",
"503.532 355 OFFCURVE",
"524.198 354 OFFCURVE",
"557 352 CURVE SMOOTH",
"721 342 LINE",
"721 388 LINE",
"557 378 LINE SMOOTH",
"524.198 376 OFFCURVE",
"503.532 375 OFFCURVE",
"495 375 CURVE SMOOTH",
"485 375 LINE",
"485 355 LINE"
);
},
{
closed = 1;
nodes = (
"495 0 LINE",
"495 700 LINE",
"427 700 LINE",
"427 0 LINE"
);
},
{
closed = 1;
nodes = (
"485 680 LINE",
"494.914 680 LINE SMOOTH",
"505.905 680 OFFCURVE",
"526.6 678 OFFCURVE",
"557 674 CURVE SMOOTH",
"732 651 LINE",
"732 700 LINE",
"485 700 LINE"
);
},
{
closed = 1;
nodes = (
"735 0 LINE",
"735 49 LINE",
"558 26 LINE SMOOTH",
"528 22 OFFCURVE",
"506.6 20 OFFCURVE",
"495 20 CURVE SMOOTH",
"485 20 LINE",
"485 0 LINE"
);
}
);
userData = {
com.fontlab.metricsRight = E;
};
vertWidth = 0;
width = 815;
}
);
leftKerningGroup = AE_gr;
unicode = "00C6,00E6";
},
{
color = (255,153,253,255);
glyphname = AEacute;
lastChange = "2022-05-26 13:13:54 +0000";
layers = (
{
background = {
anchors = (
{
name = bottom;
position = "{687, 0}";
},
{
name = top;
position = "{517, 765}";
}
);
paths = (
{
closed = 1;
nodes = (
"86 0 LINE",
"421 646 LINE",
"428 646 LINE",
"479 700 LINE",
"424 700 LINE",
"10 0 LINE"
);
},
{
closed = 1;
nodes = (
"459 298 LINE",
"459 322 LINE",
"211 322 LINE",
"211 298 LINE"
);
},
{
closed = 1;
nodes = (
"495 355 LINE SMOOTH",
"503.532 355 OFFCURVE",
"524.198 354 OFFCURVE",
"557 352 CURVE SMOOTH",
"721 342 LINE",
"721 388 LINE",
"557 378 LINE SMOOTH",
"524.198 376 OFFCURVE",
"503.532 375 OFFCURVE",
"495 375 CURVE SMOOTH",
"485 375 LINE",
"485 355 LINE"
);
},
{
closed = 1;
nodes = (
"495 0 LINE",
"495 700 LINE",
"427 700 LINE",
"427 0 LINE"
);
},
{
closed = 1;
nodes = (
"485 680 LINE",
"494.914 680 LINE SMOOTH",
"505.905 680 OFFCURVE",
"526.6 678 OFFCURVE",
"557 674 CURVE SMOOTH",
"732 651 LINE",
"732 700 LINE",
"485 700 LINE"
);
},
{
closed = 1;
nodes = (
"735 0 LINE",
"735 49 LINE",
"558 26 LINE SMOOTH",
"527.6 22 OFFCURVE",
"506.6 20 OFFCURVE",
"495 20 CURVE SMOOTH",
"485 20 LINE",
"485 0 LINE"
);
},
{
closed = 1;
nodes = (
"471 763 LINE",
"645 891 LINE",
"645 897 LINE",
"555 897 LINE",
"458 775 LINE"
);
}
);
};
components = (
{
name = AE;
},
{
name = acutecomb;
transform = "{1, 0, 0, 1, 428, 0}";
}
);
layerId = "879304B0-C0BD-4EE0-9B7F-878EED11B82D";
userData = {
com.fontlab.autolayer = 1;
com.fontlab.recipe = "AE+acute";
};
width = 815;
}
);
leftKerningGroup = AE_gr;
unicode = "01FC,01FD";
},
{
color = (153,255,154,255);
glyphname = B;
lastChange = "2022-05-26 13:06:07 +0000";
layers = (
{
anchors = (
{
name = bottom;
position = "{309, 0}";
},
{
name = center;
position = "{309, 350}";
},
{
name = top;
position = "{309, 700}";
}
);
background = {
paths = (
{
closed = 1;
nodes = (
"453 0 OFFCURVE",
"547 69.075 OFFCURVE",
"547 184.516 CURVE SMOOTH",
"547 283.871 OFFCURVE",
"478 352 OFFCURVE",
"364 367 CURVE",
"364 373 LINE",
"448.341 393 OFFCURVE",
"497 450.763 OFFCURVE {name = hr01;}",
"497 529.92 CURVE SMOOTH",
"497 636.888 OFFCURVE",
"412.413 700 OFFCURVE",
"268.965 700 CURVE SMOOTH",
"170 700 LINE",
"170 676 LINE",
"269.806 676 LINE SMOOTH",
"374.976 676 OFFCURVE",
"427 626.714 OFFCURVE",
"427 526 CURVE SMOOTH",
"427 425.286 OFFCURVE",
"374.845 376 OFFCURVE",
"269.405 376 CURVE SMOOTH",
"185 376 LINE",
"185 352 LINE",
"292 352 LINE SMOOTH",
"415 352 OFFCURVE",
"475 298.276 OFFCURVE {name = hr02;}",
"475 188 CURVE SMOOTH",
"475 78.667 OFFCURVE",
"415 24 OFFCURVE",
"292 24 CURVE SMOOTH",
"165 24 LINE",
"165 0 LINE",
"292 0 LINE SMOOTH"
);
},
{
closed = 1;
nodes = (
"198 0 LINE",
"198 700 LINE",
"130 700 LINE",
"130 0 LINE"
);
}
);
};
guideLines = (
{
angle = 90;
position = "{130, 0}";
},
{
position = "{0, 536}";
},
{
angle = 90;
position = "{292, 0}";
},
{
position = "{0, 198}";
}
);
layerId = "879304B0-C0BD-4EE0-9B7F-878EED11B82D";
paths = (
{
closed = 1;
nodes = (
"453 0 OFFCURVE",
"547 69.075 OFFCURVE",
"547 184.516 CURVE SMOOTH",
"547 283.871 OFFCURVE",
"478 352 OFFCURVE",
"364 367 CURVE",
"364 373 LINE",
"448.341 393 OFFCURVE",
"497 450.763 OFFCURVE {name = hr01;}",
"497 529.92 CURVE SMOOTH",
"497 636.888 OFFCURVE",
"412.413 700 OFFCURVE",
"268.965 700 CURVE SMOOTH",
"170 700 LINE",
"170 676 LINE",
"269.806 676 LINE SMOOTH",
"374.976 676 OFFCURVE",
"427 626.714 OFFCURVE",
"427 526 CURVE SMOOTH",
"427 425.286 OFFCURVE",
"374.845 376 OFFCURVE",
"269.405 376 CURVE SMOOTH",
"185 376 LINE",
"185 352 LINE",
"292 352 LINE SMOOTH",
"415 352 OFFCURVE",
"475 298.276 OFFCURVE {name = hr02;}",
"475 188 CURVE SMOOTH",
"475 78.667 OFFCURVE",
"415 24 OFFCURVE",
"292 24 CURVE SMOOTH",
"165 24 LINE",
"165 0 LINE",
"292 0 LINE SMOOTH"
);
},
{
closed = 1;
nodes = (
"198 0 LINE",
"198 700 LINE",
"130 700 LINE",
"130 0 LINE"
);
}
);
userData = {
com.fontlab.metricsLeft = H;
com.fontlab.metricsRight = "O-10";
};
vertWidth = 0;
width = 617;
}
);
unicode = "0042,0062";
},
{
color = (153,255,154,255);
glyphname = C;
lastChange = "2022-05-26 13:14:09 +0000";
layers = (
{
anchors = (
{
name = bottom;
position = "{456, 0}";
},
{
name = top;
position = "{462, 700}";
}
);
background = {
anchors = (
{
name = bottom;
position = "{454, 0}";
},
{
name = top;
position = "{460, 765}";
}
);
guideLines = (
{
position = "{0, 678}";
},
{
position = "{0, 615}";
},
{
angle = 90;
position = "{668, 0}";
},
{
angle = 90;
position = "{583, 0}";
},
{
angle = 90;
position = "{440, 0}";
}
);
paths = (
{
closed = 1;
nodes = (
"682 86 LINE",
"632 43 OFFCURVE",
"550.542 10 OFFCURVE",
"460 10 CURVE SMOOTH",
"278.912 10 OFFCURVE",
"156 144.871 OFFCURVE",
"156 350 CURVE SMOOTH",
"156 554.572 OFFCURVE",
"279.309 690 OFFCURVE",
"460 690 CURVE SMOOTH",
"540.422 690 OFFCURVE",
"619.044 664.863 OFFCURVE",
"669 619.746 CURVE",
"675 619.746 LINE",
"680 675.746 LINE",
"625 698.746 OFFCURVE",
"526.366 714 OFFCURVE",
"460 714 CURVE SMOOTH",
"245 714 OFFCURVE",
"80 558 OFFCURVE",
"80 350 CURVE SMOOTH",
"80 142 OFFCURVE",
"245 -14 OFFCURVE",
"460 -14 CURVE SMOOTH",
"524 -14 OFFCURVE",
"625 0 OFFCURVE",
"682 25 CURVE",
"688 86 LINE"
);
}
);
};
guideLines = (
{
angle = 90;
position = "{642, 0}";
},
{
angle = 90;
position = "{682, 0}";
},
{
position = "{0, 84}";
}
);
layerId = "879304B0-C0BD-4EE0-9B7F-878EED11B82D";
paths = (
{
closed = 1;
nodes = (
"682 86 LINE",
"632 43 OFFCURVE",
"550.542 10 OFFCURVE",
"460 10 CURVE SMOOTH",
"278.912 10 OFFCURVE",
"156 144.871 OFFCURVE",
"156 350 CURVE SMOOTH",
"156 554.572 OFFCURVE",
"279.309 690 OFFCURVE",
"460 690 CURVE SMOOTH",
"540.422 690 OFFCURVE",
"619.044 664.863 OFFCURVE",
"669 619.746 CURVE",
"675 619.746 LINE",
"680 675.746 LINE",
"625 698.746 OFFCURVE",
"526.366 714 OFFCURVE",
"460 714 CURVE SMOOTH",
"245 714 OFFCURVE",
"80 558 OFFCURVE",
"80 350 CURVE SMOOTH",
"80 142 OFFCURVE",
"245 -14 OFFCURVE",
"460 -14 CURVE SMOOTH",
"524 -14 OFFCURVE",
"625 0 OFFCURVE",
"682 25 CURVE",
"688 86 LINE"
);
}
);
userData = {
com.fontlab.metricsLeft = O;
com.fontlab.metricsRight = "O-10";
};
vertWidth = 0;
width = 758;
}
);
leftKerningGroup = O_C_G_Q;
unicode = "0043,0063";
},
{
color = (255,153,253,255);
glyphname = Cacute;
lastChange = "2022-05-26 13:14:03 +0000";
layers = (
{
background = {
anchors = (
{
name = bottom;
position = "{454, 0}";
},
{
name = top;
position = "{460, 765}";
}
);
paths = (
{
closed = 1;
nodes = (
"682 86 LINE",
"632 43 OFFCURVE",
"550.542 10 OFFCURVE",
"460 10 CURVE SMOOTH",
"278.912 10 OFFCURVE",
"156 144.871 OFFCURVE",
"156 350 CURVE SMOOTH",
"156 554.572 OFFCURVE",
"279.309 690 OFFCURVE",
"460 690 CURVE SMOOTH",
"540.422 690 OFFCURVE",
"619.044 664.863 OFFCURVE",
"669 619.746 CURVE",
"675 619.746 LINE",
"680 675.746 LINE",
"625 698.746 OFFCURVE",
"526.366 714 OFFCURVE",
"460 714 CURVE SMOOTH",
"245 714 OFFCURVE",
"80 558 OFFCURVE",
"80 350 CURVE SMOOTH",
"80 142 OFFCURVE",
"245 -14 OFFCURVE",
"460 -14 CURVE SMOOTH",
"524 -14 OFFCURVE",
"625 0 OFFCURVE",
"682 25 CURVE",
"688 86 LINE"
);
},
{
closed = 1;
nodes = (
"414 763 LINE",
"588 891 LINE",
"588 897 LINE",
"498 897 LINE",
"401 775 LINE"
);
}
);
};
components = (
{
name = C;
},
{
name = acutecomb;
transform = "{1, 0, 0, 1, 371, 0}";
}
);
layerId = "879304B0-C0BD-4EE0-9B7F-878EED11B82D";
userData = {
com.fontlab.autolayer = 1;
com.fontlab.recipe = "C+acute";
};
width = 758;
}
);
leftKerningGroup = O_C_G_Q;
unicode = "0106,0107";
},
{
color = (255,153,253,255);
glyphname = Ccaron;
lastChange = "2022-05-26 13:14:03 +0000";
layers = (
{
background = {
anchors = (
{
name = bottom;
position = "{454, 0}";
},
{
name = top;
position = "{460, 765}";
}
);
paths = (
{
closed = 1;
nodes = (
"682 86 LINE",
"632 43 OFFCURVE",
"550.542 10 OFFCURVE",
"460 10 CURVE SMOOTH",
"278.912 10 OFFCURVE",
"156 144.871 OFFCURVE",
"156 350 CURVE SMOOTH",
"156 554.572 OFFCURVE",
"279.309 690 OFFCURVE",
"460 690 CURVE SMOOTH",
"540.422 690 OFFCURVE",
"619.044 664.863 OFFCURVE",
"669 619.746 CURVE",
"675 619.746 LINE",
"680 675.746 LINE",
"625 698.746 OFFCURVE",
"526.366 714 OFFCURVE",
"460 714 CURVE SMOOTH",
"245 714 OFFCURVE",
"80 558 OFFCURVE",
"80 350 CURVE SMOOTH",
"80 142 OFFCURVE",
"245 -14 OFFCURVE",
"460 -14 CURVE SMOOTH",
"524 -14 OFFCURVE",
"625 0 OFFCURVE",
"682 25 CURVE",
"688 86 LINE"
);
},
{
closed = 1;
nodes = (
"473 775 LINE",
"594 905 LINE",
"581 917 LINE",
"460 837 LINE",
"339 917 LINE",
"326 905 LINE",
"447 775 LINE"
);
}
);
};
components = (
{
name = C;
},
{
name = caroncomb;
transform = "{1, 0, 0, 1, 258, 0}";
}
);
layerId = "879304B0-C0BD-4EE0-9B7F-878EED11B82D";
userData = {
com.fontlab.autolayer = 1;
com.fontlab.recipe = "C+caron";
};
width = 758;
}
);
leftKerningGroup = O_C_G_Q;
unicode = "010C,010D";
},
{
color = (255,153,253,255);
glyphname = Ccedilla;
lastChange = "2022-05-26 13:14:09 +0000";
layers = (
{
background = {
anchors = (
{
name = bottom;
position = "{454, 0}";
},
{
name = top;
position = "{460, 765}";
}
);
paths = (
{
closed = 1;
nodes = (
"682 86 LINE",
"632 43 OFFCURVE",
"550.542 10 OFFCURVE",
"460 10 CURVE SMOOTH",
"278.912 10 OFFCURVE",
"156 144.871 OFFCURVE",
"156 350 CURVE SMOOTH",
"156 554.572 OFFCURVE",
"279.309 690 OFFCURVE",
"460 690 CURVE SMOOTH",
"540.422 690 OFFCURVE",
"619.044 664.863 OFFCURVE",
"669 619.746 CURVE",
"675 619.746 LINE",
"680 675.746 LINE",
"625 698.746 OFFCURVE",
"526.366 714 OFFCURVE",
"460 714 CURVE SMOOTH",
"245 714 OFFCURVE",
"80 558 OFFCURVE",
"80 350 CURVE SMOOTH",
"80 142 OFFCURVE",
"245 -14 OFFCURVE",
"460 -14 CURVE SMOOTH",
"524 -14 OFFCURVE",
"625 0 OFFCURVE",
"682 25 CURVE",
"688 86 LINE"
);
},
{
closed = 1;
nodes = (
"458 -84 OFFCURVE",
"481 -107 OFFCURVE",
"481 -142 CURVE SMOOTH",
"481 -175 OFFCURVE",
"460 -196 OFFCURVE",
"425 -196 CURVE SMOOTH",
"412 -196 OFFCURVE",
"394 -193 OFFCURVE",
"376 -187 CURVE",
"371 -204 LINE",
"408 -216 OFFCURVE",
"425 -220 OFFCURVE",
"445 -220 CURVE SMOOTH",
"504 -220 OFFCURVE",
"541 -187 OFFCURVE",
"541 -136 CURVE SMOOTH",
"541 -90 OFFCURVE",
"510 -64 OFFCURVE",
"447 -52 CURVE",
"469 4 LINE",
"447 4 LINE",
"415 -76 LINE"
);
}
);
};
components = (
{
name = C;
},
{
name = cedillacomb;
transform = "{1, 0, 0, 1, 320, 0}";
}
);
layerId = "879304B0-C0BD-4EE0-9B7F-878EED11B82D";
userData = {
com.fontlab.autolayer = 1;
com.fontlab.recipe = "C+cedilla";
};
width = 758;
}
);
leftKerningGroup = O_C_G_Q;
unicode = "00C7,00E7";
},
{
color = (255,153,253,255);
glyphname = Ccircumflex;
lastChange = "2022-05-26 13:14:03 +0000";
layers = (
{
background = {
anchors = (
{
name = bottom;
position = "{454, 0}";
},
{
name = top;
position = "{460, 765}";
}
);
paths = (
{
closed = 1;
nodes = (
"682 86 LINE",
"632 43 OFFCURVE",
"550.542 10 OFFCURVE",
"460 10 CURVE SMOOTH",
"278.912 10 OFFCURVE",
"156 144.871 OFFCURVE",
"156 350 CURVE SMOOTH",
"156 554.572 OFFCURVE",
"279.309 690 OFFCURVE",
"460 690 CURVE SMOOTH",
"540.422 690 OFFCURVE",
"619.044 664.863 OFFCURVE",
"669 619.746 CURVE",
"675 619.746 LINE",
"680 675.746 LINE",
"625 698.746 OFFCURVE",
"526.366 714 OFFCURVE",
"460 714 CURVE SMOOTH",
"245 714 OFFCURVE",
"80 558 OFFCURVE",
"80 350 CURVE SMOOTH",
"80 142 OFFCURVE",
"245 -14 OFFCURVE",
"460 -14 CURVE SMOOTH",
"524 -14 OFFCURVE",
"625 0 OFFCURVE",
"682 25 CURVE",
"688 86 LINE"
);
},
{
closed = 1;
nodes = (
"447 905 LINE",
"326 775 LINE",
"339 763 LINE",
"460 843 LINE",
"581 763 LINE",
"594 775 LINE",
"473 905 LINE"
);
}
);
};
components = (
{
name = C;
},
{
name = circumflexcomb;
transform = "{1, 0, 0, 1, 258, 0}";
}
);
layerId = "879304B0-C0BD-4EE0-9B7F-878EED11B82D";
userData = {
com.fontlab.autolayer = 1;
};
width = 758;
}
);
leftKerningGroup = O_C_G_Q;
unicode = "0108,0109";
},
{
color = (255,153,253,255);
glyphname = Cdotaccent;
lastChange = "2022-05-26 13:14:18 +0000";
layers = (
{
background = {
anchors = (
{
name = bottom;
position = "{454, 0}";
},
{
name = top;
position = "{460, 765}";
}
);
paths = (
{
closed = 1;
nodes = (
"682 86 LINE",
"632 43 OFFCURVE",
"550.542 10 OFFCURVE",
"460 10 CURVE SMOOTH",
"278.912 10 OFFCURVE",
"156 144.871 OFFCURVE",
"156 350 CURVE SMOOTH",
"156 554.572 OFFCURVE",
"279.309 690 OFFCURVE",
"460 690 CURVE SMOOTH",
"540.422 690 OFFCURVE",
"619.044 664.863 OFFCURVE",
"669 619.746 CURVE",
"675 619.746 LINE",
"680 675.746 LINE",
"625 698.746 OFFCURVE",
"526.366 714 OFFCURVE",
"460 714 CURVE SMOOTH",
"245 714 OFFCURVE",
"80 558 OFFCURVE",
"80 350 CURVE SMOOTH",
"80 142 OFFCURVE",
"245 -14 OFFCURVE",
"460 -14 CURVE SMOOTH",
"524 -14 OFFCURVE",
"625 0 OFFCURVE",
"682 25 CURVE",
"688 86 LINE"
);
},
{
closed = 1;
nodes = (
"412 817 OFFCURVE",
"432 797 OFFCURVE",
"460 797 CURVE SMOOTH",
"488 797 OFFCURVE",
"508 817 OFFCURVE",
"508 845 CURVE SMOOTH",
"508 873 OFFCURVE",
"488 893 OFFCURVE",
"460 893 CURVE SMOOTH",
"432 893 OFFCURVE",
"412 873 OFFCURVE",
"412 845 CURVE SMOOTH"
);
}
);
};
components = (
{
name = C;
},
{
name = dotaccentcomb;
transform = "{1, 0, 0, 1, 344, 0}";
}
);
layerId = "879304B0-C0BD-4EE0-9B7F-878EED11B82D";
userData = {
com.fontlab.autolayer = 1;
com.fontlab.recipe = "C+dotaccent";
};
width = 758;
}
);
leftKerningGroup = O_C_G_Q;
unicode = "010A,010B";
},
{
color = (153,255,154,255);
glyphname = D;
lastChange = "2022-05-26 13:14:43 +0000";
layers = (
{
anchors = (
{
name = bottom;
position = "{407, 0}";
},
{
name = center;
position = "{407, 350}";
},
{
name = top;
position = "{366, 700}";
}
);
background = {
anchors = (
{
name = top;
position = "{367, 765}";
}
);
paths = (
{
closed = 1;
nodes = (
"350 0 LINE SMOOTH",
"581 0 OFFCURVE",
"734 141 OFFCURVE",
"734 350 CURVE SMOOTH",
"734 559 OFFCURVE",
"581 700 OFFCURVE",
"350 700 CURVE SMOOTH",
"173 700 LINE",
"173 676 LINE",
"350 676 LINE SMOOTH",
"542.937 676 OFFCURVE",
"658 555.369 OFFCURVE",
"658 350 CURVE SMOOTH",
"658 145 OFFCURVE",
"543 24 OFFCURVE",
"350 24 CURVE SMOOTH",
"165 24 LINE",
"165 0 LINE"
);
},
{
closed = 1;
nodes = (
"198 0 LINE",
"198 700 LINE",
"130 700 LINE",
"130 0 LINE"
);
}
);
};
guideLines = (
{
position = "{0, 621}";
},
{
position = "{0, 84}";
},
{
angle = 90;
position = "{350, 0}";
}
);
layerId = "879304B0-C0BD-4EE0-9B7F-878EED11B82D";
paths = (
{
closed = 1;
nodes = (
"350 0 LINE SMOOTH",
"581 0 OFFCURVE",
"734 141 OFFCURVE",
"734 350 CURVE SMOOTH",
"734 559 OFFCURVE",
"581 700 OFFCURVE",
"350 700 CURVE SMOOTH",
"173 700 LINE",
"173 676 LINE",
"350 676 LINE SMOOTH",
"542.937 676 OFFCURVE",
"658 555.369 OFFCURVE",
"658 350 CURVE SMOOTH",
"658 145 OFFCURVE",
"543 24 OFFCURVE",
"350 24 CURVE SMOOTH",
"165 24 LINE",
"165 0 LINE"
);
},
{
closed = 1;
nodes = (
"198 0 LINE",
"198 700 LINE",
"130 700 LINE",
"130 0 LINE"
);
}
);
userData = {
com.fontlab.metricsLeft = H;
com.fontlab.metricsRight = O;
};
vertWidth = 0;
width = 814;
}
);
rightKerningGroup = D_O_Q;
unicode = "0044,0064";
},
{
color = (255,153,253,255);
glyphname = Eth;
lastChange = "2022-05-26 13:06:07 +0000";
layers = (
{
background = {
anchors = (
{
name = top;
position = "{367, 765}";
}
);
paths = (
{
closed = 1;
nodes = (
"372 352 LINE",
"372 376 LINE",
"38 376 LINE",
"38 352 LINE"
);
},
{
closed = 1;
nodes = (
"350 0 LINE SMOOTH",
"581 0 OFFCURVE",
"734 141 OFFCURVE",
"734 350 CURVE SMOOTH",
"734 559 OFFCURVE",
"581 700 OFFCURVE",
"350 700 CURVE SMOOTH",
"173 700 LINE",
"173 676 LINE",
"350 676 LINE SMOOTH",
"542.937 676 OFFCURVE",
"658 555.369 OFFCURVE",
"658 350 CURVE SMOOTH",
"658 145 OFFCURVE",
"543 24 OFFCURVE",
"350 24 CURVE SMOOTH",
"165 24 LINE",
"165 0 LINE"
);
},
{
closed = 1;
nodes = (
"198 0 LINE",
"198 700 LINE",
"130 700 LINE",
"130 0 LINE"
);
}
);
};
components = (
{
name = D;
}
);
guideLines = (
{
position = "{0, 350}";
}
);
layerId = "879304B0-C0BD-4EE0-9B7F-878EED11B82D";
paths = (
{
closed = 1;
nodes = (
"372 352 LINE",
"372 376 LINE",
"38 376 LINE",
"38 352 LINE"
);
}
);
userData = {
com.fontlab.metricsLeft = "D-92";
com.fontlab.metricsRight = D;
};
vertWidth = 0;
width = 814;
}
);
unicode = "00D0,00F0";
},
{
color = (255,153,253,255);
glyphname = Dcaron;
lastChange = "2022-05-26 13:14:43 +0000";
layers = (
{
background = {
anchors = (
{
name = top;
position = "{367, 765}";
}
);
paths = (
{
closed = 1;
nodes = (
"350 0 LINE SMOOTH",
"581 0 OFFCURVE",
"734 141 OFFCURVE",
"734 350 CURVE SMOOTH",
"734 559 OFFCURVE",
"581 700 OFFCURVE",
"350 700 CURVE SMOOTH",
"173 700 LINE",
"173 676 LINE",
"350 676 LINE SMOOTH",
"542.937 676 OFFCURVE",
"658 555.369 OFFCURVE",
"658 350 CURVE SMOOTH",
"658 145 OFFCURVE",
"543 24 OFFCURVE",
"350 24 CURVE SMOOTH",
"165 24 LINE",
"165 0 LINE"
);
},
{
closed = 1;
nodes = (
"198 0 LINE",
"198 700 LINE",
"130 700 LINE",
"130 0 LINE"
);
},
{
closed = 1;
nodes = (
"380 775 LINE",
"501 905 LINE",
"488 917 LINE",
"367 837 LINE",
"246 917 LINE",
"233 905 LINE",
"354 775 LINE"
);
}
);
};
components = (
{
name = D;
},
{
name = caroncomb;
transform = "{1, 0, 0, 1, 162, 0}";
}
);
layerId = "879304B0-C0BD-4EE0-9B7F-878EED11B82D";
userData = {
com.fontlab.autolayer = 1;
com.fontlab.recipe = "D+caron";
};
width = 814;
}
);
rightKerningGroup = D_O_Q;
unicode = "010E,010F";
},
{
color = (255,153,253,255);
glyphname = Dcroat;
lastChange = "2022-05-26 13:09:29 +0000";
layers = (
{
background = {
anchors = (
{
name = top;
position = "{367, 765}";
}
);
paths = (
{
closed = 1;
nodes = (
"372 352 LINE",
"372 376 LINE",
"38 376 LINE",
"38 352 LINE"
);
},
{
closed = 1;
nodes = (
"350 0 LINE SMOOTH",
"581 0 OFFCURVE",
"734 141 OFFCURVE",
"734 350 CURVE SMOOTH",
"734 559 OFFCURVE",
"581 700 OFFCURVE",
"350 700 CURVE SMOOTH",
"173 700 LINE",
"173 676 LINE",
"350 676 LINE SMOOTH",
"542.937 676 OFFCURVE",
"658 555.369 OFFCURVE",
"658 350 CURVE SMOOTH",
"658 145 OFFCURVE",
"543 24 OFFCURVE",
"350 24 CURVE SMOOTH",
"165 24 LINE",
"165 0 LINE"
);
},
{
closed = 1;
nodes = (
"198 0 LINE",
"198 700 LINE",
"130 700 LINE",
"130 0 LINE"
);
}
);
};
components = (
{
name = Eth;
}
);
layerId = "879304B0-C0BD-4EE0-9B7F-878EED11B82D";
userData = {
com.fontlab.autolayer = 1;
com.fontlab.recipe = Eth;
};
width = 814;
}
);
rightKerningGroup = D_O_Q;
unicode = "0110,0111";
},
{
color = (153,255,154,255);
glyphname = E;
lastChange = "2022-05-26 13:15:07 +0000";
layers = (
{
anchors = (
{
name = bottom;
position = "{259, 0}";
},
{
name = ogonek;
position = "{390, 0}";
},
{
name = top;
position = "{279, 700}";
},
{
name = topleft;
position = "{20, 700}";
}
);
background = {
anchors = (
{
name = bottom;
position = "{390, 0}";
},
{
name = top;
position = "{280, 765}";
}
);
paths = (
{
closed = 1;
nodes = (
"198 355 LINE SMOOTH",
"206.532 355 OFFCURVE",
"227.198 354 OFFCURVE",
"260 352 CURVE SMOOTH",
"424 342 LINE",
"424 388 LINE",
"260 378 LINE SMOOTH",
"227.198 376 OFFCURVE",
"206.532 375 OFFCURVE",
"198 375 CURVE SMOOTH",
"188 375 LINE",
"188 355 LINE"
);
},
{
closed = 1;
nodes = (
"198 0 LINE",
"198 700 LINE",
"130 700 LINE",
"130 0 LINE"
);
},
{
closed = 1;
nodes = (
"188 680 LINE",
"197.914 680 LINE SMOOTH",
"208.905 680 OFFCURVE",
"229.6 678 OFFCURVE",
"260 674 CURVE SMOOTH",
"435 651 LINE",
"435 700 LINE",
"188 700 LINE"
);
},
{
closed = 1;
nodes = (
"438 0 LINE",
"438 49 LINE",
"261 26 LINE SMOOTH",
"230.6 22 OFFCURVE",
"209.6 20 OFFCURVE",
"198 20 CURVE SMOOTH",
"188 20 LINE",
"188 0 LINE"
);
}
);
};
guideLines = (
{
position = "{0, 365}";
},
{
angle = 90;
position = "{401, 0}";
},
{
angle = 90;
position = "{438, 0}";
}
);
layerId = "879304B0-C0BD-4EE0-9B7F-878EED11B82D";
paths = (
{
closed = 1;
nodes = (
"198 355 LINE SMOOTH",
"206.532 355 OFFCURVE",
"227.198 354 OFFCURVE",
"260 352 CURVE SMOOTH",
"424 342 LINE",
"424 388 LINE",
"260 378 LINE SMOOTH",
"227.198 376 OFFCURVE",
"206.532 375 OFFCURVE",
"198 375 CURVE SMOOTH",
"188 375 LINE",
"188 355 LINE"
);
},
{
closed = 1;
nodes = (
"198 0 LINE",
"198 700 LINE",
"130 700 LINE",
"130 0 LINE"
);
},
{
closed = 1;
nodes = (
"188 680 LINE",
"197.914 680 LINE SMOOTH",
"208.905 680 OFFCURVE",
"229.6 678 OFFCURVE",
"260 674 CURVE SMOOTH",
"435 651 LINE",
"435 700 LINE",
"188 700 LINE"
);
},
{
closed = 1;
nodes = (
"438 0 LINE",
"438 49 LINE",
"261 26 LINE SMOOTH",
"231 22 OFFCURVE",
"209.6 20 OFFCURVE",
"198 20 CURVE SMOOTH",
"188 20 LINE",
"188 0 LINE"
);
}
);
userData = {
com.fontlab.metricsLeft = H;
};
vertWidth = 0;
width = 518;
}
);
rightKerningGroup = E_gr;
unicode = "0045,0065";
},
{
color = (255,153,253,255);
glyphname = Eacute;
lastChange = "2022-05-26 13:14:52 +0000";
layers = (
{
background = {
anchors = (
{
name = bottom;
position = "{390, 0}";
},
{
name = top;
position = "{280, 765}";
}
);
paths = (
{
closed = 1;
nodes = (
"198 355 LINE SMOOTH",
"206.532 355 OFFCURVE",
"227.198 354 OFFCURVE",
"260 352 CURVE SMOOTH",
"424 342 LINE",
"424 388 LINE",
"260 378 LINE SMOOTH",
"227.198 376 OFFCURVE",
"206.532 375 OFFCURVE",
"198 375 CURVE SMOOTH",
"188 375 LINE",
"188 355 LINE"
);
},
{
closed = 1;
nodes = (
"198 0 LINE",
"198 700 LINE",
"130 700 LINE",
"130 0 LINE"
);
},
{
closed = 1;
nodes = (
"188 680 LINE",
"197.914 680 LINE SMOOTH",
"208.905 680 OFFCURVE",
"229.6 678 OFFCURVE",
"260 674 CURVE SMOOTH",
"435 651 LINE",
"435 700 LINE",
"188 700 LINE"
);
},
{
closed = 1;
nodes = (
"438 0 LINE",
"438 49 LINE",
"261 26 LINE SMOOTH",
"230.6 22 OFFCURVE",
"209.6 20 OFFCURVE",
"198 20 CURVE SMOOTH",
"188 20 LINE",
"188 0 LINE"
);
},
{
closed = 1;
nodes = (
"234 763 LINE",
"408 891 LINE",
"408 897 LINE",
"318 897 LINE",
"221 775 LINE"
);
}
);
};
components = (
{
name = E;
},
{
name = acutecomb;
transform = "{1, 0, 0, 1, 188, 0}";
}
);
layerId = "879304B0-C0BD-4EE0-9B7F-878EED11B82D";
userData = {
com.fontlab.autolayer = 1;
};
width = 518;
}
);
rightKerningGroup = E_gr;
unicode = "00C9,00E9";
},
{
color = (255,153,253,255);
glyphname = Ebreve;
lastChange = "2022-05-26 13:14:52 +0000";
layers = (
{
background = {
anchors = (
{
name = bottom;
position = "{390, 0}";
},
{
name = top;
position = "{280, 765}";
}
);
paths = (
{
closed = 1;
nodes = (
"198 355 LINE SMOOTH",
"206.532 355 OFFCURVE",
"227.198 354 OFFCURVE",
"260 352 CURVE SMOOTH",
"424 342 LINE",
"424 388 LINE",
"260 378 LINE SMOOTH",
"227.198 376 OFFCURVE",
"206.532 375 OFFCURVE",
"198 375 CURVE SMOOTH",
"188 375 LINE",
"188 355 LINE"
);
},
{
closed = 1;
nodes = (
"198 0 LINE",
"198 700 LINE",
"130 700 LINE",
"130 0 LINE"
);
},
{
closed = 1;
nodes = (
"188 680 LINE",
"197.914 680 LINE SMOOTH",
"208.905 680 OFFCURVE",
"229.6 678 OFFCURVE",
"260 674 CURVE SMOOTH",
"435 651 LINE",
"435 700 LINE",
"188 700 LINE"
);
},
{
closed = 1;
nodes = (
"438 0 LINE",
"438 49 LINE",
"261 26 LINE SMOOTH",
"230.6 22 OFFCURVE",
"209.6 20 OFFCURVE",
"198 20 CURVE SMOOTH",
"188 20 LINE",
"188 0 LINE"
);
},
{
closed = 1;
nodes = (
"344 777 OFFCURVE",
"391 824 OFFCURVE",
"409 906 CURVE",
"392 912 LINE",
"359 855 OFFCURVE",
"330 835 OFFCURVE",
"280 835 CURVE SMOOTH",
"230 835 OFFCURVE",
"201 855 OFFCURVE",
"168 912 CURVE",
"151 906 LINE",
"169 824 OFFCURVE",
"216 777 OFFCURVE",
"280 777 CURVE SMOOTH"
);
}
);
};
components = (
{
name = E;
},
{
name = brevecomb;
transform = "{1, 0, 0, 1, 80, 0}";
}
);
layerId = "879304B0-C0BD-4EE0-9B7F-878EED11B82D";
userData = {
com.fontlab.autolayer = 1;
com.fontlab.recipe = "E+breve";
};
width = 518;
}
);
rightKerningGroup = E_gr;
unicode = "0114,0115";
},
{
color = (255,153,253,255);
glyphname = Ecaron;
lastChange = "2022-05-26 13:14:52 +0000";
layers = (
{
background = {
anchors = (
{
name = bottom;
position = "{390, 0}";
},
{
name = top;
position = "{280, 765}";
}
);
paths = (
{
closed = 1;
nodes = (
"198 355 LINE SMOOTH",
"206.532 355 OFFCURVE",
"227.198 354 OFFCURVE",
"260 352 CURVE SMOOTH",
"424 342 LINE",
"424 388 LINE",
"260 378 LINE SMOOTH",
"227.198 376 OFFCURVE",
"206.532 375 OFFCURVE",
"198 375 CURVE SMOOTH",
"188 375 LINE",
"188 355 LINE"
);
},
{
closed = 1;
nodes = (
"198 0 LINE",
"198 700 LINE",
"130 700 LINE",
"130 0 LINE"
);
},
{
closed = 1;
nodes = (
"188 680 LINE",
"197.914 680 LINE SMOOTH",
"208.905 680 OFFCURVE",
"229.6 678 OFFCURVE",
"260 674 CURVE SMOOTH",
"435 651 LINE",
"435 700 LINE",
"188 700 LINE"
);
},
{
closed = 1;
nodes = (
"438 0 LINE",
"438 49 LINE",
"261 26 LINE SMOOTH",
"230.6 22 OFFCURVE",
"209.6 20 OFFCURVE",
"198 20 CURVE SMOOTH",
"188 20 LINE",
"188 0 LINE"
);
},
{
closed = 1;
nodes = (
"293 775 LINE",
"414 905 LINE",
"401 917 LINE",
"280 837 LINE",
"159 917 LINE",
"146 905 LINE",
"267 775 LINE"
);
}
);
};
components = (
{
name = E;
},
{
name = caroncomb;
transform = "{1, 0, 0, 1, 75, 0}";
}
);
layerId = "879304B0-C0BD-4EE0-9B7F-878EED11B82D";
userData = {
com.fontlab.autolayer = 1;
com.fontlab.recipe = "E+caron";
};
width = 518;
}
);
rightKerningGroup = E_gr;
unicode = "011A,011B";
},
{
color = (255,153,253,255);
glyphname = Ecircumflex;
lastChange = "2022-05-26 13:14:52 +0000";
layers = (
{
background = {
anchors = (
{
name = bottom;
position = "{390, 0}";
},
{
name = top;
position = "{280, 765}";
}
);
paths = (
{
closed = 1;
nodes = (
"198 355 LINE SMOOTH",
"206.532 355 OFFCURVE",
"227.198 354 OFFCURVE",
"260 352 CURVE SMOOTH",
"424 342 LINE",
"424 388 LINE",
"260 378 LINE SMOOTH",
"227.198 376 OFFCURVE",
"206.532 375 OFFCURVE",
"198 375 CURVE SMOOTH",
"188 375 LINE",
"188 355 LINE"
);
},
{
closed = 1;
nodes = (
"198 0 LINE",
"198 700 LINE",
"130 700 LINE",
"130 0 LINE"
);
},
{
closed = 1;
nodes = (
"188 680 LINE",
"197.914 680 LINE SMOOTH",
"208.905 680 OFFCURVE",
"229.6 678 OFFCURVE",
"260 674 CURVE SMOOTH",
"435 651 LINE",
"435 700 LINE",
"188 700 LINE"
);
},
{
closed = 1;
nodes = (
"438 0 LINE",
"438 49 LINE",
"261 26 LINE SMOOTH",
"230.6 22 OFFCURVE",
"209.6 20 OFFCURVE",
"198 20 CURVE SMOOTH",
"188 20 LINE",
"188 0 LINE"
);
},
{
closed = 1;
nodes = (
"267 905 LINE",
"146 775 LINE",
"159 763 LINE",
"280 843 LINE",
"401 763 LINE",
"414 775 LINE",
"293 905 LINE"
);
}
);
};
components = (
{
name = E;
},
{
name = circumflexcomb;
transform = "{1, 0, 0, 1, 75, 0}";
}
);
layerId = "879304B0-C0BD-4EE0-9B7F-878EED11B82D";
userData = {
com.fontlab.autolayer = 1;
com.fontlab.recipe = "E+circumflex";
};
width = 518;
}
);
rightKerningGroup = E_gr;
unicode = "00CA,00EA";
},
{
color = (255,153,253,255);
glyphname = Edieresis;
lastChange = "2022-05-26 13:14:52 +0000";
layers = (
{
background = {
anchors = (
{
name = bottom;
position = "{390, 0}";
},
{
name = top;
position = "{280, 765}";
}
);
paths = (
{
closed = 1;
nodes = (
"198 355 LINE SMOOTH",
"206.532 355 OFFCURVE",
"227.198 354 OFFCURVE",
"260 352 CURVE SMOOTH",
"424 342 LINE",
"424 388 LINE",
"260 378 LINE SMOOTH",
"227.198 376 OFFCURVE",
"206.532 375 OFFCURVE",
"198 375 CURVE SMOOTH",
"188 375 LINE",
"188 355 LINE"
);
},
{
closed = 1;
nodes = (
"198 0 LINE",
"198 700 LINE",
"130 700 LINE",
"130 0 LINE"
);
},
{
closed = 1;
nodes = (
"188 680 LINE",
"197.914 680 LINE SMOOTH",
"208.905 680 OFFCURVE",
"229.6 678 OFFCURVE",
"260 674 CURVE SMOOTH",
"435 651 LINE",
"435 700 LINE",
"188 700 LINE"
);
},
{
closed = 1;
nodes = (
"438 0 LINE",
"438 49 LINE",
"261 26 LINE SMOOTH",
"230.6 22 OFFCURVE",
"209.6 20 OFFCURVE",
"198 20 CURVE SMOOTH",
"188 20 LINE",
"188 0 LINE"
);
},
{
closed = 1;
nodes = (
"338 819 OFFCURVE",
"357 800 OFFCURVE",
"383 800 CURVE SMOOTH",
"409 800 OFFCURVE",
"428 819 OFFCURVE",
"428 845 CURVE SMOOTH",
"428 871 OFFCURVE",
"409 890 OFFCURVE",
"383 890 CURVE SMOOTH",
"357 890 OFFCURVE",
"338 871 OFFCURVE",
"338 845 CURVE SMOOTH"
);
},
{
closed = 1;
nodes = (
"132 819 OFFCURVE",
"151 800 OFFCURVE",
"177 800 CURVE SMOOTH",
"203 800 OFFCURVE",
"222 819 OFFCURVE",
"222 845 CURVE SMOOTH",
"222 871 OFFCURVE",
"203 890 OFFCURVE",
"177 890 CURVE SMOOTH",
"151 890 OFFCURVE",
"132 871 OFFCURVE",
"132 845 CURVE SMOOTH"
);
}
);
};
components = (
{
name = E;
},
{
name = dieresiscomb;
transform = "{1, 0, 0, 1, 61, 0}";
}
);
layerId = "879304B0-C0BD-4EE0-9B7F-878EED11B82D";
userData = {
com.fontlab.autolayer = 1;
com.fontlab.recipe = "E+dieresis";
};
width = 518;
}
);
rightKerningGroup = E_gr;
unicode = "00CB,00EB";
},
{
color = (255,153,253,255);
glyphname = Edotaccent;
lastChange = "2022-05-26 13:14:52 +0000";
layers = (
{
background = {
anchors = (
{
name = bottom;
position = "{390, 0}";
},
{
name = top;
position = "{280, 765}";
}
);
paths = (
{
closed = 1;
nodes = (
"198 355 LINE SMOOTH",
"206.532 355 OFFCURVE",
"227.198 354 OFFCURVE",
"260 352 CURVE SMOOTH",
"424 342 LINE",
"424 388 LINE",
"260 378 LINE SMOOTH",
"227.198 376 OFFCURVE",
"206.532 375 OFFCURVE",
"198 375 CURVE SMOOTH",
"188 375 LINE",
"188 355 LINE"
);
},
{
closed = 1;
nodes = (
"198 0 LINE",
"198 700 LINE",
"130 700 LINE",
"130 0 LINE"
);
},
{
closed = 1;
nodes = (
"188 680 LINE",
"197.914 680 LINE SMOOTH",
"208.905 680 OFFCURVE",
"229.6 678 OFFCURVE",
"260 674 CURVE SMOOTH",
"435 651 LINE",
"435 700 LINE",
"188 700 LINE"
);
},
{
closed = 1;
nodes = (
"438 0 LINE",
"438 49 LINE",
"261 26 LINE SMOOTH",
"230.6 22 OFFCURVE",
"209.6 20 OFFCURVE",
"198 20 CURVE SMOOTH",
"188 20 LINE",
"188 0 LINE"
);
},
{
closed = 1;
nodes = (
"232 817 OFFCURVE",
"252 797 OFFCURVE",
"280 797 CURVE SMOOTH",
"308 797 OFFCURVE",
"328 817 OFFCURVE",
"328 845 CURVE SMOOTH",
"328 873 OFFCURVE",
"308 893 OFFCURVE",
"280 893 CURVE SMOOTH",
"252 893 OFFCURVE",
"232 873 OFFCURVE",
"232 845 CURVE SMOOTH"
);
}
);
};
components = (
{
name = E;
},
{
name = dotaccentcomb;
transform = "{1, 0, 0, 1, 161, 0}";
}
);
layerId = "879304B0-C0BD-4EE0-9B7F-878EED11B82D";
userData = {
com.fontlab.autolayer = 1;
};
width = 518;
}
);
rightKerningGroup = E_gr;
unicode = "0116,0117";
},
{
color = (255,153,253,255);
glyphname = Egrave;
lastChange = "2022-05-26 13:14:52 +0000";
layers = (
{
background = {
anchors = (
{
name = bottom;
position = "{390, 0}";
},
{
name = top;
position = "{280, 765}";
}
);
paths = (
{
closed = 1;
nodes = (
"198 355 LINE SMOOTH",
"206.532 355 OFFCURVE",
"227.198 354 OFFCURVE",
"260 352 CURVE SMOOTH",
"424 342 LINE",
"424 388 LINE",
"260 378 LINE SMOOTH",
"227.198 376 OFFCURVE",
"206.532 375 OFFCURVE",
"198 375 CURVE SMOOTH",
"188 375 LINE",
"188 355 LINE"
);
},
{
closed = 1;
nodes = (
"198 0 LINE",
"198 700 LINE",
"130 700 LINE",
"130 0 LINE"
);
},
{
closed = 1;
nodes = (
"188 680 LINE",
"197.914 680 LINE SMOOTH",
"208.905 680 OFFCURVE",
"229.6 678 OFFCURVE",
"260 674 CURVE SMOOTH",
"435 651 LINE",
"435 700 LINE",
"188 700 LINE"
);
},
{
closed = 1;
nodes = (
"438 0 LINE",
"438 49 LINE",
"261 26 LINE SMOOTH",
"230.6 22 OFFCURVE",
"209.6 20 OFFCURVE",
"198 20 CURVE SMOOTH",
"188 20 LINE",
"188 0 LINE"
);
},
{
closed = 1;
nodes = (
"242 897 LINE",
"152 897 LINE",
"152 891 LINE",
"326 763 LINE",
"339 775 LINE"
);
}
);
};
components = (
{
name = E;
},
{
name = gravecomb;
transform = "{1, 0, 0, 1, 131, 0}";
}
);
layerId = "879304B0-C0BD-4EE0-9B7F-878EED11B82D";
userData = {
com.fontlab.autolayer = 1;
com.fontlab.recipe = "E+grave";
};
width = 518;
}
);
rightKerningGroup = E_gr;
unicode = "00C8,00E8";
},
{
color = (255,153,253,255);
glyphname = Emacron;
lastChange = "2022-05-26 13:14:52 +0000";
layers = (
{
background = {
anchors = (
{
name = bottom;
position = "{390, 0}";
},
{
name = top;
position = "{280, 765}";
}
);
paths = (
{
closed = 1;
nodes = (
"198 355 LINE SMOOTH",
"206.532 355 OFFCURVE",
"227.198 354 OFFCURVE",
"260 352 CURVE SMOOTH",
"424 342 LINE",
"424 388 LINE",
"260 378 LINE SMOOTH",
"227.198 376 OFFCURVE",
"206.532 375 OFFCURVE",
"198 375 CURVE SMOOTH",
"188 375 LINE",
"188 355 LINE"
);
},
{
closed = 1;
nodes = (
"198 0 LINE",
"198 700 LINE",
"130 700 LINE",
"130 0 LINE"
);
},
{
closed = 1;
nodes = (
"188 680 LINE",
"197.914 680 LINE SMOOTH",
"208.905 680 OFFCURVE",
"229.6 678 OFFCURVE",
"260 674 CURVE SMOOTH",
"435 651 LINE",
"435 700 LINE",
"188 700 LINE"
);
},
{
closed = 1;
nodes = (
"438 0 LINE",
"438 49 LINE",
"261 26 LINE SMOOTH",
"230.6 22 OFFCURVE",
"209.6 20 OFFCURVE",
"198 20 CURVE SMOOTH",
"188 20 LINE",
"188 0 LINE"
);
},
{
closed = 1;
nodes = (
"414 818 LINE",
"414 858 LINE",
"146 858 LINE",
"146 818 LINE"
);
}
);
};
components = (
{
name = E;
},
{
name = macroncomb;
transform = "{1, 0, 0, 1, 95, 0}";
}
);
layerId = "879304B0-C0BD-4EE0-9B7F-878EED11B82D";
userData = {
com.fontlab.autolayer = 1;
};
width = 518;
}
);
rightKerningGroup = E_gr;
unicode = "0112,0113";
},
{
color = (255,153,253,255);
glyphname = Eogonek;
lastChange = "2022-05-26 13:15:07 +0000";
layers = (
{
anchors = (
{
name = top;
position = "{259, 700}";
}
);
background = {
anchors = (
{
name = bottom;
position = "{390, 0}";
},
{
name = top;
position = "{280, 765}";
}
);
paths = (
{
closed = 1;
nodes = (
"198 355 LINE SMOOTH",
"206.532 355 OFFCURVE",
"227.198 354 OFFCURVE",
"260 352 CURVE SMOOTH",
"424 342 LINE",
"424 388 LINE",
"260 378 LINE SMOOTH",
"227.198 376 OFFCURVE",
"206.532 375 OFFCURVE",
"198 375 CURVE SMOOTH",
"188 375 LINE",
"188 355 LINE"
);
},
{
closed = 1;
nodes = (
"198 0 LINE",
"198 700 LINE",
"130 700 LINE",
"130 0 LINE"
);
},
{
closed = 1;
nodes = (
"188 680 LINE",
"197.914 680 LINE SMOOTH",
"208.905 680 OFFCURVE",
"229.6 678 OFFCURVE",
"260 674 CURVE SMOOTH",
"435 651 LINE",
"435 700 LINE",
"188 700 LINE"
);
},
{
closed = 1;
nodes = (
"438 0 LINE",
"438 49 LINE",
"261 26 LINE SMOOTH",
"230.6 22 OFFCURVE",
"209.6 20 OFFCURVE",
"198 20 CURVE SMOOTH",
"188 20 LINE",
"188 0 LINE"
);
},
{
closed = 1;
nodes = (
"427 -164 LINE",
"413 -174 OFFCURVE",
"396 -180 OFFCURVE",
"382 -180 CURVE SMOOTH",
"353 -180 OFFCURVE",
"335 -156 OFFCURVE",
"335 -118 CURVE SMOOTH",
"335 -81 OFFCURVE",
"352 -44 OFFCURVE",
"390 0 CURVE",
"388 10 LINE",
"379 10 LINE",
"306 -42 OFFCURVE",
"275 -85 OFFCURVE",
"275 -135 CURVE SMOOTH",
"275 -186 OFFCURVE",
"307 -220 OFFCURVE",
"356 -220 CURVE SMOOTH",
"387 -220 OFFCURVE",
"412 -207 OFFCURVE",
"438 -178 CURVE"
);
}
);
};
components = (
{
name = E;
},
{
name = ogonekcomb;
transform = "{1, 0, 0, 1, 205, 0}";
}
);
layerId = "879304B0-C0BD-4EE0-9B7F-878EED11B82D";
userData = {
com.fontlab.autolayer = 1;
com.fontlab.recipe = "E+ogonek";
};
width = 518;
}
);
rightKerningGroup = E_gr;
unicode = "0118,0119";
},
{
color = (255,153,253,255);
glyphname = Etilde;
lastChange = "2022-05-26 13:14:52 +0000";
layers = (
{
background = {
anchors = (
{
name = bottom;
position = "{390, 0}";
},
{
name = top;
position = "{280, 765}";
}
);
paths = (
{
closed = 1;
nodes = (
"198 355 LINE SMOOTH",
"206.532 355 OFFCURVE",
"227.198 354 OFFCURVE",
"260 352 CURVE SMOOTH",
"424 342 LINE",
"424 388 LINE",
"260 378 LINE SMOOTH",
"227.198 376 OFFCURVE",
"206.532 375 OFFCURVE",
"198 375 CURVE SMOOTH",
"188 375 LINE",
"188 355 LINE"
);
},
{
closed = 1;
nodes = (
"198 0 LINE",
"198 700 LINE",
"130 700 LINE",
"130 0 LINE"
);
},
{
closed = 1;
nodes = (
"188 680 LINE",
"197.914 680 LINE SMOOTH",
"208.905 680 OFFCURVE",
"229.6 678 OFFCURVE",
"260 674 CURVE SMOOTH",
"435 651 LINE",
"435 700 LINE",
"188 700 LINE"
);
},
{
closed = 1;
nodes = (
"438 0 LINE",
"438 49 LINE",
"261 26 LINE SMOOTH",
"230.6 22 OFFCURVE",
"209.6 20 OFFCURVE",
"198 20 CURVE SMOOTH",
"188 20 LINE",
"188 0 LINE"
);
},
{
closed = 1;
nodes = (
"268 887 OFFCURVE",
"246 900 OFFCURVE",
"218 900 CURVE SMOOTH",
"181 900 OFFCURVE",
"155 877 OFFCURVE",
"120 808 CURVE",
"135 798 LINE",
"163 836 OFFCURVE",
"183 846 OFFCURVE",
"204 846 CURVE SMOOTH",
"228 846 OFFCURVE",
"250 832 OFFCURVE",
"270 819 CURVE SMOOTH",
"292 805 OFFCURVE",
"314 792 OFFCURVE {name = hr01;}",
"342 792 CURVE SMOOTH",
"379 792 OFFCURVE",
"405 815 OFFCURVE",
"440 884 CURVE",
"425 894 LINE",
"397 856 OFFCURVE",
"377 846 OFFCURVE",
"356 846 CURVE SMOOTH",
"332 846 OFFCURVE",
"310 860 OFFCURVE",
"290 873 CURVE SMOOTH"
);
}
);
};
components = (
{
name = E;
},
{
name = tildecomb;
transform = "{1, 0, 0, 1, 76, 0}";
}
);
layerId = "879304B0-C0BD-4EE0-9B7F-878EED11B82D";
userData = {
com.fontlab.autolayer = 1;
com.fontlab.recipe = "E+tilde";
};
width = 518;
}
);
rightKerningGroup = E_gr;
unicode = "1EBC,1EBD";
},
{
color = (255,153,253,255);
glyphname = Schwa;
lastChange = "2022-05-26 13:06:07 +0000";
layers = (
{
anchors = (
{
name = bottom;
position = "{395, 0}";
},
{
name = top;
position = "{395, 700}";
}
);
background = {
paths = (
{
closed = 1;
nodes = (
"575.242 -15 OFFCURVE",
"719 144.346 OFFCURVE",
"719 355.97 CURVE SMOOTH",
"719 569.36 OFFCURVE",
"574.545 714 OFFCURVE",
"360.428 714 CURVE SMOOTH",
"287.424 714 OFFCURVE",
"186.727 698.724 OFFCURVE",
"131 676 CURVE",
"136 620 LINE",
"142 620 LINE",
"204.416 666.568 OFFCURVE",
"283.762 690 OFFCURVE",
"359.975 690 CURVE SMOOTH",
"535.108 690 OFFCURVE",
"643 563.448 OFFCURVE",
"643 355.97 CURVE SMOOTH",
"643 147.707 OFFCURVE",
"538.576 9 OFFCURVE",
"384.016 9 CURVE SMOOTH",
"234.181 9 OFFCURVE",
"140 133.209 OFFCURVE",
"140 334 CURVE SMOOTH",
"140 345 LINE",
"64 345 LINE",
"64 334.783 LINE SMOOTH",
"64 133.172 OFFCURVE",
"199.691 -15 OFFCURVE",
"384.321 -15 CURVE SMOOTH"
);
},
{
closed = 1;
nodes = (
"692 321 LINE",
"692 345 LINE",
"107 345 LINE",
"107 321 LINE"
);
}
);
};
layerId = "879304B0-C0BD-4EE0-9B7F-878EED11B82D";
paths = (
{
closed = 1;
nodes = (
"575.242 -15 OFFCURVE",
"719 144.346 OFFCURVE",
"719 355.97 CURVE SMOOTH",
"719 569.36 OFFCURVE",
"574.545 714 OFFCURVE",
"360.428 714 CURVE SMOOTH",
"287.424 714 OFFCURVE",
"186.727 698.724 OFFCURVE",
"131 676 CURVE",
"136 620 LINE",
"142 620 LINE",
"204.416 666.568 OFFCURVE",
"283.762 690 OFFCURVE",
"359.975 690 CURVE SMOOTH",
"535.108 690 OFFCURVE",
"643 563.448 OFFCURVE",
"643 355.97 CURVE SMOOTH",
"643 147.707 OFFCURVE",
"538.576 9 OFFCURVE",
"384.016 9 CURVE SMOOTH",
"234.181 9 OFFCURVE",
"140 133.209 OFFCURVE",
"140 334 CURVE SMOOTH",
"140 345 LINE",
"64 345 LINE",
"64 334.783 LINE SMOOTH",
"64 133.172 OFFCURVE",
"199.691 -15 OFFCURVE",
"384.321 -15 CURVE SMOOTH"
);
},
{
closed = 1;
nodes = (
"692 321 LINE",
"692 345 LINE",
"107 345 LINE",
"107 321 LINE"
);
}
);
vertWidth = 0;
width = 789;
}
);
rightKerningGroup = D_O_Q;
unicode = "018F,0259";
},
{
color = (153,255,154,255);
glyphname = F;
lastChange = "2022-05-26 13:06:07 +0000";
layers = (
{
anchors = (
{
name = bottom;
position = "{245, 0}";
},
{
name = top;
position = "{245, 700}";
}
);
background = {
paths = (
{
closed = 1;
nodes = (
"198 347 LINE SMOOTH",
"208.733 347 OFFCURVE",
"229.4 346 OFFCURVE",
"260 344 CURVE SMOOTH",
"413 334 LINE",
"413 380 LINE",
"260 370 LINE SMOOTH",
"229.4 368 OFFCURVE",
"208.733 367 OFFCURVE",
"198 367 CURVE SMOOTH",
"188 367 LINE",
"188 347 LINE"
);
},
{
closed = 1;
nodes = (
"198 0 LINE",
"198 700 LINE",
"130 700 LINE",
"130 0 LINE"
);
},
{
closed = 1;
nodes = (
"188 680 LINE",
"197.914 680 LINE SMOOTH",
"207.981 680 OFFCURVE",
"228.001 677.94 OFFCURVE",
"257.974 673.82 CURVE SMOOTH",
"424 651 LINE",
"424 700 LINE",
"188 700 LINE"
);
}
);
};
layerId = "879304B0-C0BD-4EE0-9B7F-878EED11B82D";
paths = (
{
closed = 1;
nodes = (
"198 347 LINE SMOOTH",
"208.733 347 OFFCURVE",
"229.4 346 OFFCURVE",
"260 344 CURVE SMOOTH",
"413 334 LINE",
"413 380 LINE",
"260 370 LINE SMOOTH",
"229.4 368 OFFCURVE",
"208.733 367 OFFCURVE",
"198 367 CURVE SMOOTH",
"188 367 LINE",
"188 347 LINE"
);
},
{
closed = 1;
nodes = (
"198 0 LINE",
"198 700 LINE",
"130 700 LINE",
"130 0 LINE"
);
},
{
closed = 1;
nodes = (
"188 680 LINE",
"197.914 680 LINE SMOOTH",
"207.981 680 OFFCURVE",
"228.001 677.94 OFFCURVE",
"257.974 673.82 CURVE SMOOTH",
"424 651 LINE",
"424 700 LINE",
"188 700 LINE"
);
}
);
userData = {
com.fontlab.metricsRight = "E-15";
};
vertWidth = 0;
width = 489;
}
);
unicode = "0046,0066";
},
{
color = (153,255,154,255);
glyphname = G;
lastChange = "2022-05-26 13:15:24 +0000";
layers = (
{
anchors = (
{
name = bottom;
position = "{472, 0}";
},
{
name = top;
position = "{470, 700}";
}
);
background = {
anchors = (
{
name = bottom;
position = "{471, 0}";
},
{
name = top;
position = "{471, 765}";
}
);
paths = (
{
closed = 1;
nodes = (
"732 84 LINE",
"732 356 LINE",
"664 356 LINE",
"664 59 LINE"
);
},
{
closed = 1;
nodes = (
"649 45 OFFCURVE",
"568 10 OFFCURVE",
"471 10 CURVE SMOOTH",
"283 10 OFFCURVE",
"156 146 OFFCURVE",
"156 350 CURVE SMOOTH",
"156 554 OFFCURVE",
"283 690 OFFCURVE",
"471 690 CURVE SMOOTH",
"555 690 OFFCURVE",
"632 665 OFFCURVE",
"686 619 CURVE",
"692 619 LINE",
"697 675 LINE",
"643 698 OFFCURVE",
"543 714 OFFCURVE",
"471 714 CURVE SMOOTH",
"248 714 OFFCURVE",
"80 557 OFFCURVE",
"80 350 CURVE SMOOTH",
"80 143 OFFCURVE",
"248 -14 OFFCURVE",
"471 -14 CURVE SMOOTH",
"580 -14 OFFCURVE",
"671 23 OFFCURVE",
"732 84 CURVE",
"696 104 LINE"
);
},
{
closed = 1;
nodes = (
"479 356 LINE",
"479 332.089 LINE",
"674 332.089 LINE",
"674 356 LINE"
);
}
);
};
guideLines = (
{
angle = 90;
position = "{20, 0}";
},
{
position = "{0, 678}";
},
{
position = "{0, 629}";
},
{
position = "{0, 678}";
},
{
angle = 90;
position = "{471, 0}";
},
{
angle = 90;
position = "{681, 0}";
}
);
layerId = "879304B0-C0BD-4EE0-9B7F-878EED11B82D";
paths = (
{
closed = 1;
nodes = (
"732 84 LINE",
"732 356 LINE",
"664 356 LINE",
"664 59 LINE"
);
},
{
closed = 1;
nodes = (
"649 45 OFFCURVE",
"568 10 OFFCURVE",
"471 10 CURVE SMOOTH",
"283 10 OFFCURVE",
"156 146 OFFCURVE",
"156 350 CURVE SMOOTH",
"156 554 OFFCURVE",
"283 690 OFFCURVE",
"471 690 CURVE SMOOTH",
"555 690 OFFCURVE",
"632 665 OFFCURVE",
"686 619 CURVE",
"692 619 LINE",
"697 675 LINE",
"643 698 OFFCURVE",
"543 714 OFFCURVE",
"471 714 CURVE SMOOTH",
"248 714 OFFCURVE",
"80 557 OFFCURVE",
"80 350 CURVE SMOOTH",
"80 143 OFFCURVE",
"248 -14 OFFCURVE",
"471 -14 CURVE SMOOTH",
"580 -14 OFFCURVE",
"671 23 OFFCURVE",
"732 84 CURVE",
"696 104 LINE"
);
},
{
closed = 1;
nodes = (
"479 356 LINE",
"479 332.089 LINE",
"674 332.089 LINE",
"674 356 LINE"
);
}
);
userData = {
com.fontlab.metricsLeft = O;
com.fontlab.metricsRight = "H-30";
};
vertWidth = 0;
width = 832;
}
);
leftKerningGroup = O_C_G_Q;
unicode = "0047,0067";
},
{
color = (255,153,253,255);
glyphname = Gbreve;
lastChange = "2022-05-26 13:15:18 +0000";
layers = (
{
background = {
anchors = (
{
name = bottom;
position = "{471, 0}";
},
{
name = top;
position = "{471, 765}";
}
);
paths = (
{
closed = 1;
nodes = (
"732 84 LINE",
"732 356 LINE",
"664 356 LINE",
"664 59 LINE"
);
},
{
closed = 1;
nodes = (
"649 45 OFFCURVE",
"568 10 OFFCURVE",
"471 10 CURVE SMOOTH",
"283 10 OFFCURVE",
"156 146 OFFCURVE",
"156 350 CURVE SMOOTH",
"156 554 OFFCURVE",
"283 690 OFFCURVE",
"471 690 CURVE SMOOTH",
"555 690 OFFCURVE",
"632 665 OFFCURVE",
"686 619 CURVE",
"692 619 LINE",
"697 675 LINE",
"643 698 OFFCURVE",
"543 714 OFFCURVE",
"471 714 CURVE SMOOTH",
"248 714 OFFCURVE",
"80 557 OFFCURVE",
"80 350 CURVE SMOOTH",
"80 143 OFFCURVE",
"248 -14 OFFCURVE",
"471 -14 CURVE SMOOTH",
"580 -14 OFFCURVE",
"671 23 OFFCURVE",
"732 84 CURVE",
"696 104 LINE"
);
},
{
closed = 1;
nodes = (
"479 356 LINE",
"479 332.089 LINE",
"674 332.089 LINE",
"674 356 LINE"
);
},
{
closed = 1;
nodes = (
"535 777 OFFCURVE",
"582 824 OFFCURVE",
"600 906 CURVE",
"583 912 LINE",
"550 855 OFFCURVE",
"521 835 OFFCURVE",
"471 835 CURVE SMOOTH",
"421 835 OFFCURVE",
"392 855 OFFCURVE",
"359 912 CURVE",
"342 906 LINE",
"360 824 OFFCURVE",
"407 777 OFFCURVE",
"471 777 CURVE SMOOTH"
);
}
);
};
components = (
{
name = G;
},
{
name = brevecomb;
transform = "{1, 0, 0, 1, 271, 0}";
}
);
layerId = "879304B0-C0BD-4EE0-9B7F-878EED11B82D";
userData = {
com.fontlab.autolayer = 1;
com.fontlab.recipe = "G+breve";
};
width = 832;
}
);
leftKerningGroup = O_C_G_Q;
unicode = "011E,011F";
},
{
color = (255,153,253,255);
glyphname = Gcaron;
lastChange = "2022-05-26 13:15:18 +0000";
layers = (
{
background = {
anchors = (
{
name = bottom;
position = "{471, 0}";
},
{
name = top;
position = "{471, 765}";
}
);
paths = (
{
closed = 1;
nodes = (
"732 84 LINE",
"732 356 LINE",
"664 356 LINE",
"664 59 LINE"
);
},
{
closed = 1;
nodes = (
"649 45 OFFCURVE",
"568 10 OFFCURVE",
"471 10 CURVE SMOOTH",
"283 10 OFFCURVE",
"156 146 OFFCURVE",
"156 350 CURVE SMOOTH",
"156 554 OFFCURVE",
"283 690 OFFCURVE",
"471 690 CURVE SMOOTH",
"555 690 OFFCURVE",
"632 665 OFFCURVE",
"686 619 CURVE",
"692 619 LINE",
"697 675 LINE",
"643 698 OFFCURVE",
"543 714 OFFCURVE",
"471 714 CURVE SMOOTH",
"248 714 OFFCURVE",
"80 557 OFFCURVE",
"80 350 CURVE SMOOTH",
"80 143 OFFCURVE",
"248 -14 OFFCURVE",
"471 -14 CURVE SMOOTH",
"580 -14 OFFCURVE",
"671 23 OFFCURVE",
"732 84 CURVE",
"696 104 LINE"
);
},
{
closed = 1;
nodes = (
"479 356 LINE",
"479 332.089 LINE",
"674 332.089 LINE",
"674 356 LINE"
);
},
{
closed = 1;
nodes = (
"484 775 LINE",
"605 905 LINE",
"592 917 LINE",
"471 837 LINE",
"350 917 LINE",
"337 905 LINE",
"458 775 LINE"
);
}
);
};
components = (
{
name = G;
},
{
name = caroncomb;
transform = "{1, 0, 0, 1, 266, 0}";
}
);
layerId = "879304B0-C0BD-4EE0-9B7F-878EED11B82D";
userData = {
com.fontlab.autolayer = 1;
com.fontlab.recipe = "G+caron";
};
width = 832;
}
);
leftKerningGroup = O_C_G_Q;
unicode = "01E6,01E7";
},
{
color = (255,153,253,255);
glyphname = Gcircumflex;
lastChange = "2022-05-26 13:15:18 +0000";
layers = (
{
background = {
anchors = (
{
name = bottom;
position = "{471, 0}";
},
{
name = top;
position = "{471, 765}";
}
);
paths = (
{
closed = 1;
nodes = (
"732 84 LINE",
"732 356 LINE",
"664 356 LINE",
"664 59 LINE"
);
},
{
closed = 1;
nodes = (
"649 45 OFFCURVE",
"568 10 OFFCURVE",
"471 10 CURVE SMOOTH",
"283 10 OFFCURVE",
"156 146 OFFCURVE",
"156 350 CURVE SMOOTH",
"156 554 OFFCURVE",
"283 690 OFFCURVE",
"471 690 CURVE SMOOTH",
"555 690 OFFCURVE",
"632 665 OFFCURVE",
"686 619 CURVE",
"692 619 LINE",
"697 675 LINE",
"643 698 OFFCURVE",
"543 714 OFFCURVE",
"471 714 CURVE SMOOTH",
"248 714 OFFCURVE",
"80 557 OFFCURVE",
"80 350 CURVE SMOOTH",
"80 143 OFFCURVE",
"248 -14 OFFCURVE",
"471 -14 CURVE SMOOTH",
"580 -14 OFFCURVE",
"671 23 OFFCURVE",
"732 84 CURVE",
"696 104 LINE"
);
},
{
closed = 1;
nodes = (
"479 356 LINE",
"479 332.089 LINE",
"674 332.089 LINE",
"674 356 LINE"
);
},
{
closed = 1;
nodes = (
"458 905 LINE",
"337 775 LINE",
"350 763 LINE",
"471 843 LINE",
"592 763 LINE",
"605 775 LINE",
"484 905 LINE"
);
}
);
};
components = (
{
name = G;
},
{
name = circumflexcomb;
transform = "{1, 0, 0, 1, 266, 0}";
}
);
layerId = "879304B0-C0BD-4EE0-9B7F-878EED11B82D";
userData = {
com.fontlab.autolayer = 1;
com.fontlab.recipe = "G+circumflex";
};
width = 832;
}
);
leftKerningGroup = O_C_G_Q;
unicode = "011C,011D";
},
{
color = (255,153,253,255);
glyphname = Gcommaaccent;
lastChange = "2022-05-26 13:15:24 +0000";
layers = (
{
background = {
anchors = (
{
name = bottom;
position = "{471, 0}";
},
{
name = top;
position = "{471, 765}";
}
);
paths = (
{
closed = 1;
nodes = (
"732 84 LINE",
"732 356 LINE",
"664 356 LINE",
"664 59 LINE"
);
},
{
closed = 1;
nodes = (
"649 45 OFFCURVE",
"568 10 OFFCURVE",
"471 10 CURVE SMOOTH",
"283 10 OFFCURVE",
"156 146 OFFCURVE",
"156 350 CURVE SMOOTH",
"156 554 OFFCURVE",
"283 690 OFFCURVE",
"471 690 CURVE SMOOTH",
"555 690 OFFCURVE",
"632 665 OFFCURVE",
"686 619 CURVE",
"692 619 LINE",
"697 675 LINE",
"643 698 OFFCURVE",
"543 714 OFFCURVE",
"471 714 CURVE SMOOTH",
"248 714 OFFCURVE",
"80 557 OFFCURVE",
"80 350 CURVE SMOOTH",
"80 143 OFFCURVE",
"248 -14 OFFCURVE",
"471 -14 CURVE SMOOTH",
"580 -14 OFFCURVE",
"671 23 OFFCURVE",
"732 84 CURVE",
"696 104 LINE"
);
},
{
closed = 1;
nodes = (
"479 356 LINE",
"479 332.089 LINE",
"674 332.089 LINE",
"674 356 LINE"
);
},
{
closed = 1;
nodes = (
"423 -73 OFFCURVE",
"443 -54 OFFCURVE",
"471 -54 CURVE SMOOTH",
"502 -54 OFFCURVE",
"520 -79 OFFCURVE",
"520 -124 CURVE SMOOTH",
"520 -174 OFFCURVE",
"498 -213 OFFCURVE",
"440 -256 CURVE",
"429 -242 LINE",
"478 -202 OFFCURVE",
"490 -174 OFFCURVE {name = hr01;}",
"490 -131 CURVE",
"484 -139 OFFCURVE",
"475 -143 OFFCURVE",
"464 -143 CURVE SMOOTH",
"439 -143 OFFCURVE",
"423 -124 OFFCURVE {name = hr02;}",
"423 -100 CURVE SMOOTH"
);
}
);
};
components = (
{
name = G;
},
{
name = commaaccentcomb;
transform = "{1, 0, 0, 1, 352, 0}";
}
);
layerId = "879304B0-C0BD-4EE0-9B7F-878EED11B82D";
userData = {
com.fontlab.autolayer = 1;
com.fontlab.recipe = "G+commaaccentcomb";
};
width = 832;
}
);
leftKerningGroup = O_C_G_Q;
unicode = "0122,0123";
},
{
color = (255,153,253,255);
glyphname = Gdotaccent;
lastChange = "2022-05-26 13:15:18 +0000";
layers = (
{
background = {
anchors = (
{
name = bottom;
position = "{471, 0}";
},
{
name = top;
position = "{471, 765}";
}
);
paths = (
{
closed = 1;
nodes = (
"732 84 LINE",
"732 356 LINE",
"664 356 LINE",
"664 59 LINE"
);
},
{
closed = 1;
nodes = (
"649 45 OFFCURVE",
"568 10 OFFCURVE",
"471 10 CURVE SMOOTH",
"283 10 OFFCURVE",
"156 146 OFFCURVE",
"156 350 CURVE SMOOTH",
"156 554 OFFCURVE",
"283 690 OFFCURVE",
"471 690 CURVE SMOOTH",
"555 690 OFFCURVE",
"632 665 OFFCURVE",
"686 619 CURVE",
"692 619 LINE",
"697 675 LINE",
"643 698 OFFCURVE",
"543 714 OFFCURVE",
"471 714 CURVE SMOOTH",
"248 714 OFFCURVE",
"80 557 OFFCURVE",
"80 350 CURVE SMOOTH",
"80 143 OFFCURVE",
"248 -14 OFFCURVE",
"471 -14 CURVE SMOOTH",
"580 -14 OFFCURVE",
"671 23 OFFCURVE",
"732 84 CURVE",
"696 104 LINE"
);
},
{
closed = 1;
nodes = (
"479 356 LINE",
"479 332.089 LINE",
"674 332.089 LINE",
"674 356 LINE"
);
},
{
closed = 1;
nodes = (
"423 817 OFFCURVE",
"443 797 OFFCURVE",
"471 797 CURVE SMOOTH",
"499 797 OFFCURVE",
"519 817 OFFCURVE",
"519 845 CURVE SMOOTH",
"519 873 OFFCURVE",
"499 893 OFFCURVE",
"471 893 CURVE SMOOTH",
"443 893 OFFCURVE",
"423 873 OFFCURVE",
"423 845 CURVE SMOOTH"
);
}
);
};
components = (
{
name = G;
},
{
name = dotaccentcomb;
transform = "{1, 0, 0, 1, 352, 0}";
}
);
layerId = "879304B0-C0BD-4EE0-9B7F-878EED11B82D";
userData = {
com.fontlab.autolayer = 1;
com.fontlab.recipe = "G+dotaccent";
};
width = 832;
}
);
leftKerningGroup = O_C_G_Q;
unicode = "0120,0121";
},
{
color = (153,255,154,255);
glyphname = H;
lastChange = "2022-05-26 13:06:07 +0000";
layers = (
{
anchors = (
{
name = bottom;
position = "{408, 0}";
},
{
name = center;
position = "{408, 350}";
},
{
name = top;
position = "{408, 700}";
},
{
name = topleft;
position = "{20, 700}";
}
);
background = {
anchors = (
{
name = top;
position = "{408, 765}";
}
);
paths = (
{
closed = 1;
nodes = (
"198 0 LINE",
"198 700 LINE",
"130 700 LINE",
"130 0 LINE"
);
},
{
closed = 1;
nodes = (
"686 0 LINE",
"686 700 LINE",
"618 700 LINE",
"618 0 LINE"
);
},
{
closed = 1;
nodes = (
"658 352 LINE",
"658 376 LINE",
"158 376 LINE",
"158 352 LINE"
);
}
);
};
guideLines = (
{
angle = 90;
position = "{408, 0}";
}
);
layerId = "879304B0-C0BD-4EE0-9B7F-878EED11B82D";
paths = (
{
closed = 1;
nodes = (
"198 0 LINE",
"198 700 LINE",
"130 700 LINE",
"130 0 LINE"
);
},
{
closed = 1;
nodes = (
"686 0 LINE",
"686 700 LINE",
"618 700 LINE",
"618 0 LINE"
);
},
{
closed = 1;
nodes = (
"658 352 LINE",
"658 376 LINE",
"158 376 LINE",
"158 352 LINE"
);
}
);
vertWidth = 0;
width = 816;
}
);
unicode = "0048,0068";
},
{
color = (255,153,253,255);
glyphname = Hbar;
lastChange = "2022-05-26 13:05:44 +0000";
layers = (
{
background = {
anchors = (
{
name = top;
position = "{408, 765}";
}
);
paths = (
{
closed = 1;
nodes = (
"778 552 LINE",
"778 576 LINE",
"38 576 LINE",
"38 552 LINE"
);
},
{
closed = 1;
nodes = (
"198 0 LINE",
"198 700 LINE",
"130 700 LINE",
"130 0 LINE"
);
},
{
closed = 1;
nodes = (
"686 0 LINE",
"686 700 LINE",
"618 700 LINE",
"618 0 LINE"
);
},
{
closed = 1;
nodes = (
"658 352 LINE",
"658 376 LINE",
"158 376 LINE",
"158 352 LINE"
);
}
);
};
components = (
{
name = H;
}
);
layerId = "879304B0-C0BD-4EE0-9B7F-878EED11B82D";
paths = (
{
closed = 1;
nodes = (
"778 552 LINE",
"778 576 LINE",
"38 576 LINE",
"38 552 LINE"
);
}
);
userData = {
com.fontlab.metricsLeft = "H-92";
com.fontlab.metricsRight = "H-92";
};
vertWidth = 0;
width = 816;
}
);
unicode = "0126,0127";
},
{
color = (255,153,253,255);
glyphname = Hcircumflex;
lastChange = "2022-05-26 13:11:50 +0000";
layers = (
{
background = {
anchors = (
{
name = top;
position = "{408, 765}";
}
);
paths = (
{
closed = 1;
nodes = (
"198 0 LINE",
"198 700 LINE",
"130 700 LINE",
"130 0 LINE"
);
},
{
closed = 1;
nodes = (
"686 0 LINE",
"686 700 LINE",
"618 700 LINE",
"618 0 LINE"
);
},
{
closed = 1;
nodes = (
"658 352 LINE",
"658 376 LINE",
"158 376 LINE",
"158 352 LINE"
);
},
{
closed = 1;
nodes = (
"395 905 LINE",
"274 775 LINE",
"287 763 LINE",
"408 843 LINE",
"529 763 LINE",
"542 775 LINE",
"421 905 LINE"
);
}
);
};
components = (
{
name = H;
},
{
name = circumflexcomb;
transform = "{1, 0, 0, 1, 204, 0}";
}
);
layerId = "879304B0-C0BD-4EE0-9B7F-878EED11B82D";
userData = {
com.fontlab.autolayer = 1;
com.fontlab.recipe = "H+circumflex";
};
width = 816;
}
);
unicode = "0124,0125";
},
{
color = (153,255,154,255);
glyphname = I;
lastChange = "2022-05-26 13:19:34 +0000";
layers = (
{
anchors = (
{
name = bottom;
position = "{164, 0}";
},
{
name = ogonek;
position = "{198, 0}";
},
{
name = top;
position = "{164, 700}";
},
{
name = topleft;
position = "{20, 700}";
}
);
background = {
anchors = (
{
name = bottom;
position = "{198, 0}";
},
{
name = top;
position = "{164, 765}";
}
);
paths = (
{
closed = 1;
nodes = (
"198 0 LINE",
"198 700 LINE",
"130 700 LINE",
"130 0 LINE"
);
}
);
};
guideLines = (
{
angle = 90;
position = "{164, 0}";
}
);
layerId = "879304B0-C0BD-4EE0-9B7F-878EED11B82D";
paths = (
{
closed = 1;
nodes = (
"198 0 LINE",
"198 700 LINE",
"130 700 LINE",
"130 0 LINE"
);
}
);
userData = {
com.fontlab.metricsLeft = H;
com.fontlab.metricsRight = H;
};
vertWidth = 0;
width = 328;
}
);
unicode = "0049,0131";
},
{
color = (255,153,253,255);
glyphname = IJ;
lastChange = "2022-05-26 13:09:29 +0000";
layers = (
{
background = {
anchors = (
{
name = bottom;
position = "{198, 0}";
},
{
name = top;
position = "{492, 765}";
}
);
paths = (
{
closed = 1;
nodes = (
"198 0 LINE",
"198 700 LINE",
"130 700 LINE",
"130 0 LINE"
);
},
{
closed = 1;
nodes = (
"458 -106 OFFCURVE",
"434 -187 OFFCURVE",
"381 -225 CURVE",
"384 -230 LINE",
"480 -187 OFFCURVE",
"526 -100 OFFCURVE",
"526 68 CURVE SMOOTH",
"526 700 LINE",
"458 700 LINE",
"458 62 LINE SMOOTH"
);
}
);
};
components = (
{
name = I;
},
{
name = J;
transform = "{1, 0, 0, 1, 328, 0}";
}
);
layerId = "879304B0-C0BD-4EE0-9B7F-878EED11B82D";
userData = {
com.fontlab.autolayer = 1;
com.fontlab.metricsLeft = I;
com.fontlab.metricsRight = J;
com.fontlab.recipe = I_J;
};
width = 656;
}
);
unicode = "0132,0133";
},
{
color = (255,153,253,255);
glyphname = IJ_acute;
lastChange = "2022-05-26 13:16:38 +0000";
layers = (
{
background = {
anchors = (
{
name = bottom;
position = "{198, 0}";
},
{
name = top;
position = "{492, 765}";
}
);
paths = (
{
closed = 1;
nodes = (
"198 0 LINE",
"198 700 LINE",
"130 700 LINE",
"130 0 LINE"
);
},
{
closed = 1;
nodes = (
"118 763 LINE",
"292 891 LINE",
"292 897 LINE",
"202 897 LINE",
"105 775 LINE"
);
},
{
closed = 1;
nodes = (
"458 -106 OFFCURVE",
"434 -187 OFFCURVE",
"381 -225 CURVE",
"384 -230 LINE",
"480 -187 OFFCURVE",
"526 -100 OFFCURVE",
"526 68 CURVE SMOOTH",
"526 700 LINE",
"458 700 LINE",
"458 62 LINE SMOOTH"
);
},
{
closed = 1;
nodes = (
"446 763 LINE",
"620 891 LINE",
"620 897 LINE",
"530 897 LINE",
"433 775 LINE"
);
}
);
};
components = (
{
name = Iacute;
},
{
name = J;
transform = "{1, 0, 0, 1, 328, 0}";
},
{
name = acutecomb;
transform = "{1, 0, 0, 1, 401, 0}";
}
);
layerId = "879304B0-C0BD-4EE0-9B7F-878EED11B82D";
userData = {
com.fontlab.autolayer = 1;
com.fontlab.metricsLeft = I;
com.fontlab.metricsRight = J;
com.fontlab.recipe = "I+acute_J+acute";
};
width = 656;
}
);
},
{
color = (255,153,253,255);
glyphname = Iacute;
lastChange = "2022-05-26 13:10:21 +0000";
layers = (
{
background = {
anchors = (
{
name = bottom;
position = "{198, 0}";
},
{
name = top;
position = "{164, 765}";
}
);
paths = (
{
closed = 1;
nodes = (
"198 0 LINE",
"198 700 LINE",
"130 700 LINE",
"130 0 LINE"
);
},
{
closed = 1;
nodes = (
"118 763 LINE",
"292 891 LINE",
"292 897 LINE",
"202 897 LINE",
"105 775 LINE"
);
}
);
};
components = (
{
name = I;
},
{
name = acutecomb;
transform = "{1, 0, 0, 1, 73, 0}";
}
);
layerId = "879304B0-C0BD-4EE0-9B7F-878EED11B82D";
userData = {
com.fontlab.autolayer = 1;
};
width = 328;
}
);
unicode = "00CD,00ED";
},
{
color = (255,153,253,255);
glyphname = Ibreve;
lastChange = "2022-05-26 13:10:47 +0000";
layers = (
{
background = {
anchors = (
{
name = bottom;
position = "{198, 0}";
},
{
name = top;
position = "{164, 765}";
}
);
paths = (
{
closed = 1;
nodes = (
"198 0 LINE",
"198 700 LINE",
"130 700 LINE",
"130 0 LINE"
);
},
{
closed = 1;
nodes = (
"228 777 OFFCURVE",
"275 824 OFFCURVE",
"293 906 CURVE",
"276 912 LINE",
"243 855 OFFCURVE",
"214 835 OFFCURVE",
"164 835 CURVE SMOOTH",
"114 835 OFFCURVE",
"85 855 OFFCURVE",
"52 912 CURVE",
"35 906 LINE",
"53 824 OFFCURVE",
"100 777 OFFCURVE",
"164 777 CURVE SMOOTH"
);
}
);
};
components = (
{
name = I;
},
{
name = brevecomb;
transform = "{1, 0, 0, 1, -35, 0}";
}
);
layerId = "879304B0-C0BD-4EE0-9B7F-878EED11B82D";
userData = {
com.fontlab.autolayer = 1;
com.fontlab.recipe = "I+breve";
};
width = 328;
}
);
unicode = "012C,012D";
},
{
color = (255,153,253,255);
glyphname = Icircumflex;
lastChange = "2022-05-26 13:11:50 +0000";
layers = (
{
background = {
anchors = (
{
name = bottom;
position = "{198, 0}";
},
{
name = top;
position = "{164, 765}";
}
);
paths = (
{
closed = 1;
nodes = (
"198 0 LINE",
"198 700 LINE",
"130 700 LINE",
"130 0 LINE"
);
},
{
closed = 1;
nodes = (
"151 905 LINE",
"30 775 LINE",
"43 763 LINE",
"164 843 LINE",
"285 763 LINE",
"298 775 LINE",
"177 905 LINE"
);
}
);
};
components = (
{
name = I;
},
{
name = circumflexcomb;
transform = "{1, 0, 0, 1, -40, 0}";
}
);
layerId = "879304B0-C0BD-4EE0-9B7F-878EED11B82D";
userData = {
com.fontlab.autolayer = 1;
com.fontlab.recipe = "I+circumflex";
};
width = 328;
}
);
unicode = "00CE,00EE";
},
{
color = (255,153,253,255);
glyphname = Idieresis;
lastChange = "2022-05-26 13:11:58 +0000";
layers = (
{
background = {
anchors = (
{
name = bottom;
position = "{198, 0}";
},
{
name = top;
position = "{164, 765}";
}
);
paths = (
{
closed = 1;
nodes = (
"198 0 LINE",
"198 700 LINE",
"130 700 LINE",
"130 0 LINE"
);
},
{
closed = 1;
nodes = (
"222 819 OFFCURVE",
"241 800 OFFCURVE",
"267 800 CURVE SMOOTH",
"293 800 OFFCURVE",
"312 819 OFFCURVE",
"312 845 CURVE SMOOTH",
"312 871 OFFCURVE",
"293 890 OFFCURVE",
"267 890 CURVE SMOOTH",
"241 890 OFFCURVE",
"222 871 OFFCURVE",
"222 845 CURVE SMOOTH"
);
},
{
closed = 1;
nodes = (
"16 819 OFFCURVE",
"35 800 OFFCURVE",
"61 800 CURVE SMOOTH",
"87 800 OFFCURVE",
"106 819 OFFCURVE",
"106 845 CURVE SMOOTH",
"106 871 OFFCURVE",
"87 890 OFFCURVE",
"61 890 CURVE SMOOTH",
"35 890 OFFCURVE",
"16 871 OFFCURVE",
"16 845 CURVE SMOOTH"
);
}
);
};
components = (
{
name = I;
},
{
name = dieresiscomb;
transform = "{1, 0, 0, 1, -54, 0}";
}
);
layerId = "879304B0-C0BD-4EE0-9B7F-878EED11B82D";
userData = {
com.fontlab.autolayer = 1;
com.fontlab.recipe = "I+dieresis";
};
width = 328;
}
);
unicode = "00CF,00EF";
},
{
color = (255,153,253,255);
glyphname = Idotaccent;
lastChange = "2022-05-26 13:14:18 +0000";
layers = (
{
background = {
anchors = (
{
name = bottom;
position = "{198, 0}";
},
{
name = top;
position = "{164, 765}";
}
);
paths = (
{
closed = 1;
nodes = (
"198 0 LINE",
"198 700 LINE",
"130 700 LINE",
"130 0 LINE"
);
},
{
closed = 1;
nodes = (
"116 817 OFFCURVE",
"136 797 OFFCURVE",
"164 797 CURVE SMOOTH",
"192 797 OFFCURVE",
"212 817 OFFCURVE",
"212 845 CURVE SMOOTH",
"212 873 OFFCURVE",
"192 893 OFFCURVE",
"164 893 CURVE SMOOTH",
"136 893 OFFCURVE",
"116 873 OFFCURVE",
"116 845 CURVE SMOOTH"
);
}
);
};
components = (
{
name = I;
},
{
name = dotaccentcomb;
transform = "{1, 0, 0, 1, 46, 0}";
}
);
layerId = "879304B0-C0BD-4EE0-9B7F-878EED11B82D";
userData = {
com.fontlab.autolayer = 1;
};
width = 328;
}
);
unicode = 0130;
},
{
color = (255,153,253,255);
glyphname = Igrave;
lastChange = "2022-05-26 13:12:46 +0000";
layers = (
{
background = {
anchors = (
{
name = bottom;
position = "{198, 0}";
},
{
name = top;
position = "{164, 765}";
}
);
paths = (
{
closed = 1;
nodes = (
"198 0 LINE",
"198 700 LINE",
"130 700 LINE",
"130 0 LINE"
);
},
{
closed = 1;
nodes = (
"126 897 LINE",
"36 897 LINE",
"36 891 LINE",
"210 763 LINE",
"223 775 LINE"
);
}
);
};
components = (
{
name = I;
},
{
name = gravecomb;
transform = "{1, 0, 0, 1, 16, 0}";
}
);
layerId = "879304B0-C0BD-4EE0-9B7F-878EED11B82D";
userData = {
com.fontlab.autolayer = 1;
};
width = 328;
}
);
unicode = "00CC,00EC";
},
{
color = (255,153,253,255);
glyphname = Imacron;
lastChange = "2022-05-26 13:12:56 +0000";
layers = (
{
background = {
anchors = (
{
name = bottom;
position = "{198, 0}";
},
{
name = top;
position = "{164, 765}";
}
);
paths = (
{
closed = 1;
nodes = (
"198 0 LINE",
"198 700 LINE",
"130 700 LINE",
"130 0 LINE"
);
},
{
closed = 1;
nodes = (
"298 818 LINE",
"298 858 LINE",
"30 858 LINE",
"30 818 LINE"
);
}
);
};
components = (
{
name = I;
},
{
name = macroncomb;
transform = "{1, 0, 0, 1, -20, 0}";
}
);
layerId = "879304B0-C0BD-4EE0-9B7F-878EED11B82D";
userData = {
com.fontlab.autolayer = 1;
};
width = 328;
}
);
unicode = "012A,012B";
},
{
color = (255,153,253,255);
glyphname = Iogonek;
lastChange = "2022-05-26 13:19:34 +0000";
layers = (
{
background = {
anchors = (
{
name = bottom;
position = "{198, 0}";
},
{
name = top;
position = "{164, 765}";
}
);
paths = (
{
closed = 1;
nodes = (
"198 0 LINE",
"198 700 LINE",
"130 700 LINE",
"130 0 LINE"
);
},
{
closed = 1;
nodes = (
"235 -164 LINE",
"221 -174 OFFCURVE",
"204 -180 OFFCURVE",
"190 -180 CURVE SMOOTH",
"161 -180 OFFCURVE",
"143 -156 OFFCURVE",
"143 -118 CURVE SMOOTH",
"143 -81 OFFCURVE",
"160 -44 OFFCURVE",
"198 0 CURVE",
"196 10 LINE",
"187 10 LINE",
"114 -42 OFFCURVE",
"83 -85 OFFCURVE",
"83 -135 CURVE SMOOTH",
"83 -186 OFFCURVE",
"115 -220 OFFCURVE",
"164 -220 CURVE SMOOTH",
"195 -220 OFFCURVE",
"220 -207 OFFCURVE",
"246 -178 CURVE"
);
}
);
};
components = (
{
name = I;
},
{
name = ogonekcomb;
transform = "{1, 0, 0, 1, 13, 0}";
}
);
layerId = "879304B0-C0BD-4EE0-9B7F-878EED11B82D";
userData = {
com.fontlab.autolayer = 1;
com.fontlab.recipe = "I+ogonek";
};
width = 328;
}
);
unicode = "012E,012F";
},
{
color = (255,153,253,255);
glyphname = Itilde;
lastChange = "2022-05-26 13:13:44 +0000";
layers = (
{
background = {
anchors = (
{
name = bottom;
position = "{198, 0}";
},
{
name = top;
position = "{164, 765}";
}
);
paths = (
{
closed = 1;
nodes = (
"198 0 LINE",
"198 700 LINE",
"130 700 LINE",
"130 0 LINE"
);
},
{
closed = 1;
nodes = (
"152 887 OFFCURVE",
"130 900 OFFCURVE",
"102 900 CURVE SMOOTH",
"65 900 OFFCURVE",
"39 877 OFFCURVE",
"4 808 CURVE",
"19 798 LINE",
"47 836 OFFCURVE",
"67 846 OFFCURVE",
"88 846 CURVE SMOOTH",
"112 846 OFFCURVE",
"134 832 OFFCURVE",
"154 819 CURVE SMOOTH",
"176 805 OFFCURVE",
"198 792 OFFCURVE {name = hr01;}",
"226 792 CURVE SMOOTH",
"263 792 OFFCURVE",
"289 815 OFFCURVE",
"324 884 CURVE",
"309 894 LINE",
"281 856 OFFCURVE",
"261 846 OFFCURVE",
"240 846 CURVE SMOOTH",
"216 846 OFFCURVE",
"194 860 OFFCURVE",
"174 873 CURVE SMOOTH"
);
}
);
};
components = (
{
name = I;
},
{
name = tildecomb;
transform = "{1, 0, 0, 1, -39, 0}";
}
);
layerId = "879304B0-C0BD-4EE0-9B7F-878EED11B82D";
userData = {
com.fontlab.autolayer = 1;
};
width = 328;
}
);
unicode = "0128,0129";
},
{
color = (153,255,154,255);
glyphname = J;
lastChange = "2022-05-26 13:06:07 +0000";
layers = (
{
anchors = (
{
name = bottom;
position = "{164, 0}";
},
{
name = top;
position = "{164, 700}";
}
);
background = {
anchors = (
{
name = top;
position = "{164, 765}";
}
);
guideLines = (
{
angle = 90;
position = "{154, 0}";
}
);
paths = (
{
closed = 1;
nodes = (
"130 -106 OFFCURVE",
"106.366 -187.211 OFFCURVE",
"53.107 -225.112 CURVE",
"55.851 -229.88 LINE",
"151.864 -187.39 OFFCURVE",
"198 -100 OFFCURVE",
"198 68 CURVE SMOOTH",
"198 700 LINE",
"130 700 LINE",
"130 62 LINE SMOOTH"
);
}
);
};
guideLines = (
{
angle = 90;
position = "{168, 0}";
},
{
position = "{0, -140}";
}
);
layerId = "879304B0-C0BD-4EE0-9B7F-878EED11B82D";
paths = (
{
closed = 1;
nodes = (
"130 -106 OFFCURVE",
"106.366 -187.211 OFFCURVE",
"53.107 -225.112 CURVE",
"55.851 -229.88 LINE",
"151.864 -187.39 OFFCURVE",
"198 -100 OFFCURVE",
"198 68 CURVE SMOOTH",
"198 700 LINE",
"130 700 LINE",
"130 62 LINE SMOOTH"
);
}
);
vertWidth = 0;
width = 328;
}
);
unicode = "004A,006A";
},
{
color = (255,153,253,255);
glyphname = Jcircumflex;
lastChange = "2022-05-26 13:11:50 +0000";
layers = (
{
background = {
anchors = (
{
name = top;
position = "{164, 765}";
}
);
paths = (
{
closed = 1;
nodes = (
"130 -106 OFFCURVE",
"106.366 -187.211 OFFCURVE",
"53.107 -225.112 CURVE",
"55.851 -229.88 LINE",
"151.864 -187.39 OFFCURVE",
"198 -100 OFFCURVE",
"198 68 CURVE SMOOTH",
"198 700 LINE",
"130 700 LINE",
"130 62 LINE SMOOTH"
);
},
{
closed = 1;
nodes = (
"151 905 LINE",
"30 775 LINE",
"43 763 LINE",
"164 843 LINE",
"285 763 LINE",
"298 775 LINE",
"177 905 LINE"
);
}
);
};
components = (
{
name = J;
},
{
name = circumflexcomb;
transform = "{1, 0, 0, 1, -40, 0}";
}
);
layerId = "879304B0-C0BD-4EE0-9B7F-878EED11B82D";
userData = {
com.fontlab.autolayer = 1;
com.fontlab.recipe = "J+circumflex";
};
width = 328;
}
);
unicode = "0134,0135";
},
{
color = (153,255,154,255);
glyphname = K;
lastChange = "2022-05-26 13:18:48 +0000";
layers = (
{
anchors = (
{
name = bottom;
position = "{372, 0}";
},
{
name = top;
position = "{336, 700}";
}
);
background = {
anchors = (
{
name = bottom;
position = "{370, 0}";
}
);
paths = (
{
closed = 1;
nodes = (
"652 0 LINE",
"295 387 LINE",
"624 700 LINE",
"538 700 LINE",
"234 359 LINE",
"562 0 LINE"
);
},
{
closed = 1;
nodes = (
"198 0 LINE",
"198 700 LINE",
"130 700 LINE",
"130 0 LINE"
);
}
);
};
guideLines = (
{
position = "{0, 350}";
},
{
angle = 90;
position = "{656, 0}";
}
);
layerId = "879304B0-C0BD-4EE0-9B7F-878EED11B82D";
paths = (
{
closed = 1;
nodes = (
"652 0 LINE",
"295 387 LINE",
"624 700 LINE",
"538 700 LINE",
"234 359 LINE",
"562 0 LINE"
);
},
{
closed = 1;
nodes = (
"198 0 LINE",
"198 700 LINE",
"130 700 LINE",
"130 0 LINE"
);
}
);
vertWidth = 0;
width = 672;
}
);
rightKerningGroup = K_gr;
unicode = "004B,006B";
},
{
color = (255,153,253,255);
glyphname = Kcommaaccent;
lastChange = "2022-05-26 13:18:48 +0000";
layers = (
{
background = {
anchors = (
{
name = bottom;
position = "{370, 0}";
}
);
paths = (
{
closed = 1;
nodes = (
"652 0 LINE",
"295 387 LINE",
"624 700 LINE",
"538 700 LINE",
"234 359 LINE",
"562 0 LINE"
);
},
{
closed = 1;
nodes = (
"198 0 LINE",
"198 700 LINE",
"130 700 LINE",
"130 0 LINE"
);
},
{
closed = 1;
nodes = (
"322 -73 OFFCURVE",
"342 -54 OFFCURVE",
"370 -54 CURVE SMOOTH",
"401 -54 OFFCURVE",
"419 -79 OFFCURVE",
"419 -124 CURVE SMOOTH",
"419 -174 OFFCURVE",
"397 -213 OFFCURVE",
"339 -256 CURVE",
"328 -242 LINE",
"377 -202 OFFCURVE",
"389 -174 OFFCURVE {name = hr01;}",
"389 -131 CURVE",
"383 -139 OFFCURVE",
"374 -143 OFFCURVE",
"363 -143 CURVE SMOOTH",
"338 -143 OFFCURVE",
"322 -124 OFFCURVE {name = hr02;}",
"322 -100 CURVE SMOOTH"
);
}
);
};
components = (
{
name = K;
},
{
name = commaaccentcomb;
transform = "{1, 0, 0, 1, 252, 0}";
}
);
layerId = "879304B0-C0BD-4EE0-9B7F-878EED11B82D";
userData = {
com.fontlab.autolayer = 1;
};
width = 672;
}
);
rightKerningGroup = K_gr;
unicode = "0136,0137";
},
{
color = (153,255,154,255);
glyphname = L;
lastChange = "2022-05-26 13:33:25 +0000";
layers = (
{
anchors = (
{
name = bottom;
position = "{280, 0}";
},
{
name = center;
position = "{231, 350}";
},
{
name = top;
position = "{166, 700}";
},
{
name = topright;
position = "{441, 700}";
}
);
background = {
anchors = (
{
name = bottom;
position = "{277, -14}";
},
{
name = right;
position = "{320, 350}";
},
{
name = top;
position = "{164, 765}";
}
);
paths = (
{
closed = 1;
nodes = (
"198 0 LINE",
"198 700 LINE",
"130 700 LINE",
"130 0 LINE"
);
},
{
closed = 1;
nodes = (
"130 0 LINE",
"198 0 LINE",
"198 700 LINE",
"130 700 LINE"
);
},
{
closed = 1;
nodes = (
"424 0 LINE",
"424 51 LINE",
"257.974 26.18 LINE SMOOTH",
"230.416 22.06 OFFCURVE",
"210.396 20 OFFCURVE",
"197.914 20 CURVE SMOOTH",
"188 20 LINE",
"188 0 LINE"
);
}
);
};
guideLines = (
{
angle = 90;
position = "{424, 0}";
},
{
angle = 90;
position = "{164, 0}";
},
{
position = "{0, 350}";
}
);
layerId = "879304B0-C0BD-4EE0-9B7F-878EED11B82D";
paths = (
{
closed = 1;
nodes = (
"198 0 LINE",
"198 700 LINE",
"130 700 LINE",
"130 0 LINE"
);
},
{
closed = 1;
nodes = (
"130 0 LINE",
"198 0 LINE",
"198 700 LINE",
"130 700 LINE"
);
},
{
closed = 1;
nodes = (
"424 0 LINE",
"424 51 LINE",
"257.974 26.18 LINE SMOOTH",
"230.416 22.06 OFFCURVE",
"210.396 20 OFFCURVE",
"197.914 20 CURVE SMOOTH",
"188 20 LINE",
"188 0 LINE"
);
}
);
userData = {
com.fontlab.metricsLeft = H;
com.fontlab.metricsRight = "T+5";
};
vertWidth = 0;
width = 461;
}
);
rightKerningGroup = L_gr;
unicode = "004C,006C";
},
{
color = (255,153,253,255);
glyphname = Lacute;
lastChange = "2022-05-26 13:18:34 +0000";
layers = (
{
background = {
anchors = (
{
name = bottom;
position = "{277, -14}";
},
{
name = right;
position = "{320, 350}";
},
{
name = top;
position = "{164, 765}";
}
);
paths = (
{
closed = 1;
nodes = (
"198 0 LINE",
"198 700 LINE",
"130 700 LINE",
"130 0 LINE"
);
},
{
closed = 1;
nodes = (
"130 0 LINE",
"198 0 LINE",
"198 700 LINE",
"130 700 LINE"
);
},
{
closed = 1;
nodes = (
"424 0 LINE",
"424 51 LINE",
"257.974 26.18 LINE SMOOTH",
"230.416 22.06 OFFCURVE",
"210.396 20 OFFCURVE",
"197.914 20 CURVE SMOOTH",
"188 20 LINE",
"188 0 LINE"
);
},
{
closed = 1;
nodes = (
"118 763 LINE",
"292 891 LINE",
"292 897 LINE",
"202 897 LINE",
"105 775 LINE"
);
}
);
};
components = (
{
name = L;
},
{
name = acutecomb;
transform = "{1, 0, 0, 1, 75, 0}";
}
);
layerId = "879304B0-C0BD-4EE0-9B7F-878EED11B82D";
userData = {
com.fontlab.autolayer = 1;
com.fontlab.recipe = "L+acute";
};
width = 461;
}
);
rightKerningGroup = L_gr;
unicode = "0139,013A";
},
{
color = (255,153,253,255);
glyphname = Lcaron;
lastChange = "2022-06-23 08:25:00 +0000";
layers = (
{
background = {
anchors = (
{
name = bottom;
position = "{277, -14}";
},
{
name = right;
position = "{320, 350}";
},
{
name = top;
position = "{164, 765}";
}
);
paths = (
{
closed = 1;
nodes = (
"198 0 LINE",
"198 700 LINE",
"130 700 LINE",
"130 0 LINE"
);
},
{
closed = 1;
nodes = (
"130 0 LINE",
"198 0 LINE",
"198 700 LINE",
"130 700 LINE"
);
},
{
closed = 1;
nodes = (
"424 0 LINE",
"424 51 LINE",
"257.974 26.18 LINE SMOOTH",
"230.416 22.06 OFFCURVE",
"210.396 20 OFFCURVE",
"197.914 20 CURVE SMOOTH",
"188 20 LINE",
"188 0 LINE"
);
},
{
closed = 1;
nodes = (
"320 757 OFFCURVE",
"335 770 OFFCURVE",
"356 770 CURVE SMOOTH",
"384 770 OFFCURVE",
"400 750 OFFCURVE",
"400 716 CURVE SMOOTH",
"400 674 OFFCURVE",
"376 620 OFFCURVE",
"336 575 CURVE",
"322 586 LINE",
"337 606 OFFCURVE",
"345 632 OFFCURVE {name = hr01;}",
"345 659 CURVE SMOOTH",
"345 680 OFFCURVE",
"340 694 OFFCURVE",
"329 712 CURVE SMOOTH",
"324 720 OFFCURVE",
"320 727 OFFCURVE {name = hr02;}",
"320 737 CURVE SMOOTH"
);
}
);
};
components = (
{
name = L;
},
{
name = caroncomb.alt;
transform = "{1, 0, 0, 1, 247, 59}";
}
);
layerId = "879304B0-C0BD-4EE0-9B7F-878EED11B82D";
userData = {
com.fontlab.autolayer = 1;
com.fontlab.recipe = "L+caron.salt";
};
width = 461;
}
);
rightKerningGroup = L_gr;
unicode = "013D,013E";
},
{
color = (255,153,253,255);
glyphname = Lcommaaccent;
lastChange = "2022-05-26 13:18:43 +0000";
layers = (
{
background = {
anchors = (
{
name = bottom;
position = "{277, -14}";
},
{
name = right;
position = "{320, 350}";
},
{
name = top;
position = "{164, 765}";
}
);
paths = (
{
closed = 1;
nodes = (
"198 0 LINE",
"198 700 LINE",
"130 700 LINE",
"130 0 LINE"
);
},
{
closed = 1;
nodes = (
"130 0 LINE",
"198 0 LINE",
"198 700 LINE",
"130 700 LINE"
);
},
{
closed = 1;
nodes = (
"424 0 LINE",
"424 51 LINE",
"257.974 26.18 LINE SMOOTH",
"230.416 22.06 OFFCURVE",
"210.396 20 OFFCURVE",
"197.914 20 CURVE SMOOTH",
"188 20 LINE",
"188 0 LINE"
);
},
{
closed = 1;
nodes = (
"229 -87 OFFCURVE",
"249 -68 OFFCURVE",
"277 -68 CURVE SMOOTH",
"308 -68 OFFCURVE",
"326 -93 OFFCURVE",
"326 -138 CURVE SMOOTH",
"326 -188 OFFCURVE",
"304 -227 OFFCURVE",
"246 -270 CURVE",
"235 -256 LINE",
"284 -216 OFFCURVE",
"296 -188 OFFCURVE {name = hr01;}",
"296 -145 CURVE",
"290 -153 OFFCURVE",
"281 -157 OFFCURVE",
"270 -157 CURVE SMOOTH",
"245 -157 OFFCURVE",
"229 -138 OFFCURVE {name = hr02;}",
"229 -114 CURVE SMOOTH"
);
}
);
};
components = (
{
name = L;
},
{
name = commaaccentcomb;
transform = "{1, 0, 0, 1, 160, 0}";
}
);
layerId = "879304B0-C0BD-4EE0-9B7F-878EED11B82D";
userData = {
com.fontlab.autolayer = 1;
com.fontlab.recipe = "L+commaaccentcomb";
};
width = 461;
}
);
rightKerningGroup = L_gr;
unicode = "013B,013C";
},
{
color = (255,153,253,255);
glyphname = Ldot;
lastChange = "2022-05-26 13:17:59 +0000";
layers = (
{
background = {
anchors = (
{
name = bottom;
position = "{277, -14}";
},
{
name = right;
position = "{320, 350}";
},
{
name = top;
position = "{164, 765}";
}
);
paths = (
{
closed = 1;
nodes = (
"198 0 LINE",
"198 700 LINE",
"130 700 LINE",
"130 0 LINE"
);
},
{
closed = 1;
nodes = (
"130 0 LINE",
"198 0 LINE",
"198 700 LINE",
"130 700 LINE"
);
},
{
closed = 1;
nodes = (
"424 0 LINE",
"424 51 LINE",
"257.974 26.18 LINE SMOOTH",
"230.416 22.06 OFFCURVE",
"210.396 20 OFFCURVE",
"197.914 20 CURVE SMOOTH",
"188 20 LINE",
"188 0 LINE"
);
},
{
closed = 1;
nodes = (
"330 333 OFFCURVE",
"350 313 OFFCURVE",
"378 313 CURVE SMOOTH",
"406 313 OFFCURVE",
"426 333 OFFCURVE",
"426 361 CURVE SMOOTH",
"426 389 OFFCURVE",
"406 409 OFFCURVE",
"378 409 CURVE SMOOTH",
"350 409 OFFCURVE",
"330 389 OFFCURVE",
"330 361 CURVE SMOOTH"
);
}
);
};
components = (
{
name = L;
},
{
name = periodcentered.loclCAT.case;
transform = "{1, 0, 0, 1, 242, 0}";
}
);
layerId = "879304B0-C0BD-4EE0-9B7F-878EED11B82D";
userData = {
com.fontlab.autolayer = 1;
com.fontlab.recipe = "L+dotaccent.salt";
};
width = 461;
}
);
rightKerningGroup = L_gr;
unicode = "013F,0140";
},
{
color = (255,153,253,255);
glyphname = Lslash;
lastChange = "2022-05-26 13:06:07 +0000";
layers = (
{
background = {
anchors = (
{
name = bottom;
position = "{277, -14}";
},
{
name = right;
position = "{280, 350}";
},
{
name = top;
position = "{164, 765}";
}
);
paths = (
{
closed = 1;
nodes = (
"162 351 LINE",
"154 374 LINE",
"38 332 LINE",
"46 309 LINE"
);
},
{
closed = 1;
nodes = (
"347 413 LINE",
"339 436 LINE",
"181 379 LINE",
"189 356 LINE"
);
},
{
closed = 1;
nodes = (
"198 0 LINE",
"198 700 LINE",
"130 700 LINE",
"130 0 LINE"
);
},
{
closed = 1;
nodes = (
"130 0 LINE",
"198 0 LINE",
"198 700 LINE",
"130 700 LINE"
);
},
{
closed = 1;
nodes = (
"424 0 LINE",
"424 51 LINE",
"257.974 26.18 LINE SMOOTH",
"230.416 22.06 OFFCURVE",
"210.396 20 OFFCURVE",
"197.914 20 CURVE SMOOTH",
"188 20 LINE",
"188 0 LINE"
);
}
);
};
components = (
{
name = L;
}
);
guideLines = (
{
angle = 90;
position = "{424, 0}";
},
{
angle = 90;
position = "{424, 0}";
},
{
angle = 90;
position = "{38, 0}";
},
{
angle = 90;
position = "{372, 0}";
},
{
position = "{0, 350}";
}
);
layerId = "879304B0-C0BD-4EE0-9B7F-878EED11B82D";
paths = (
{
closed = 1;
nodes = (
"162 351 LINE",
"154 374 LINE",
"38 332 LINE",
"46 309 LINE"
);
},
{
closed = 1;
nodes = (
"347 413 LINE",
"339 436 LINE",
"181 379 LINE",
"189 356 LINE"
);
}
);
userData = {
com.fontlab.metricsLeft = "L-92";
com.fontlab.metricsRight = L;
};
vertWidth = 0;
width = 461;
}
);
rightKerningGroup = L_gr;
unicode = "0141,0142";
},
{
color = (153,255,154,255);
glyphname = M;
lastChange = "2022-05-26 13:06:07 +0000";
layers = (
{
anchors = (
{
name = bottom;
position = "{460, 0}";
},
{
name = top;
position = "{460, 700}";
}
);
background = {
paths = (
{
closed = 1;
nodes = (
"717 700 LINE",
"481 246 LINE",
"475 246 LINE",
"160 714 LINE",
"140 714 LINE",
"115 0 LINE",
"183 0 LINE",
"161 587 LINE",
"167 587 LINE",
"442 178 LINE",
"473 178 LINE",
"715 642 LINE",
"721 642 LINE",
"721 0 LINE",
"789 0 LINE",
"789 700 LINE"
);
}
);
};
guideLines = (
{
position = "{0, 409}";
}
);
layerId = "879304B0-C0BD-4EE0-9B7F-878EED11B82D";
paths = (
{
closed = 1;
nodes = (
"717 700 LINE",
"481 246 LINE",
"475 246 LINE",
"160 714 LINE",
"140 714 LINE",
"115 0 LINE",
"183 0 LINE",
"161 587 LINE",
"167 587 LINE",
"442 178 LINE",
"473 178 LINE",
"715 642 LINE",
"721 642 LINE",
"721 0 LINE",
"789 0 LINE",
"789 700 LINE"
);
}
);
userData = {
com.fontlab.metricsLeft = N;
com.fontlab.metricsRight = H;
};
vertWidth = 0;
width = 919;
}
);
unicode = "004D,006D";
},
{
color = (153,255,154,255);
glyphname = N;
lastChange = "2022-05-26 13:06:07 +0000";
layers = (
{
anchors = (
{
name = bottom;
position = "{411, 0}";
},
{
name = top;
position = "{411, 700}";
}
);
background = {
anchors = (
{
name = bottom;
position = "{411, 0}";
},
{
name = top;
position = "{411, 765}";
}
);
paths = (
{
closed = 1;
nodes = (
"183 0 LINE",
"161 594 LINE",
"167 594 LINE",
"670 -14 LINE",
"682 -14 LINE",
"707 700 LINE",
"639 700 LINE",
"661 106 LINE",
"655 106 LINE",
"152 714 LINE",
"140 714 LINE",
"115 0 LINE"
);
}
);
};
guideLines = (
{
angle = 90;
position = "{116, 0}";
},
{
angle = 90;
position = "{706, 0}";
},
{
angle = 90;
position = "{411, 0}";
},
{
position = "{0, 280}";
}
);
layerId = "879304B0-C0BD-4EE0-9B7F-878EED11B82D";
paths = (
{
closed = 1;
nodes = (
"183 0 LINE",
"161 594 LINE",
"167 594 LINE",
"670 -14 LINE",
"682 -14 LINE",
"707 700 LINE",
"639 700 LINE",
"661 106 LINE",
"655 106 LINE",
"152 714 LINE",
"140 714 LINE",
"115 0 LINE"
);
}
);
userData = {
com.fontlab.metricsRight = "|";
};
vertWidth = 0;
width = 822;
}
);
unicode = "004E,006E";
},
{
color = (255,153,253,255);
glyphname = Nacute;
lastChange = "2022-05-26 13:10:21 +0000";
layers = (
{
background = {
anchors = (
{
name = bottom;
position = "{411, 0}";
},
{
name = top;
position = "{411, 765}";
}
);
paths = (
{
closed = 1;
nodes = (
"183 0 LINE",
"161 594 LINE",
"167 594 LINE",
"670 -14 LINE",
"682 -14 LINE",
"707 700 LINE",
"639 700 LINE",
"661 106 LINE",
"655 106 LINE",
"152 714 LINE",
"140 714 LINE",
"115 0 LINE"
);
},
{
closed = 1;
nodes = (
"365 763 LINE",
"539 891 LINE",
"539 897 LINE",
"449 897 LINE",
"352 775 LINE"
);
}
);
};
components = (
{
name = N;
},
{
name = acutecomb;
transform = "{1, 0, 0, 1, 320, 0}";
}
);
layerId = "879304B0-C0BD-4EE0-9B7F-878EED11B82D";
userData = {
com.fontlab.autolayer = 1;
com.fontlab.recipe = "N+acute";
};
width = 822;
}
);
unicode = "0143,0144";
},
{
color = (255,153,253,255);
glyphname = Ncaron;
lastChange = "2022-05-26 13:10:59 +0000";
layers = (
{
background = {
anchors = (
{
name = bottom;
position = "{411, 0}";
},
{
name = top;
position = "{411, 765}";
}
);
paths = (
{
closed = 1;
nodes = (
"183 0 LINE",
"161 594 LINE",
"167 594 LINE",
"670 -14 LINE",
"682 -14 LINE",
"707 700 LINE",
"639 700 LINE",
"661 106 LINE",
"655 106 LINE",
"152 714 LINE",
"140 714 LINE",
"115 0 LINE"
);
},
{
closed = 1;
nodes = (
"424 775 LINE",
"545 905 LINE",
"532 917 LINE",
"411 837 LINE",
"290 917 LINE",
"277 905 LINE",
"398 775 LINE"
);
}
);
};
components = (
{
name = N;
},
{
name = caroncomb;
transform = "{1, 0, 0, 1, 207, 0}";
}
);
layerId = "879304B0-C0BD-4EE0-9B7F-878EED11B82D";
userData = {
com.fontlab.autolayer = 1;
com.fontlab.recipe = "N+caron";
};
width = 822;
}
);
unicode = "0147,0148";
},
{
color = (255,153,253,255);
glyphname = Ncommaaccent;
lastChange = "2022-05-26 13:09:29 +0000";
layers = (
{
background = {
anchors = (
{
name = bottom;
position = "{411, 0}";
},
{
name = top;
position = "{411, 765}";
}
);
paths = (
{
closed = 1;
nodes = (
"183 0 LINE",
"161 594 LINE",
"167 594 LINE",
"670 -14 LINE",
"682 -14 LINE",
"707 700 LINE",
"639 700 LINE",
"661 106 LINE",
"655 106 LINE",
"152 714 LINE",
"140 714 LINE",
"115 0 LINE"
);
},
{
closed = 1;
nodes = (
"363 -73 OFFCURVE",
"383 -54 OFFCURVE",
"411 -54 CURVE SMOOTH",
"442 -54 OFFCURVE",
"460 -79 OFFCURVE",
"460 -124 CURVE SMOOTH",
"460 -174 OFFCURVE",
"438 -213 OFFCURVE",
"380 -256 CURVE",
"369 -242 LINE",
"418 -202 OFFCURVE",
"430 -174 OFFCURVE {name = hr01;}",
"430 -131 CURVE",
"424 -139 OFFCURVE",
"415 -143 OFFCURVE",
"404 -143 CURVE SMOOTH",
"379 -143 OFFCURVE",
"363 -124 OFFCURVE {name = hr02;}",
"363 -100 CURVE SMOOTH"
);
}
);
};
components = (
{
name = N;
},
{
name = commaaccentcomb;
transform = "{1, 0, 0, 1, 291, 0}";
}
);
layerId = "879304B0-C0BD-4EE0-9B7F-878EED11B82D";
userData = {
com.fontlab.autolayer = 1;
com.fontlab.recipe = "N+commaaccentcomb";
};
width = 822;
}
);
unicode = "0145,0146";
},
{
color = (255,153,253,255);
glyphname = Nhookleft;
lastChange = "2022-05-26 13:06:07 +0000";
layers = (
{
anchors = (
{
name = bottom;
position = "{390, 0}";
},
{
name = top;
position = "{390, 700}";
}
);
background = {
paths = (
{
closed = 1;
nodes = (
"111.101 -112.473 OFFCURVE",
"101.08 -175.832 OFFCURVE",
"38 -221 CURVE",
"40 -227 LINE",
"148.83 -192.55 OFFCURVE",
"186.744 -72.885 OFFCURVE",
"181.462 63.949 CURVE SMOOTH",
"161 594 LINE",
"167 594 LINE",
"670 -14 LINE",
"682 -14 LINE",
"707 700 LINE",
"639 700 LINE",
"661 106 LINE",
"655 106 LINE",
"152 714 LINE",
"140 714 LINE",
"117.3 64.8 LINE SMOOTH"
);
}
);
};
layerId = "879304B0-C0BD-4EE0-9B7F-878EED11B82D";
paths = (
{
closed = 1;
nodes = (
"111.101 -112.473 OFFCURVE",
"101.08 -175.832 OFFCURVE",
"38 -221 CURVE",
"40 -227 LINE",
"148.83 -192.55 OFFCURVE",
"186.744 -72.885 OFFCURVE",
"181.462 63.949 CURVE SMOOTH",
"161 594 LINE",
"167 594 LINE",
"670 -14 LINE",
"682 -14 LINE",
"707 700 LINE",
"639 700 LINE",
"661 106 LINE",
"655 106 LINE",
"152 714 LINE",
"140 714 LINE",
"117.3 64.8 LINE SMOOTH"
);
}
);
vertWidth = 0;
width = 780;
}
);
unicode = "019D,0272";
},
{
color = (255,153,253,255);
glyphname = Ntilde;
lastChange = "2022-05-26 13:13:44 +0000";
layers = (
{
background = {
anchors = (
{
name = bottom;
position = "{406, 0}";
},
{
name = top;
position = "{406, 765}";
}
);
paths = (
{
closed = 1;
nodes = (
"178 0 LINE",
"156 594 LINE",
"162 594 LINE",
"665 -14 LINE",
"677 -14 LINE",
"702 700 LINE",
"634 700 LINE",
"656 106 LINE",
"650 106 LINE",
"147 714 LINE",
"135 714 LINE",
"110 0 LINE"
);
},
{
closed = 1;
nodes = (
"405 866 OFFCURVE",
"383 879 OFFCURVE",
"355 879 CURVE SMOOTH",
"318 879 OFFCURVE",
"292 856 OFFCURVE",
"257 787 CURVE",
"272 777 LINE",
"300 815 OFFCURVE",
"320 825 OFFCURVE",
"341 825 CURVE SMOOTH",
"365 825 OFFCURVE",
"387 811 OFFCURVE",
"407 798 CURVE SMOOTH",
"429 784 OFFCURVE",
"451 771 OFFCURVE {name = hr01;}",
"479 771 CURVE SMOOTH",
"516 771 OFFCURVE",
"542 794 OFFCURVE",
"577 863 CURVE",
"562 873 LINE",
"534 835 OFFCURVE",
"514 825 OFFCURVE",
"493 825 CURVE SMOOTH",
"469 825 OFFCURVE",
"447 839 OFFCURVE",
"427 852 CURVE SMOOTH"
);
}
);
};
components = (
{
name = N;
},
{
name = tildecomb;
transform = "{1, 0, 0, 1, 208, 0}";
}
);
layerId = "879304B0-C0BD-4EE0-9B7F-878EED11B82D";
userData = {
com.fontlab.recipe = "N+tilde";
};
width = 822;
}
);
unicode = "00D1,00F1";
},
{
color = (255,153,253,255);
glyphname = Eng;
lastChange = "2022-05-26 13:06:07 +0000";
layers = (
{
anchors = (
{
name = bottom;
position = "{411, 0}";
},
{
name = top;
position = "{411, 700}";
}
);
background = {
anchors = (
{
name = bottom;
position = "{411, 0}";
},
{
name = top;
position = "{673, 765}";
}
);
paths = (
{
closed = 1;
nodes = (
"616 -106 OFFCURVE",
"595 -189 OFFCURVE",
"538 -221 CURVE",
"540 -227 LINE",
"644 -195 OFFCURVE",
"679 -100 OFFCURVE",
"685 68 CURVE",
"616 62 LINE"
);
},
{
closed = 1;
nodes = (
"183 0 LINE",
"161 594 LINE",
"167 594 LINE",
"644 17 LINE",
"685 68 LINE",
"707 700 LINE",
"639 700 LINE",
"661 106 LINE",
"655 106 LINE",
"152 714 LINE",
"140 714 LINE",
"115 0 LINE"
);
}
);
};
guideLines = (
{
angle = 90;
position = "{677, 0}";
},
{
angle = 90;
position = "{116, 0}";
},
{
angle = 90;
position = "{706, 0}";
},
{
angle = 90;
position = "{411, 0}";
},
{
position = "{0, 410}";
},
{
position = "{0, -140}";
}
);
layerId = "879304B0-C0BD-4EE0-9B7F-878EED11B82D";
paths = (
{
closed = 1;
nodes = (
"616 -106 OFFCURVE",
"595 -189 OFFCURVE",
"538 -221 CURVE",
"540 -227 LINE",
"644 -195 OFFCURVE",
"679 -100 OFFCURVE",
"685 68 CURVE",
"616 62 LINE"
);
},
{
closed = 1;
nodes = (
"183 0 LINE",
"161 594 LINE",
"167 594 LINE",
"644 17 LINE",
"685 68 LINE",
"707 700 LINE",
"639 700 LINE",
"661 106 LINE",
"655 106 LINE",
"152 714 LINE",
"140 714 LINE",
"115 0 LINE"
);
}
);
userData = {
com.fontlab.metricsLeft = N;
com.fontlab.metricsRight = N;
};
vertWidth = 0;
width = 822;
}
);
unicode = "014A,014B";
},
{
color = (153,255,154,255);
glyphname = O;
lastChange = "2022-05-26 13:20:01 +0000";
layers = (
{
anchors = (
{
name = bottom;
position = "{444, 0}";
},
{
name = center;
position = "{444, 350}";
},
{
name = ogonek;
position = "{482, 0}";
},
{
name = top;
position = "{444, 700}";
},
{
name = topleft;
position = "{20, 700}";
},
{
name = topright;
position = "{868, 700}";
}
);
background = {
anchors = (
{
name = top;
position = "{444, 765}";
}
);
paths = (
{
closed = 1;
nodes = (
"80 144 OFFCURVE",
"238 -14 OFFCURVE",
"444 -14 CURVE SMOOTH",
"650 -14 OFFCURVE",
"808 144 OFFCURVE",
"808 350 CURVE SMOOTH",
"808 556 OFFCURVE",
"650 714 OFFCURVE",
"444 714 CURVE SMOOTH",
"238 714 OFFCURVE",
"80 556 OFFCURVE",
"80 350 CURVE SMOOTH"
);
},
{
closed = 1;
nodes = (
"156 553.014 OFFCURVE",
"272.448 690 OFFCURVE",
"444 690 CURVE SMOOTH",
"616.076 690 OFFCURVE",
"732 552.655 OFFCURVE",
"732 350 CURVE SMOOTH",
"732 147.025 OFFCURVE",
"616.357 10 OFFCURVE",
"444 10 CURVE SMOOTH",
"271.717 10 OFFCURVE",
"156 146.727 OFFCURVE",
"156 350 CURVE SMOOTH"
);
}
);
};
guideLines = (
{
angle = 90;
position = "{444, 0}";
},
{
position = "{0, 84}";
},
{
position = "{0, 622}";
}
);
layerId = "879304B0-C0BD-4EE0-9B7F-878EED11B82D";
paths = (
{
closed = 1;
nodes = (
"80 144 OFFCURVE",
"238 -14 OFFCURVE",
"444 -14 CURVE SMOOTH",
"650 -14 OFFCURVE",
"808 144 OFFCURVE",
"808 350 CURVE SMOOTH",
"808 556 OFFCURVE",
"650 714 OFFCURVE",
"444 714 CURVE SMOOTH",
"238 714 OFFCURVE",
"80 556 OFFCURVE",
"80 350 CURVE SMOOTH"
);
},
{
closed = 1;
nodes = (
"156 553.014 OFFCURVE",
"272.448 690 OFFCURVE",
"444 690 CURVE SMOOTH",
"616.076 690 OFFCURVE",
"732 552.655 OFFCURVE",
"732 350 CURVE SMOOTH",
"732 147.025 OFFCURVE",
"616.357 10 OFFCURVE",
"444 10 CURVE SMOOTH",
"271.717 10 OFFCURVE",
"156 146.727 OFFCURVE",
"156 350 CURVE SMOOTH"
);
}
);
userData = {
com.fontlab.metricsRight = "|";
};
vertWidth = 0;
width = 888;
}
);
leftKerningGroup = O_C_G_Q;
rightKerningGroup = D_O_Q;
unicode = "004F,006F";
},
{
color = (255,153,253,255);
glyphname = Oacute;
lastChange = "2022-05-26 13:10:21 +0000";
layers = (
{
background = {
anchors = (
{
name = top;
position = "{444, 765}";
}
);
paths = (
{
closed = 1;
nodes = (
"80 144 OFFCURVE",
"238 -14 OFFCURVE",
"444 -14 CURVE SMOOTH",
"650 -14 OFFCURVE",
"808 144 OFFCURVE",
"808 350 CURVE SMOOTH",
"808 556 OFFCURVE",
"650 714 OFFCURVE",
"444 714 CURVE SMOOTH",
"238 714 OFFCURVE",
"80 556 OFFCURVE",
"80 350 CURVE SMOOTH"
);
},
{
closed = 1;
nodes = (
"156 553.014 OFFCURVE",
"272.448 690 OFFCURVE",
"444 690 CURVE SMOOTH",
"616.076 690 OFFCURVE",
"732 552.655 OFFCURVE",
"732 350 CURVE SMOOTH",
"732 147.025 OFFCURVE",
"616.357 10 OFFCURVE",
"444 10 CURVE SMOOTH",
"271.717 10 OFFCURVE",
"156 146.727 OFFCURVE",
"156 350 CURVE SMOOTH"
);
},
{
closed = 1;
nodes = (
"398 763 LINE",
"572 891 LINE",
"572 897 LINE",
"482 897 LINE",
"385 775 LINE"
);
}
);
};
components = (
{
name = O;
},
{
name = acutecomb;
transform = "{1, 0, 0, 1, 353, 0}";
}
);
layerId = "879304B0-C0BD-4EE0-9B7F-878EED11B82D";
userData = {
com.fontlab.autolayer = 1;
com.fontlab.recipe = "O+acute";
};
width = 888;
}
);
leftKerningGroup = O_C_G_Q;
rightKerningGroup = D_O_Q;
unicode = "00D3,00F3";
},
{
color = (255,153,253,255);
glyphname = Obreve;
lastChange = "2022-05-26 13:10:47 +0000";
layers = (
{
background = {
anchors = (
{
name = top;
position = "{444, 765}";
}
);
paths = (
{
closed = 1;
nodes = (
"80 144 OFFCURVE",
"238 -14 OFFCURVE",
"444 -14 CURVE SMOOTH",
"650 -14 OFFCURVE",
"808 144 OFFCURVE",
"808 350 CURVE SMOOTH",
"808 556 OFFCURVE",
"650 714 OFFCURVE",
"444 714 CURVE SMOOTH",
"238 714 OFFCURVE",
"80 556 OFFCURVE",
"80 350 CURVE SMOOTH"
);
},
{
closed = 1;
nodes = (
"156 553.014 OFFCURVE",
"272.448 690 OFFCURVE",
"444 690 CURVE SMOOTH",
"616.076 690 OFFCURVE",
"732 552.655 OFFCURVE",
"732 350 CURVE SMOOTH",
"732 147.025 OFFCURVE",
"616.357 10 OFFCURVE",
"444 10 CURVE SMOOTH",
"271.717 10 OFFCURVE",
"156 146.727 OFFCURVE",
"156 350 CURVE SMOOTH"
);
},
{
closed = 1;
nodes = (
"508 777 OFFCURVE",
"555 824 OFFCURVE",
"573 906 CURVE",
"556 912 LINE",
"523 855 OFFCURVE",
"494 835 OFFCURVE",
"444 835 CURVE SMOOTH",
"394 835 OFFCURVE",
"365 855 OFFCURVE",
"332 912 CURVE",
"315 906 LINE",
"333 824 OFFCURVE",
"380 777 OFFCURVE",
"444 777 CURVE SMOOTH"
);
}
);
};
components = (
{
name = O;
},
{
name = brevecomb;
transform = "{1, 0, 0, 1, 245, 0}";
}
);
layerId = "879304B0-C0BD-4EE0-9B7F-878EED11B82D";
userData = {
com.fontlab.autolayer = 1;
com.fontlab.recipe = "O+breve";
};
width = 888;
}
);
leftKerningGroup = O_C_G_Q;
rightKerningGroup = D_O_Q;
unicode = "014E,014F";
},
{
color = (255,153,253,255);
glyphname = Ocaron;
lastChange = "2022-05-26 13:10:59 +0000";
layers = (
{
background = {
anchors = (
{
name = top;
position = "{444, 765}";
}
);
paths = (
{
closed = 1;
nodes = (
"80 144 OFFCURVE",
"238 -14 OFFCURVE",
"444 -14 CURVE SMOOTH",
"650 -14 OFFCURVE",
"808 144 OFFCURVE",
"808 350 CURVE SMOOTH",
"808 556 OFFCURVE",
"650 714 OFFCURVE",
"444 714 CURVE SMOOTH",
"238 714 OFFCURVE",
"80 556 OFFCURVE",
"80 350 CURVE SMOOTH"
);
},
{
closed = 1;
nodes = (
"156 553.014 OFFCURVE",
"272.448 690 OFFCURVE",
"444 690 CURVE SMOOTH",
"616.076 690 OFFCURVE",
"732 552.655 OFFCURVE",
"732 350 CURVE SMOOTH",
"732 147.025 OFFCURVE",
"616.357 10 OFFCURVE",
"444 10 CURVE SMOOTH",
"271.717 10 OFFCURVE",
"156 146.727 OFFCURVE",
"156 350 CURVE SMOOTH"
);
},
{
closed = 1;
nodes = (
"457 775 LINE",
"578 905 LINE",
"565 917 LINE",
"444 837 LINE",
"323 917 LINE",
"310 905 LINE",
"431 775 LINE"
);
}
);
};
components = (
{
name = O;
},
{
name = caroncomb;
transform = "{1, 0, 0, 1, 240, 0}";
}
);
layerId = "879304B0-C0BD-4EE0-9B7F-878EED11B82D";
userData = {
com.fontlab.autolayer = 1;
com.fontlab.recipe = "O+caron";
};
width = 888;
}
);
leftKerningGroup = O_C_G_Q;
rightKerningGroup = D_O_Q;
unicode = "01D1,01D2";
},
{
color = (255,153,253,255);
glyphname = Ocircumflex;
lastChange = "2022-05-26 13:11:50 +0000";
layers = (
{
background = {
anchors = (
{
name = top;
position = "{444, 765}";
}
);
paths = (
{
closed = 1;
nodes = (
"80 144 OFFCURVE",
"238 -14 OFFCURVE",
"444 -14 CURVE SMOOTH",
"650 -14 OFFCURVE",
"808 144 OFFCURVE",
"808 350 CURVE SMOOTH",
"808 556 OFFCURVE",
"650 714 OFFCURVE",
"444 714 CURVE SMOOTH",
"238 714 OFFCURVE",
"80 556 OFFCURVE",
"80 350 CURVE SMOOTH"
);
},
{
closed = 1;
nodes = (
"156 553.014 OFFCURVE",
"272.448 690 OFFCURVE",
"444 690 CURVE SMOOTH",
"616.076 690 OFFCURVE",
"732 552.655 OFFCURVE",
"732 350 CURVE SMOOTH",
"732 147.025 OFFCURVE",
"616.357 10 OFFCURVE",
"444 10 CURVE SMOOTH",
"271.717 10 OFFCURVE",
"156 146.727 OFFCURVE",
"156 350 CURVE SMOOTH"
);
},
{
closed = 1;
nodes = (
"431 905 LINE",
"310 775 LINE",
"323 763 LINE",
"444 843 LINE",
"565 763 LINE",
"578 775 LINE",
"457 905 LINE"
);
}
);
};
components = (
{
name = O;
},
{
name = circumflexcomb;
transform = "{1, 0, 0, 1, 240, 0}";
}
);
layerId = "879304B0-C0BD-4EE0-9B7F-878EED11B82D";
userData = {
com.fontlab.autolayer = 1;
com.fontlab.recipe = "O+circumflex";
};
width = 888;
}
);
leftKerningGroup = O_C_G_Q;
rightKerningGroup = D_O_Q;
unicode = "00D4,00F4";
},
{
color = (255,153,253,255);
glyphname = Odieresis;
lastChange = "2022-05-26 13:11:58 +0000";
layers = (
{
background = {
anchors = (
{
name = top;
position = "{444, 765}";
}
);
paths = (
{
closed = 1;
nodes = (
"80 144 OFFCURVE",
"238 -14 OFFCURVE",
"444 -14 CURVE SMOOTH",
"650 -14 OFFCURVE",
"808 144 OFFCURVE",
"808 350 CURVE SMOOTH",
"808 556 OFFCURVE",
"650 714 OFFCURVE",
"444 714 CURVE SMOOTH",
"238 714 OFFCURVE",
"80 556 OFFCURVE",
"80 350 CURVE SMOOTH"
);
},
{
closed = 1;
nodes = (
"156 553.014 OFFCURVE",
"272.448 690 OFFCURVE",
"444 690 CURVE SMOOTH",
"616.076 690 OFFCURVE",
"732 552.655 OFFCURVE",
"732 350 CURVE SMOOTH",
"732 147.025 OFFCURVE",
"616.357 10 OFFCURVE",
"444 10 CURVE SMOOTH",
"271.717 10 OFFCURVE",
"156 146.727 OFFCURVE",
"156 350 CURVE SMOOTH"
);
},
{
closed = 1;
nodes = (
"502 819 OFFCURVE",
"521 800 OFFCURVE",
"547 800 CURVE SMOOTH",
"573 800 OFFCURVE",
"592 819 OFFCURVE",
"592 845 CURVE SMOOTH",
"592 871 OFFCURVE",
"573 890 OFFCURVE",
"547 890 CURVE SMOOTH",
"521 890 OFFCURVE",
"502 871 OFFCURVE",
"502 845 CURVE SMOOTH"
);
},
{
closed = 1;
nodes = (
"296 819 OFFCURVE",
"315 800 OFFCURVE",
"341 800 CURVE SMOOTH",
"367 800 OFFCURVE",
"386 819 OFFCURVE",
"386 845 CURVE SMOOTH",
"386 871 OFFCURVE",
"367 890 OFFCURVE",
"341 890 CURVE SMOOTH",
"315 890 OFFCURVE",
"296 871 OFFCURVE",
"296 845 CURVE SMOOTH"
);
}
);
};
components = (
{
name = O;
},
{
name = dieresiscomb;
transform = "{1, 0, 0, 1, 226, 0}";
}
);
layerId = "879304B0-C0BD-4EE0-9B7F-878EED11B82D";
userData = {
com.fontlab.autolayer = 1;
com.fontlab.recipe = "O+dieresis";
};
width = 888;
}
);
leftKerningGroup = O_C_G_Q;
rightKerningGroup = D_O_Q;
unicode = "00D6,00F6";
},
{
color = (255,153,253,255);
glyphname = Ograve;
lastChange = "2022-05-26 13:12:46 +0000";
layers = (
{
background = {
anchors = (
{
name = top;
position = "{444, 765}";
}
);
paths = (
{
closed = 1;
nodes = (
"80 144 OFFCURVE",
"238 -14 OFFCURVE",
"444 -14 CURVE SMOOTH",
"650 -14 OFFCURVE",
"808 144 OFFCURVE",
"808 350 CURVE SMOOTH",
"808 556 OFFCURVE",
"650 714 OFFCURVE",
"444 714 CURVE SMOOTH",
"238 714 OFFCURVE",
"80 556 OFFCURVE",
"80 350 CURVE SMOOTH"
);
},
{
closed = 1;
nodes = (
"156 553.014 OFFCURVE",
"272.448 690 OFFCURVE",
"444 690 CURVE SMOOTH",
"616.076 690 OFFCURVE",
"732 552.655 OFFCURVE",
"732 350 CURVE SMOOTH",
"732 147.025 OFFCURVE",
"616.357 10 OFFCURVE",
"444 10 CURVE SMOOTH",
"271.717 10 OFFCURVE",
"156 146.727 OFFCURVE",
"156 350 CURVE SMOOTH"
);
},
{
closed = 1;
nodes = (
"406 897 LINE",
"316 897 LINE",
"316 891 LINE",
"490 763 LINE",
"503 775 LINE"
);
}
);
};
components = (
{
name = O;
},
{
name = gravecomb;
transform = "{1, 0, 0, 1, 296, 0}";
}
);
layerId = "879304B0-C0BD-4EE0-9B7F-878EED11B82D";
userData = {
com.fontlab.autolayer = 1;
com.fontlab.recipe = "O+grave";
};
width = 888;
}
);
leftKerningGroup = O_C_G_Q;
rightKerningGroup = D_O_Q;
unicode = "00D2,00F2";
},
{
color = (255,153,253,255);
glyphname = Ohungarumlaut;
lastChange = "2022-05-26 13:19:51 +0000";
layers = (
{
background = {
anchors = (
{
name = top;
position = "{444, 765}";
}
);
paths = (
{
closed = 1;
nodes = (
"80 144 OFFCURVE",
"238 -14 OFFCURVE",
"444 -14 CURVE SMOOTH",
"650 -14 OFFCURVE",
"808 144 OFFCURVE",
"808 350 CURVE SMOOTH",
"808 556 OFFCURVE",
"650 714 OFFCURVE",
"444 714 CURVE SMOOTH",
"238 714 OFFCURVE",
"80 556 OFFCURVE",
"80 350 CURVE SMOOTH"
);
},
{
closed = 1;
nodes = (
"156 553.014 OFFCURVE",
"272.448 690 OFFCURVE",
"444 690 CURVE SMOOTH",
"616.076 690 OFFCURVE",
"732 552.655 OFFCURVE",
"732 350 CURVE SMOOTH",
"732 147.025 OFFCURVE",
"616.357 10 OFFCURVE",
"444 10 CURVE SMOOTH",
"271.717 10 OFFCURVE",
"156 146.727 OFFCURVE",
"156 350 CURVE SMOOTH"
);
},
{
closed = 1;
nodes = (
"338 763 LINE",
"492 893 LINE",
"492 899 LINE",
"411 899 LINE",
"325 775 LINE"
);
},
{
closed = 1;
nodes = (
"498 763 LINE",
"652 893 LINE",
"652 899 LINE",
"571 899 LINE",
"485 775 LINE"
);
}
);
};
components = (
{
name = O;
},
{
name = hungarumlautcomb;
transform = "{1, 0, 0, 1, 295, 10}";
}
);
layerId = "879304B0-C0BD-4EE0-9B7F-878EED11B82D";
userData = {
com.fontlab.autolayer = 1;
com.fontlab.recipe = "O+hungarumlaut";
};
width = 888;
}
);
leftKerningGroup = O_C_G_Q;
rightKerningGroup = D_O_Q;
unicode = "0150,0151";
},
{
color = (255,153,253,255);
glyphname = Omacron;
lastChange = "2022-05-26 13:12:56 +0000";
layers = (
{
background = {
anchors = (
{
name = top;
position = "{444, 765}";
}
);
paths = (
{
closed = 1;
nodes = (
"80 144 OFFCURVE",
"238 -14 OFFCURVE",
"444 -14 CURVE SMOOTH",
"650 -14 OFFCURVE",
"808 144 OFFCURVE",
"808 350 CURVE SMOOTH",
"808 556 OFFCURVE",
"650 714 OFFCURVE",
"444 714 CURVE SMOOTH",
"238 714 OFFCURVE",
"80 556 OFFCURVE",
"80 350 CURVE SMOOTH"
);
},
{
closed = 1;
nodes = (
"156 553.014 OFFCURVE",
"272.448 690 OFFCURVE",
"444 690 CURVE SMOOTH",
"616.076 690 OFFCURVE",
"732 552.655 OFFCURVE",
"732 350 CURVE SMOOTH",
"732 147.025 OFFCURVE",
"616.357 10 OFFCURVE",
"444 10 CURVE SMOOTH",
"271.717 10 OFFCURVE",
"156 146.727 OFFCURVE",
"156 350 CURVE SMOOTH"
);
},
{
closed = 1;
nodes = (
"578 818 LINE",
"578 858 LINE",
"310 858 LINE",
"310 818 LINE"
);
}
);
};
components = (
{
name = O;
},
{
name = macroncomb;
transform = "{1, 0, 0, 1, 260, 0}";
}
);
layerId = "879304B0-C0BD-4EE0-9B7F-878EED11B82D";
userData = {
com.fontlab.autolayer = 1;
};
width = 888;
}
);
leftKerningGroup = O_C_G_Q;
rightKerningGroup = D_O_Q;
unicode = "014C,014D";
},
{
color = (255,153,253,255);
glyphname = Oogonek;
lastChange = "2022-05-26 13:20:01 +0000";
layers = (
{
anchors = (
{
name = top;
position = "{445, 700}";
}
);
background = {
anchors = (
{
name = top;
position = "{400, 765}";
}
);
paths = (
{
closed = 1;
nodes = (
"518 -164 LINE",
"504 -174 OFFCURVE",
"487 -180 OFFCURVE",
"473 -180 CURVE SMOOTH",
"444 -180 OFFCURVE",
"426 -157.684 OFFCURVE",
"426 -114.731 CURVE SMOOTH",
"426 -87.946 OFFCURVE",
"433 -53.542 OFFCURVE",
"471 -9.542 CURVE",
"470 0.458 LINE",
"463 0.458 LINE",
"387.801 -50.233 OFFCURVE",
"366 -91.237 OFFCURVE",
"366 -134.903 CURVE SMOOTH",
"366 -187.823 OFFCURVE",
"398 -220 OFFCURVE",
"447 -220 CURVE SMOOTH",
"478 -220 OFFCURVE",
"503 -207 OFFCURVE",
"529 -178 CURVE"
);
},
{
closed = 1;
nodes = (
"81 144 OFFCURVE",
"239 -14 OFFCURVE",
"445 -14 CURVE SMOOTH",
"651 -14 OFFCURVE",
"809 144 OFFCURVE",
"809 350 CURVE SMOOTH",
"809 556 OFFCURVE",
"651 714 OFFCURVE",
"445 714 CURVE SMOOTH",
"239 714 OFFCURVE",
"81 556 OFFCURVE",
"81 350 CURVE SMOOTH"
);
},
{
closed = 1;
nodes = (
"157 553 OFFCURVE",
"273 690 OFFCURVE",
"445 690 CURVE SMOOTH",
"617 690 OFFCURVE",
"733 553 OFFCURVE",
"733 350 CURVE SMOOTH",
"733 147 OFFCURVE",
"617 10 OFFCURVE",
"445 10 CURVE SMOOTH",
"272 10 OFFCURVE",
"157 147 OFFCURVE",
"157 350 CURVE SMOOTH"
);
}
);
};
components = (
{
name = O;
},
{
name = ogonekcomb;
transform = "{1, 0, 0, 1, 297, 0}";
}
);
guideLines = (
{
angle = 90;
position = "{400, 0}";
}
);
layerId = "879304B0-C0BD-4EE0-9B7F-878EED11B82D";
userData = {
com.fontlab.metricsLeft = O;
com.fontlab.metricsRight = O;
};
width = 888;
}
);
leftKerningGroup = O_C_G_Q;
rightKerningGroup = D_O_Q;
unicode = "01EA,01EB";
},
{
color = (255,153,253,255);
glyphname = Oslash;
lastChange = "2022-05-26 13:06:07 +0000";
layers = (
{
anchors = (
{
name = bottom;
position = "{444, 0}";
},
{
name = top;
position = "{444, 700}";
}
);
background = {
anchors = (
{
name = top;
position = "{444, 765}";
}
);
paths = (
{
closed = 1;
nodes = (
"213 -75 LINE",
"691 754 LINE",
"669 766 LINE",
"191 -63 LINE"
);
},
{
closed = 1;
nodes = (
"80 144 OFFCURVE",
"238 -14 OFFCURVE",
"444 -14 CURVE SMOOTH",
"650 -14 OFFCURVE",
"808 144 OFFCURVE",
"808 350 CURVE SMOOTH",
"808 556 OFFCURVE",
"650 714 OFFCURVE",
"444 714 CURVE SMOOTH",
"238 714 OFFCURVE",
"80 556 OFFCURVE",
"80 350 CURVE SMOOTH"
);
},
{
closed = 1;
nodes = (
"156 553.014 OFFCURVE",
"272.448 690 OFFCURVE",
"444 690 CURVE SMOOTH",
"616.076 690 OFFCURVE",
"732 552.655 OFFCURVE",
"732 350 CURVE SMOOTH",
"732 147.025 OFFCURVE",
"616.357 10 OFFCURVE",
"444 10 CURVE SMOOTH",
"271.717 10 OFFCURVE",
"156 146.727 OFFCURVE",
"156 350 CURVE SMOOTH"
);
}
);
};
components = (
{
name = O;
}
);
guideLines = (
{
angle = 90;
position = "{444, 0}";
},
{
position = "{0, 350}";
},
{
angle = 90;
position = "{35, 0}";
},
{
angle = 90;
position = "{763, 0}";
}
);
layerId = "879304B0-C0BD-4EE0-9B7F-878EED11B82D";
paths = (
{
closed = 1;
nodes = (
"213 -75 LINE",
"691 754 LINE",
"669 766 LINE",
"191 -63 LINE"
);
}
);
userData = {
com.fontlab.metricsLeft = O;
com.fontlab.metricsRight = O;
};
vertWidth = 0;
width = 888;
}
);
leftKerningGroup = O_C_G_Q;
rightKerningGroup = D_O_Q;
unicode = "00D8,00F8";
},
{
color = (255,153,253,255);
glyphname = Oslashacute;
lastChange = "2022-05-26 13:10:21 +0000";
layers = (
{
background = {
anchors = (
{
name = top;
position = "{444, 765}";
}
);
paths = (
{
closed = 1;
nodes = (
"213 -75 LINE",
"691 754 LINE",
"669 766 LINE",
"191 -63 LINE"
);
},
{
closed = 1;
nodes = (
"80 144 OFFCURVE",
"238 -14 OFFCURVE",
"444 -14 CURVE SMOOTH",
"650 -14 OFFCURVE",
"808 144 OFFCURVE",
"808 350 CURVE SMOOTH",
"808 556 OFFCURVE",
"650 714 OFFCURVE",
"444 714 CURVE SMOOTH",
"238 714 OFFCURVE",
"80 556 OFFCURVE",
"80 350 CURVE SMOOTH"
);
},
{
closed = 1;
nodes = (
"156 553.014 OFFCURVE",
"272.448 690 OFFCURVE",
"444 690 CURVE SMOOTH",
"616.076 690 OFFCURVE",
"732 552.655 OFFCURVE",
"732 350 CURVE SMOOTH",
"732 147.025 OFFCURVE",
"616.357 10 OFFCURVE",
"444 10 CURVE SMOOTH",
"271.717 10 OFFCURVE",
"156 146.727 OFFCURVE",
"156 350 CURVE SMOOTH"
);
},
{
closed = 1;
nodes = (
"398 763 LINE",
"572 891 LINE",
"572 897 LINE",
"482 897 LINE",
"385 775 LINE"
);
}
);
};
components = (
{
name = Oslash;
},
{
name = acutecomb;
transform = "{1, 0, 0, 1, 353, 0}";
}
);
layerId = "879304B0-C0BD-4EE0-9B7F-878EED11B82D";
userData = {
com.fontlab.autolayer = 1;
com.fontlab.recipe = "Oslash+acute";
};
width = 888;
}
);
leftKerningGroup = O_C_G_Q;
rightKerningGroup = D_O_Q;
unicode = "01FE,01FF";
},
{
color = (255,153,253,255);
glyphname = Otilde;
lastChange = "2022-05-26 13:13:44 +0000";
layers = (
{
background = {
anchors = (
{
name = top;
position = "{444, 765}";
}
);
paths = (
{
closed = 1;
nodes = (
"80 144 OFFCURVE",
"238 -14 OFFCURVE",
"444 -14 CURVE SMOOTH",
"650 -14 OFFCURVE",
"808 144 OFFCURVE",
"808 350 CURVE SMOOTH",
"808 556 OFFCURVE",
"650 714 OFFCURVE",
"444 714 CURVE SMOOTH",
"238 714 OFFCURVE",
"80 556 OFFCURVE",
"80 350 CURVE SMOOTH"
);
},
{
closed = 1;
nodes = (
"156 553.014 OFFCURVE",
"272.448 690 OFFCURVE",
"444 690 CURVE SMOOTH",
"616.076 690 OFFCURVE",
"732 552.655 OFFCURVE",
"732 350 CURVE SMOOTH",
"732 147.025 OFFCURVE",
"616.357 10 OFFCURVE",
"444 10 CURVE SMOOTH",
"271.717 10 OFFCURVE",
"156 146.727 OFFCURVE",
"156 350 CURVE SMOOTH"
);
},
{
closed = 1;
nodes = (
"432 887 OFFCURVE",
"410 900 OFFCURVE",
"382 900 CURVE SMOOTH",
"345 900 OFFCURVE",
"319 877 OFFCURVE",
"284 808 CURVE",
"299 798 LINE",
"327 836 OFFCURVE",
"347 846 OFFCURVE",
"368 846 CURVE SMOOTH",
"392 846 OFFCURVE",
"414 832 OFFCURVE",
"434 819 CURVE SMOOTH",
"456 805 OFFCURVE",
"478 792 OFFCURVE {name = hr01;}",
"506 792 CURVE SMOOTH",
"543 792 OFFCURVE",
"569 815 OFFCURVE",
"604 884 CURVE",
"589 894 LINE",
"561 856 OFFCURVE",
"541 846 OFFCURVE",
"520 846 CURVE SMOOTH",
"496 846 OFFCURVE",
"474 860 OFFCURVE",
"454 873 CURVE SMOOTH"
);
}
);
};
components = (
{
name = O;
},
{
name = tildecomb;
transform = "{1, 0, 0, 1, 241, 0}";
}
);
layerId = "879304B0-C0BD-4EE0-9B7F-878EED11B82D";
userData = {
com.fontlab.autolayer = 1;
com.fontlab.recipe = "O+tilde";
};
width = 888;
}
);
leftKerningGroup = O_C_G_Q;
rightKerningGroup = D_O_Q;
unicode = "00D5,00F5";
},
{
color = (255,153,253,255);
glyphname = OE;
lastChange = "2022-05-26 13:06:07 +0000";
layers = (
{
anchors = (
{
name = bottom;
position = "{467, 0}";
},
{
name = top;
position = "{467, 700}";
}
);
background = {
anchors = (
{
name = bottom;
position = "{805, 0}";
},
{
name = top;
position = "{695, 765}";
}
);
guideLines = (
{
angle = 90;
position = "{102, 0}";
},
{
angle = 90;
position = "{211, 0}";
},
{
angle = 90;
position = "{57, 0}";
},
{
position = "{0, 615}";
}
);
paths = (
{
closed = 1;
nodes = (
"80 142.634 OFFCURVE",
"236.45 -10 OFFCURVE {name = hr01;}",
"449 -10 CURVE SMOOTH",
"495 -10 OFFCURVE",
"546 -2.708 OFFCURVE",
"593 11 CURVE",
"589 30 LINE",
"542.226 18.774 OFFCURVE",
"492.667 12 OFFCURVE",
"452 12 CURVE SMOOTH",
"271.535 12 OFFCURVE",
"156 143.634 OFFCURVE",
"156 350 CURVE SMOOTH",
"156 555.557 OFFCURVE",
"272.115 688 OFFCURVE {name = hr02;}",
"452 688 CURVE SMOOTH",
"492.667 688 OFFCURVE",
"542.226 681.226 OFFCURVE",
"589 670 CURVE",
"593 689 LINE",
"546 702.708 OFFCURVE",
"495 710 OFFCURVE",
"449 710 CURVE SMOOTH",
"236.45 710 OFFCURVE",
"80 557.366 OFFCURVE",
"80 350 CURVE SMOOTH"
);
},
{
closed = 1;
nodes = (
"613 355 LINE SMOOTH",
"622 355 OFFCURVE",
"642 354 OFFCURVE",
"675 352 CURVE SMOOTH",
"839 342 LINE",
"839 388 LINE",
"675 378 LINE SMOOTH",
"642 376 OFFCURVE",
"622 375 OFFCURVE",
"613 375 CURVE SMOOTH",
"603 375 LINE",
"603 355 LINE"
);
},
{
closed = 1;
nodes = (
"613 0 LINE",
"613 700 LINE",
"545 700 LINE",
"545 0 LINE"
);
},
{
closed = 1;
nodes = (
"603 680 LINE",
"613 680 LINE SMOOTH",
"624 680 OFFCURVE",
"645 678 OFFCURVE",
"675 674 CURVE SMOOTH",
"850 651 LINE",
"850 700 LINE",
"603 700 LINE"
);
},
{
closed = 1;
nodes = (
"853 0 LINE",
"853 49 LINE",
"676 26 LINE SMOOTH",
"646 22 OFFCURVE",
"625 20 OFFCURVE",
"613 20 CURVE SMOOTH",
"603 20 LINE",
"603 0 LINE"
);
}
);
};
components = (
{
name = E;
transform = "{1, 0, 0, 1, 415, 0}";
}
);
guideLines = (
{
angle = 90;
position = "{452, 0}";
},
{
position = "{0, 350}";
}
);
layerId = "879304B0-C0BD-4EE0-9B7F-878EED11B82D";
paths = (
{
closed = 1;
nodes = (
"80 142.634 OFFCURVE",
"236.45 -10 OFFCURVE {name = hr01;}",
"449 -10 CURVE SMOOTH",
"495 -10 OFFCURVE",
"546 -2.708 OFFCURVE",
"593 11 CURVE",
"589 30 LINE",
"542.226 18.774 OFFCURVE",
"492.667 12 OFFCURVE",
"452 12 CURVE SMOOTH",
"271.535 12 OFFCURVE",
"156 143.634 OFFCURVE",
"156 350 CURVE SMOOTH",
"156 555.557 OFFCURVE",
"272.115 688 OFFCURVE {name = hr02;}",
"452 688 CURVE SMOOTH",
"492.667 688 OFFCURVE",
"542.226 681.226 OFFCURVE",
"589 670 CURVE",
"593 689 LINE",
"546 702.708 OFFCURVE",
"495 710 OFFCURVE",
"449 710 CURVE SMOOTH",
"236.45 710 OFFCURVE",
"80 557.366 OFFCURVE",
"80 350 CURVE SMOOTH"
);
}
);
userData = {
com.fontlab.metricsLeft = O;
com.fontlab.metricsRight = E;
};
vertWidth = 0;
width = 933;
}
);
leftKerningGroup = O_C_G_Q;
unicode = "0152,0153";
},
{
color = (153,255,154,255);
glyphname = P;
lastChange = "2022-05-26 13:06:07 +0000";
layers = (
{
anchors = (
{
name = bottom;
position = "{285, 0}";
},
{
name = top;
position = "{285, 700}";
}
);
background = {
paths = (
{
closed = 1;
nodes = (
"255 310 LINE SMOOTH",
"416 310 OFFCURVE",
"510 382 OFFCURVE",
"510 505 CURVE SMOOTH",
"510 628 OFFCURVE",
"416 700 OFFCURVE",
"255 700 CURVE SMOOTH",
"161 700 LINE",
"161 676 LINE",
"255 676 LINE SMOOTH",
"376 676 OFFCURVE",
"438 619 OFFCURVE",
"438 505 CURVE SMOOTH",
"438 391 OFFCURVE",
"376 334 OFFCURVE",
"255 334 CURVE SMOOTH",
"161 334 LINE",
"161 310 LINE"
);
},
{
closed = 1;
nodes = (
"198 0 LINE",
"198 700 LINE",
"130 700 LINE",
"130 0 LINE"
);
}
);
};
guideLines = (
{
angle = 90;
position = "{255, 0}";
}
);
layerId = "879304B0-C0BD-4EE0-9B7F-878EED11B82D";
paths = (
{
closed = 1;
nodes = (
"255 310 LINE SMOOTH",
"416 310 OFFCURVE",
"510 382 OFFCURVE",
"510 505 CURVE SMOOTH",
"510 628 OFFCURVE",
"416 700 OFFCURVE",
"255 700 CURVE SMOOTH",
"161 700 LINE",
"161 676 LINE",
"255 676 LINE SMOOTH",
"376 676 OFFCURVE",
"438 619 OFFCURVE",
"438 505 CURVE SMOOTH",
"438 391 OFFCURVE",
"376 334 OFFCURVE",
"255 334 CURVE SMOOTH",
"161 334 LINE",
"161 310 LINE"
);
},
{
closed = 1;
nodes = (
"198 0 LINE",
"198 700 LINE",
"130 700 LINE",
"130 0 LINE"
);
}
);
userData = {
com.fontlab.metricsLeft = H;
com.fontlab.metricsRight = "B-10";
};
vertWidth = 0;
width = 570;
}
);
unicode = "0050,0070";
},
{
color = (153,255,154,255);
glyphname = Thorn;
lastChange = "2022-05-26 13:06:07 +0000";
layers = (
{
anchors = (
{
name = bottom;
position = "{285, 0}";
},
{
name = top;
position = "{285, 700}";
}
);
background = {
paths = (
{
closed = 1;
nodes = (
"255 164 LINE SMOOTH",
"416 164 OFFCURVE",
"510 236 OFFCURVE",
"510 359 CURVE SMOOTH",
"510 482 OFFCURVE",
"416 554 OFFCURVE",
"255 554 CURVE SMOOTH",
"161 554 LINE",
"161 530 LINE",
"255 530 LINE SMOOTH",
"376 530 OFFCURVE",
"438 473 OFFCURVE",
"438 359 CURVE SMOOTH",
"438 245 OFFCURVE",
"376 188 OFFCURVE",
"255 188 CURVE SMOOTH",
"161 188 LINE",
"161 164 LINE"
);
},
{
closed = 1;
nodes = (
"198 0 LINE",
"198 700 LINE",
"130 700 LINE",
"130 0 LINE"
);
}
);
};
layerId = "879304B0-C0BD-4EE0-9B7F-878EED11B82D";
paths = (
{
closed = 1;
nodes = (
"255 164 LINE SMOOTH",
"416 164 OFFCURVE",
"510 236 OFFCURVE",
"510 359 CURVE SMOOTH",
"510 482 OFFCURVE",
"416 554 OFFCURVE",
"255 554 CURVE SMOOTH",
"161 554 LINE",
"161 530 LINE",
"255 530 LINE SMOOTH",
"376 530 OFFCURVE",
"438 473 OFFCURVE",
"438 359 CURVE SMOOTH",
"438 245 OFFCURVE",
"376 188 OFFCURVE",
"255 188 CURVE SMOOTH",
"161 188 LINE",
"161 164 LINE"
);
},
{
closed = 1;
nodes = (
"198 0 LINE",
"198 700 LINE",
"130 700 LINE",
"130 0 LINE"
);
}
);
userData = {
com.fontlab.metricsLeft = H;
com.fontlab.metricsRight = P;
};
vertWidth = 0;
width = 570;
}
);
unicode = "00DE,00FE";
},
{
color = (153,255,154,255);
glyphname = Q;
lastChange = "2022-05-26 13:06:07 +0000";
layers = (
{
anchors = (
{
name = bottom;
position = "{444, 0}";
},
{
name = top;
position = "{444, 700}";
}
);
background = {
anchors = (
{
name = top;
position = "{444, 765}";
}
);
paths = (
{
closed = 1;
nodes = (
"444 -14 LINE",
"560 -14 LINE SMOOTH",
"651 -14 OFFCURVE",
"689 -72 OFFCURVE",
"724 -125 CURVE SMOOTH",
"753 -170 OFFCURVE",
"779 -211 OFFCURVE",
"857 -211 CURVE SMOOTH",
"904 -211 LINE",
"904 -205 LINE",
"852 -190 OFFCURVE",
"828 -158 OFFCURVE",
"787 -97 CURVE SMOOTH",
"736 -21 OFFCURVE",
"690 11 OFFCURVE",
"595 11 CURVE",
"595 18 LINE",
"422 2 LINE",
"419 -5 LINE"
);
},
{
closed = 1;
nodes = (
"80 144 OFFCURVE",
"238 -14 OFFCURVE",
"444 -14 CURVE SMOOTH",
"650 -14 OFFCURVE",
"808 144 OFFCURVE",
"808 350 CURVE SMOOTH",
"808 556 OFFCURVE",
"650 714 OFFCURVE",
"444 714 CURVE SMOOTH",
"238 714 OFFCURVE",
"80 556 OFFCURVE",
"80 350 CURVE SMOOTH"
);
},
{
closed = 1;
nodes = (
"156 553.014 OFFCURVE",
"272.448 690 OFFCURVE",
"444 690 CURVE SMOOTH",
"616.076 690 OFFCURVE",
"732 552.655 OFFCURVE",
"732 350 CURVE SMOOTH",
"732 147.025 OFFCURVE",
"616.357 10 OFFCURVE",
"444 10 CURVE SMOOTH",
"271.717 10 OFFCURVE",
"156 146.727 OFFCURVE",
"156 350 CURVE SMOOTH"
);
}
);
};
guideLines = (
{
angle = 90;
position = "{444, 0}";
},
{
angle = 90;
position = "{444, 0}";
},
{
angle = 90;
position = "{444, 0}";
},
{
position = "{0, 84}";
}
);
layerId = "879304B0-C0BD-4EE0-9B7F-878EED11B82D";
paths = (
{
closed = 1;
nodes = (
"444 -14 LINE",
"560 -14 LINE SMOOTH",
"651 -14 OFFCURVE",
"689 -72 OFFCURVE",
"724 -125 CURVE SMOOTH",
"753 -170 OFFCURVE",
"779 -211 OFFCURVE",
"857 -211 CURVE SMOOTH",
"904 -211 LINE",
"904 -205 LINE",
"852 -190 OFFCURVE",
"828 -158 OFFCURVE",
"787 -97 CURVE SMOOTH",
"736 -21 OFFCURVE",
"690 11 OFFCURVE",
"595 11 CURVE",
"595 18 LINE",
"422 2 LINE",
"419 -5 LINE"
);
},
{
closed = 1;
nodes = (
"80 144 OFFCURVE",
"238 -14 OFFCURVE",
"444 -14 CURVE SMOOTH",
"650 -14 OFFCURVE",
"808 144 OFFCURVE",
"808 350 CURVE SMOOTH",
"808 556 OFFCURVE",
"650 714 OFFCURVE",
"444 714 CURVE SMOOTH",
"238 714 OFFCURVE",
"80 556 OFFCURVE",
"80 350 CURVE SMOOTH"
);
},
{
closed = 1;
nodes = (
"156 553.014 OFFCURVE",
"272.448 690 OFFCURVE",
"444 690 CURVE SMOOTH",
"616.076 690 OFFCURVE",
"732 552.655 OFFCURVE",
"732 350 CURVE SMOOTH",
"732 147.025 OFFCURVE",
"616.357 10 OFFCURVE",
"444 10 CURVE SMOOTH",
"271.717 10 OFFCURVE",
"156 146.727 OFFCURVE",
"156 350 CURVE SMOOTH"
);
}
);
userData = {
com.fontlab.metricsLeft = O;
com.fontlab.metricsWidth = O;
};
vertWidth = 0;
width = 888;
}
);
leftKerningGroup = O_C_G_Q;
rightKerningGroup = D_O_Q;
unicode = "0051,0071";
},
{
color = (153,255,154,255);
glyphname = R;
lastChange = "2022-05-26 13:21:11 +0000";
layers = (
{
anchors = (
{
name = bottom;
position = "{370, 0}";
},
{
name = top;
position = "{282, 700}";
}
);
background = {
anchors = (
{
name = bottom;
position = "{368, 0}";
},
{
name = top;
position = "{285, 765}";
}
);
paths = (
{
closed = 1;
nodes = (
"130 0 LINE",
"198 0 LINE",
"198 676 LINE",
"264 676 LINE SMOOTH",
"365 676 OFFCURVE",
"415 627 OFFCURVE",
"415 530.043 CURVE SMOOTH",
"415 429.957 OFFCURVE",
"362 382 OFFCURVE",
"254 382 CURVE SMOOTH",
"248 382 LINE",
"248 364 LINE",
"253.788 364 LINE SMOOTH",
"345.431 364 OFFCURVE",
"409.814 311.655 OFFCURVE",
"447.686 175.223 CURVE SMOOTH",
"485.058 40.591 OFFCURVE",
"519 0 OFFCURVE",
"607 0 CURVE SMOOTH",
"648 0 LINE",
"648 6 LINE",
"586 19.528 OFFCURVE",
"554.282 51.386 OFFCURVE",
"515.964 183.795 CURVE SMOOTH",
"488.01 280.393 OFFCURVE",
"433.364 349 OFFCURVE",
"345 367 CURVE",
"345 373 LINE",
"437 391 OFFCURVE",
"487 448.194 OFFCURVE",
"487 531.436 CURVE SMOOTH",
"487 637.569 OFFCURVE",
"405 700 OFFCURVE",
"264 700 CURVE SMOOTH",
"130 700 LINE"
);
}
);
};
guideLines = (
{
angle = 90;
position = "{264, 0}";
}
);
layerId = "879304B0-C0BD-4EE0-9B7F-878EED11B82D";
paths = (
{
closed = 1;
nodes = (
"130 0 LINE",
"198 0 LINE",
"198 676 LINE",
"264 676 LINE SMOOTH",
"365 676 OFFCURVE",
"415 627 OFFCURVE",
"415 530.043 CURVE SMOOTH",
"415 429.957 OFFCURVE",
"362 382 OFFCURVE",
"254 382 CURVE SMOOTH",
"248 382 LINE",
"248 364 LINE",
"253.788 364 LINE SMOOTH",
"345.431 364 OFFCURVE",
"409.814 311.655 OFFCURVE",
"447.686 175.223 CURVE SMOOTH",
"485.058 40.591 OFFCURVE",
"519 0 OFFCURVE",
"607 0 CURVE SMOOTH",
"648 0 LINE",
"648 6 LINE",
"586 19.528 OFFCURVE",
"554.282 51.386 OFFCURVE",
"515.964 183.795 CURVE SMOOTH",
"488.01 280.393 OFFCURVE",
"433.364 349 OFFCURVE",
"345 367 CURVE",
"345 373 LINE",
"437 391 OFFCURVE",
"487 448.194 OFFCURVE",
"487 531.436 CURVE SMOOTH",
"487 637.569 OFFCURVE",
"405 700 OFFCURVE",
"264 700 CURVE SMOOTH",
"130 700 LINE"
);
}
);
userData = {
com.fontlab.metricsLeft = H;
};
vertWidth = 0;
width = 642;
}
);
rightKerningGroup = R_gr;
unicode = "0052,0072";
},
{
color = (255,153,253,255);
glyphname = Racute;
lastChange = "2022-05-26 13:21:06 +0000";
layers = (
{
background = {
anchors = (
{
name = bottom;
position = "{368, 0}";
},
{
name = top;
position = "{285, 765}";
}
);
paths = (
{
closed = 1;
nodes = (
"130 0 LINE",
"198 0 LINE",
"198 676 LINE",
"264 676 LINE SMOOTH",
"365 676 OFFCURVE",
"415 627 OFFCURVE",
"415 530.043 CURVE SMOOTH",
"415 429.957 OFFCURVE",
"362 382 OFFCURVE",
"254 382 CURVE SMOOTH",
"248 382 LINE",
"248 364 LINE",
"253.788 364 LINE SMOOTH",
"345.431 364 OFFCURVE",
"409.814 311.655 OFFCURVE",
"447.686 175.223 CURVE SMOOTH",
"485.058 40.591 OFFCURVE",
"519 0 OFFCURVE",
"607 0 CURVE SMOOTH",
"648 0 LINE",
"648 6 LINE",
"586 19.528 OFFCURVE",
"554.282 51.386 OFFCURVE",
"515.964 183.795 CURVE SMOOTH",
"488.01 280.393 OFFCURVE",
"433.364 349 OFFCURVE",
"345 367 CURVE",
"345 373 LINE",
"437 391 OFFCURVE",
"487 448.194 OFFCURVE",
"487 531.436 CURVE SMOOTH",
"487 637.569 OFFCURVE",
"405 700 OFFCURVE",
"264 700 CURVE SMOOTH",
"130 700 LINE"
);
},
{
closed = 1;
nodes = (
"239 763 LINE",
"413 891 LINE",
"413 897 LINE",
"323 897 LINE",
"226 775 LINE"
);
}
);
};
components = (
{
name = R;
},
{
name = acutecomb;
transform = "{1, 0, 0, 1, 191, 0}";
}
);
layerId = "879304B0-C0BD-4EE0-9B7F-878EED11B82D";
userData = {
com.fontlab.autolayer = 1;
com.fontlab.recipe = "R+acute";
};
width = 642;
}
);
rightKerningGroup = R_gr;
unicode = "0154,0155";
},
{
color = (255,153,253,255);
glyphname = Rcaron;
lastChange = "2022-05-26 13:21:06 +0000";
layers = (
{
background = {
anchors = (
{
name = bottom;
position = "{368, 0}";
},
{
name = top;
position = "{285, 765}";
}
);
paths = (
{
closed = 1;
nodes = (
"130 0 LINE",
"198 0 LINE",
"198 676 LINE",
"264 676 LINE SMOOTH",
"365 676 OFFCURVE",
"415 627 OFFCURVE",
"415 530.043 CURVE SMOOTH",
"415 429.957 OFFCURVE",
"362 382 OFFCURVE",
"254 382 CURVE SMOOTH",
"248 382 LINE",
"248 364 LINE",
"253.788 364 LINE SMOOTH",
"345.431 364 OFFCURVE",
"409.814 311.655 OFFCURVE",
"447.686 175.223 CURVE SMOOTH",
"485.058 40.591 OFFCURVE",
"519 0 OFFCURVE",
"607 0 CURVE SMOOTH",
"648 0 LINE",
"648 6 LINE",
"586 19.528 OFFCURVE",
"554.282 51.386 OFFCURVE",
"515.964 183.795 CURVE SMOOTH",
"488.01 280.393 OFFCURVE",
"433.364 349 OFFCURVE",
"345 367 CURVE",
"345 373 LINE",
"437 391 OFFCURVE",
"487 448.194 OFFCURVE",
"487 531.436 CURVE SMOOTH",
"487 637.569 OFFCURVE",
"405 700 OFFCURVE",
"264 700 CURVE SMOOTH",
"130 700 LINE"
);
},
{
closed = 1;
nodes = (
"298 775 LINE",
"419 905 LINE",
"406 917 LINE",
"285 837 LINE",
"164 917 LINE",
"151 905 LINE",
"272 775 LINE"
);
}
);
};
components = (
{
name = R;
},
{
name = caroncomb;
transform = "{1, 0, 0, 1, 78, 0}";
}
);
layerId = "879304B0-C0BD-4EE0-9B7F-878EED11B82D";
userData = {
com.fontlab.autolayer = 1;
com.fontlab.recipe = "R+caron";
};
width = 642;
}
);
rightKerningGroup = R_gr;
unicode = "0158,0159";
},
{
color = (255,153,253,255);
glyphname = Rcommaaccent;
lastChange = "2022-05-26 13:21:11 +0000";
layers = (
{
background = {
anchors = (
{
name = bottom;
position = "{368, 0}";
},
{
name = top;
position = "{285, 765}";
}
);
paths = (
{
closed = 1;
nodes = (
"130 0 LINE",
"198 0 LINE",
"198 676 LINE",
"264 676 LINE SMOOTH",
"365 676 OFFCURVE",
"415 627 OFFCURVE",
"415 530.043 CURVE SMOOTH",
"415 429.957 OFFCURVE",
"362 382 OFFCURVE",
"254 382 CURVE SMOOTH",
"248 382 LINE",
"248 364 LINE",
"253.788 364 LINE SMOOTH",
"345.431 364 OFFCURVE",
"409.814 311.655 OFFCURVE",
"447.686 175.223 CURVE SMOOTH",
"485.058 40.591 OFFCURVE",
"519 0 OFFCURVE",
"607 0 CURVE SMOOTH",
"648 0 LINE",
"648 6 LINE",
"586 19.528 OFFCURVE",
"554.282 51.386 OFFCURVE",
"515.964 183.795 CURVE SMOOTH",
"488.01 280.393 OFFCURVE",
"433.364 349 OFFCURVE",
"345 367 CURVE",
"345 373 LINE",
"437 391 OFFCURVE",
"487 448.194 OFFCURVE",
"487 531.436 CURVE SMOOTH",
"487 637.569 OFFCURVE",
"405 700 OFFCURVE",
"264 700 CURVE SMOOTH",
"130 700 LINE"
);
},
{
closed = 1;
nodes = (
"320 -73 OFFCURVE",
"340 -54 OFFCURVE",
"368 -54 CURVE SMOOTH",
"399 -54 OFFCURVE",
"417 -79 OFFCURVE",
"417 -124 CURVE SMOOTH",
"417 -174 OFFCURVE",
"395 -213 OFFCURVE",
"337 -256 CURVE",
"326 -242 LINE",
"375 -202 OFFCURVE",
"387 -174 OFFCURVE {name = hr01;}",
"387 -131 CURVE",
"381 -139 OFFCURVE",
"372 -143 OFFCURVE",
"361 -143 CURVE SMOOTH",
"336 -143 OFFCURVE",
"320 -124 OFFCURVE {name = hr02;}",
"320 -100 CURVE SMOOTH"
);
}
);
};
components = (
{
name = R;
},
{
name = commaaccentcomb;
transform = "{1, 0, 0, 1, 250, 0}";
}
);
layerId = "879304B0-C0BD-4EE0-9B7F-878EED11B82D";
userData = {
com.fontlab.autolayer = 1;
com.fontlab.recipe = "R+commaaccentcomb";
};
width = 642;
}
);
rightKerningGroup = R_gr;
unicode = "0156,0157";
},
{
color = (153,255,154,255);
glyphname = S;
lastChange = "2022-05-26 13:21:16 +0000";
layers = (
{
anchors = (
{
name = bottom;
position = "{272, 0}";
},
{
name = top;
position = "{281, 700}";
}
);
background = {
anchors = (
{
name = bottom;
position = "{268, 0}";
},
{
name = top;
position = "{281, 765}";
}
);
paths = (
{
closed = 1;
nodes = (
"134.731 0 OFFCURVE",
"212 -14 OFFCURVE",
"266 -14 CURVE SMOOTH",
"392 -14 OFFCURVE",
"476 63 OFFCURVE",
"476 175 CURVE SMOOTH",
"476 296 OFFCURVE",
"380.088 349.906 OFFCURVE",
"291.2 401 CURVE SMOOTH",
"213.076 445.906 OFFCURVE",
"141 488 OFFCURVE",
"141 570 CURVE SMOOTH",
"141 643 OFFCURVE",
"197 690 OFFCURVE",
"283 690 CURVE SMOOTH",
"340 690 OFFCURVE",
"391 669 OFFCURVE",
"429 628 CURVE",
"435 628 LINE",
"440 684 LINE",
"406 701 OFFCURVE",
"336 714 OFFCURVE",
"283 714 CURVE SMOOTH",
"163 714 OFFCURVE",
"83 646 OFFCURVE",
"83 545 CURVE SMOOTH",
"83 442 OFFCURVE",
"169.031 391.099 OFFCURVE",
"253.959 341 CURVE SMOOTH",
"377.541 268.099 OFFCURVE",
"418 217 OFFCURVE",
"418 148 CURVE SMOOTH",
"418 64 OFFCURVE",
"357 10 OFFCURVE",
"266 10 CURVE SMOOTH",
"202 10 OFFCURVE",
"132.731 36 OFFCURVE",
"81 82 CURVE",
"75 82 LINE",
"69 22 LINE"
);
}
);
};
guideLines = (
{
angle = 90;
position = "{283, 0}";
},
{
angle = 90;
position = "{476, 0}";
},
{
angle = 90;
position = "{75, 0}";
}
);
layerId = "879304B0-C0BD-4EE0-9B7F-878EED11B82D";
paths = (
{
closed = 1;
nodes = (
"134.731 0 OFFCURVE",
"212 -14 OFFCURVE",
"266 -14 CURVE SMOOTH",
"392 -14 OFFCURVE",
"476 63 OFFCURVE",
"476 175 CURVE SMOOTH",
"476 296 OFFCURVE",
"380.088 349.906 OFFCURVE",
"291.2 401 CURVE SMOOTH",
"213.076 445.906 OFFCURVE",
"141 488 OFFCURVE",
"141 570 CURVE SMOOTH",
"141 643 OFFCURVE",
"197 690 OFFCURVE",
"283 690 CURVE SMOOTH",
"340 690 OFFCURVE",
"391 669 OFFCURVE",
"429 628 CURVE",
"435 628 LINE",
"440 684 LINE",
"406 701 OFFCURVE",
"336 714 OFFCURVE",
"283 714 CURVE SMOOTH",
"163 714 OFFCURVE",
"83 646 OFFCURVE",
"83 545 CURVE SMOOTH",
"83 442 OFFCURVE",
"169.031 391.099 OFFCURVE",
"253.959 341 CURVE SMOOTH",
"377.541 268.099 OFFCURVE",
"418 217 OFFCURVE",
"418 148 CURVE SMOOTH",
"418 64 OFFCURVE",
"357 10 OFFCURVE",
"266 10 CURVE SMOOTH",
"202 10 OFFCURVE",
"132.731 36 OFFCURVE",
"81 82 CURVE",
"75 82 LINE",
"69 22 LINE"
);
}
);
vertWidth = 0;
width = 543;
}
);
leftKerningGroup = S_gr;
rightKerningGroup = S_gr;
unicode = "0053,0073";
},
{
color = (255,153,253,255);
glyphname = Sacute;
lastChange = "2022-05-26 13:21:16 +0000";
layers = (
{
background = {
anchors = (
{
name = bottom;
position = "{268, 0}";
},
{
name = top;
position = "{281, 765}";
}
);
paths = (
{
closed = 1;
nodes = (
"134.731 0 OFFCURVE",
"212 -14 OFFCURVE",
"266 -14 CURVE SMOOTH",
"392 -14 OFFCURVE",
"476 63 OFFCURVE",
"476 175 CURVE SMOOTH",
"476 296 OFFCURVE",
"380.088 349.906 OFFCURVE",
"291.2 401 CURVE SMOOTH",
"213.076 445.906 OFFCURVE",
"141 488 OFFCURVE",
"141 570 CURVE SMOOTH",
"141 643 OFFCURVE",
"197 690 OFFCURVE",
"283 690 CURVE SMOOTH",
"340 690 OFFCURVE",
"391 669 OFFCURVE",
"429 628 CURVE",
"435 628 LINE",
"440 684 LINE",
"406 701 OFFCURVE",
"336 714 OFFCURVE",
"283 714 CURVE SMOOTH",
"163 714 OFFCURVE",
"83 646 OFFCURVE",
"83 545 CURVE SMOOTH",
"83 442 OFFCURVE",
"169.031 391.099 OFFCURVE",
"253.959 341 CURVE SMOOTH",
"377.541 268.099 OFFCURVE",
"418 217 OFFCURVE",
"418 148 CURVE SMOOTH",
"418 64 OFFCURVE",
"357 10 OFFCURVE",
"266 10 CURVE SMOOTH",
"202 10 OFFCURVE",
"132.731 36 OFFCURVE",
"81 82 CURVE",
"75 82 LINE",
"69 22 LINE"
);
},
{
closed = 1;
nodes = (
"235 763 LINE",
"409 891 LINE",
"409 897 LINE",
"319 897 LINE",
"222 775 LINE"
);
}
);
};
components = (
{
name = S;
},
{
name = acutecomb;
transform = "{1, 0, 0, 1, 190, 0}";
}
);
layerId = "879304B0-C0BD-4EE0-9B7F-878EED11B82D";
userData = {
com.fontlab.autolayer = 1;
com.fontlab.recipe = "S+acute";
};
width = 543;
}
);
leftKerningGroup = S_gr;
rightKerningGroup = S_gr;
unicode = "015A,015B";
},
{
color = (255,153,253,255);
glyphname = Scaron;
lastChange = "2022-05-26 13:21:16 +0000";
layers = (
{
background = {
anchors = (
{
name = bottom;
position = "{268, 0}";
},
{
name = top;
position = "{281, 765}";
}
);
paths = (
{
closed = 1;
nodes = (
"134.731 0 OFFCURVE",
"212 -14 OFFCURVE",
"266 -14 CURVE SMOOTH",
"392 -14 OFFCURVE",
"476 63 OFFCURVE",
"476 175 CURVE SMOOTH",
"476 296 OFFCURVE",
"380.088 349.906 OFFCURVE",
"291.2 401 CURVE SMOOTH",
"213.076 445.906 OFFCURVE",
"141 488 OFFCURVE",
"141 570 CURVE SMOOTH",
"141 643 OFFCURVE",
"197 690 OFFCURVE",
"283 690 CURVE SMOOTH",
"340 690 OFFCURVE",
"391 669 OFFCURVE",
"429 628 CURVE",
"435 628 LINE",
"440 684 LINE",
"406 701 OFFCURVE",
"336 714 OFFCURVE",
"283 714 CURVE SMOOTH",
"163 714 OFFCURVE",
"83 646 OFFCURVE",
"83 545 CURVE SMOOTH",
"83 442 OFFCURVE",
"169.031 391.099 OFFCURVE",
"253.959 341 CURVE SMOOTH",
"377.541 268.099 OFFCURVE",
"418 217 OFFCURVE",
"418 148 CURVE SMOOTH",
"418 64 OFFCURVE",
"357 10 OFFCURVE",
"266 10 CURVE SMOOTH",
"202 10 OFFCURVE",
"132.731 36 OFFCURVE",
"81 82 CURVE",
"75 82 LINE",
"69 22 LINE"
);
},
{
closed = 1;
nodes = (
"294 775 LINE",
"415 905 LINE",
"402 917 LINE",
"281 837 LINE",
"160 917 LINE",
"147 905 LINE",
"268 775 LINE"
);
}
);
};
components = (
{
name = S;
},
{
name = caroncomb;
transform = "{1, 0, 0, 1, 77, 0}";
}
);
layerId = "879304B0-C0BD-4EE0-9B7F-878EED11B82D";
userData = {
com.fontlab.autolayer = 1;
com.fontlab.recipe = "S+caron";
};
width = 543;
}
);
leftKerningGroup = S_gr;
rightKerningGroup = S_gr;
unicode = "0160,0161";
},
{
color = (255,153,253,255);
glyphname = Scedilla;
lastChange = "2022-05-26 13:09:29 +0000";
layers = (
{
background = {
anchors = (
{
name = bottom;
position = "{268, 0}";
},
{
name = top;
position = "{281, 765}";
}
);
paths = (
{
closed = 1;
nodes = (
"134.731 0 OFFCURVE",
"212 -14 OFFCURVE",
"266 -14 CURVE SMOOTH",
"392 -14 OFFCURVE",
"476 63 OFFCURVE",
"476 175 CURVE SMOOTH",
"476 296 OFFCURVE",
"380.088 349.906 OFFCURVE",
"291.2 401 CURVE SMOOTH",
"213.076 445.906 OFFCURVE",
"141 488 OFFCURVE",
"141 570 CURVE SMOOTH",
"141 643 OFFCURVE",
"197 690 OFFCURVE",
"283 690 CURVE SMOOTH",
"340 690 OFFCURVE",
"391 669 OFFCURVE",
"429 628 CURVE",
"435 628 LINE",
"440 684 LINE",
"406 701 OFFCURVE",
"336 714 OFFCURVE",
"283 714 CURVE SMOOTH",
"163 714 OFFCURVE",
"83 646 OFFCURVE",
"83 545 CURVE SMOOTH",
"83 442 OFFCURVE",
"169.031 391.099 OFFCURVE",
"253.959 341 CURVE SMOOTH",
"377.541 268.099 OFFCURVE",
"418 217 OFFCURVE",
"418 148 CURVE SMOOTH",
"418 64 OFFCURVE",
"357 10 OFFCURVE",
"266 10 CURVE SMOOTH",
"202 10 OFFCURVE",
"132.731 36 OFFCURVE",
"81 82 CURVE",
"75 82 LINE",
"69 22 LINE"
);
},
{
closed = 1;
nodes = (
"272 -84 OFFCURVE",
"295 -107 OFFCURVE",
"295 -142 CURVE SMOOTH",
"295 -175 OFFCURVE",
"274 -196 OFFCURVE",
"239 -196 CURVE SMOOTH",
"226 -196 OFFCURVE",
"208 -193 OFFCURVE",
"190 -187 CURVE",
"185 -204 LINE",
"222 -216 OFFCURVE",
"239 -220 OFFCURVE",
"259 -220 CURVE SMOOTH",
"318 -220 OFFCURVE",
"355 -187 OFFCURVE",
"355 -136 CURVE SMOOTH",
"355 -90 OFFCURVE",
"324 -64 OFFCURVE",
"261 -52 CURVE",
"283 4 LINE",
"261 4 LINE",
"229 -76 LINE"
);
}
);
};
components = (
{
name = S;
},
{
name = cedillacomb;
transform = "{1, 0, 0, 1, 136, 0}";
}
);
layerId = "879304B0-C0BD-4EE0-9B7F-878EED11B82D";
userData = {
com.fontlab.autolayer = 1;
};
width = 543;
}
);
leftKerningGroup = S_gr;
rightKerningGroup = S_gr;
unicode = "015E,015F";
},
{
color = (255,153,253,255);
glyphname = Scircumflex;
lastChange = "2022-05-26 13:21:16 +0000";
layers = (
{
background = {
anchors = (
{
name = bottom;
position = "{268, 0}";
},
{
name = top;
position = "{281, 765}";
}
);
paths = (
{
closed = 1;
nodes = (
"134.731 0 OFFCURVE",
"212 -14 OFFCURVE",
"266 -14 CURVE SMOOTH",
"392 -14 OFFCURVE",
"476 63 OFFCURVE",
"476 175 CURVE SMOOTH",
"476 296 OFFCURVE",
"380.088 349.906 OFFCURVE",
"291.2 401 CURVE SMOOTH",
"213.076 445.906 OFFCURVE",
"141 488 OFFCURVE",
"141 570 CURVE SMOOTH",
"141 643 OFFCURVE",
"197 690 OFFCURVE",
"283 690 CURVE SMOOTH",
"340 690 OFFCURVE",
"391 669 OFFCURVE",
"429 628 CURVE",
"435 628 LINE",
"440 684 LINE",
"406 701 OFFCURVE",
"336 714 OFFCURVE",
"283 714 CURVE SMOOTH",
"163 714 OFFCURVE",
"83 646 OFFCURVE",
"83 545 CURVE SMOOTH",
"83 442 OFFCURVE",
"169.031 391.099 OFFCURVE",
"253.959 341 CURVE SMOOTH",
"377.541 268.099 OFFCURVE",
"418 217 OFFCURVE",
"418 148 CURVE SMOOTH",
"418 64 OFFCURVE",
"357 10 OFFCURVE",
"266 10 CURVE SMOOTH",
"202 10 OFFCURVE",
"132.731 36 OFFCURVE",
"81 82 CURVE",
"75 82 LINE",
"69 22 LINE"
);
},
{
closed = 1;
nodes = (
"268 905 LINE",
"147 775 LINE",
"160 763 LINE",
"281 843 LINE",
"402 763 LINE",
"415 775 LINE",
"294 905 LINE"
);
}
);
};
components = (
{
name = S;
},
{
name = circumflexcomb;
transform = "{1, 0, 0, 1, 77, 0}";
}
);
layerId = "879304B0-C0BD-4EE0-9B7F-878EED11B82D";
userData = {
com.fontlab.autolayer = 1;
com.fontlab.recipe = "S+circumflex";
};
width = 543;
}
);
leftKerningGroup = S_gr;
rightKerningGroup = S_gr;
unicode = "015C,015D";
},
{
color = (255,153,253,255);
glyphname = Scommaaccent;
lastChange = "2022-05-26 13:09:29 +0000";
layers = (
{
background = {
anchors = (
{
name = bottom;
position = "{268, 0}";
},
{
name = top;
position = "{281, 765}";
}
);
paths = (
{
closed = 1;
nodes = (
"134.731 0 OFFCURVE",
"212 -14 OFFCURVE",
"266 -14 CURVE SMOOTH",
"392 -14 OFFCURVE",
"476 63 OFFCURVE",
"476 175 CURVE SMOOTH",
"476 296 OFFCURVE",
"380.088 349.906 OFFCURVE",
"291.2 401 CURVE SMOOTH",
"213.076 445.906 OFFCURVE",
"141 488 OFFCURVE",
"141 570 CURVE SMOOTH",
"141 643 OFFCURVE",
"197 690 OFFCURVE",
"283 690 CURVE SMOOTH",
"340 690 OFFCURVE",
"391 669 OFFCURVE",
"429 628 CURVE",
"435 628 LINE",
"440 684 LINE",
"406 701 OFFCURVE",
"336 714 OFFCURVE",
"283 714 CURVE SMOOTH",
"163 714 OFFCURVE",
"83 646 OFFCURVE",
"83 545 CURVE SMOOTH",
"83 442 OFFCURVE",
"169.031 391.099 OFFCURVE",
"253.959 341 CURVE SMOOTH",
"377.541 268.099 OFFCURVE",
"418 217 OFFCURVE",
"418 148 CURVE SMOOTH",
"418 64 OFFCURVE",
"357 10 OFFCURVE",
"266 10 CURVE SMOOTH",
"202 10 OFFCURVE",
"132.731 36 OFFCURVE",
"81 82 CURVE",
"75 82 LINE",
"69 22 LINE"
);
},
{
closed = 1;
nodes = (
"220 -73 OFFCURVE",
"240 -54 OFFCURVE",
"268 -54 CURVE SMOOTH",
"299 -54 OFFCURVE",
"317 -79 OFFCURVE",
"317 -124 CURVE SMOOTH",
"317 -174 OFFCURVE",
"295 -213 OFFCURVE",
"237 -256 CURVE",
"226 -242 LINE",
"275 -202 OFFCURVE",
"287 -174 OFFCURVE {name = hr01;}",
"287 -131 CURVE",
"281 -139 OFFCURVE",
"272 -143 OFFCURVE",
"261 -143 CURVE SMOOTH",
"236 -143 OFFCURVE",
"220 -124 OFFCURVE {name = hr02;}",
"220 -100 CURVE SMOOTH"
);
}
);
};
components = (
{
name = S;
},
{
name = commaaccentcomb;
transform = "{1, 0, 0, 1, 152, 0}";
}
);
layerId = "879304B0-C0BD-4EE0-9B7F-878EED11B82D";
userData = {
com.fontlab.autolayer = 1;
com.fontlab.recipe = "S+commaaccentcomb";
};
width = 543;
}
);
leftKerningGroup = S_gr;
rightKerningGroup = S_gr;
unicode = "0218,0219";
},
{
color = (255,153,253,255);
glyphname = Germandbls;
lastChange = "2022-05-26 13:35:29 +0000";
layers = (
{
anchors = (
{
name = bottom;
position = "{370, 0}";
},
{
name = top;
position = "{370, 700}";
}
);
background = {
paths = (
{
closed = 1;
nodes = (
"188 0 LINE",
"188 426 LINE SMOOTH",
"188 587 OFFCURVE",
"268 692 OFFCURVE",
"390 692 CURVE SMOOTH",
"452.148 692 OFFCURVE",
"505.167 664.092 OFFCURVE",
"528.282 621.815 CURVE",
"356 381 LINE",
"365 363 LINE",
"396 363 LINE SMOOTH",
"526 363 OFFCURVE",
"595 299 OFFCURVE",
"595 181 CURVE SMOOTH",
"595 79 OFFCURVE",
"537 8 OFFCURVE {name = hr01;}",
"451 8 CURVE SMOOTH",
"402 8 OFFCURVE",
"341 31 OFFCURVE",
"299 79 CURVE",
"293 79 LINE",
"287 22 LINE",
"330 0 OFFCURVE {name = hr02;}",
"396 -14 OFFCURVE {name = hr03;}",
"451 -14 CURVE SMOOTH",
"582 -14 OFFCURVE",
"669 66 OFFCURVE",
"669 181 CURVE SMOOTH",
"669 300.874 OFFCURVE",
"580.298 377.302 OFFCURVE",
"437.338 384.45 CURVE",
"605.539 619.56 LINE",
"605.764 619.875 LINE",
"605.693 619.981 OFFCURVE",
"605.621 620.088 OFFCURVE",
"605.549 620.194 CURVE",
"565.712 679.276 OFFCURVE",
"481.701 714 OFFCURVE",
"390 714 CURVE SMOOTH",
"225 714 OFFCURVE",
"120 601 OFFCURVE",
"120 420 CURVE SMOOTH",
"120 0 LINE {name = hr04;}"
);
}
);
};
guideLines = (
{
position = "{0, 621}";
}
);
layerId = "879304B0-C0BD-4EE0-9B7F-878EED11B82D";
paths = (
{
closed = 1;
nodes = (
"188 0 LINE",
"188 426 LINE SMOOTH",
"188 587 OFFCURVE",
"268 692 OFFCURVE",
"390 692 CURVE SMOOTH",
"452.148 692 OFFCURVE",
"505.167 664.092 OFFCURVE",
"528.282 621.815 CURVE",
"356 381 LINE",
"365 363 LINE",
"396 363 LINE SMOOTH",
"526 363 OFFCURVE",
"595 299 OFFCURVE",
"595 181 CURVE SMOOTH",
"595 79 OFFCURVE",
"537 8 OFFCURVE {name = hr01;}",
"451 8 CURVE SMOOTH",
"402 8 OFFCURVE",
"341 31 OFFCURVE",
"299 79 CURVE",
"293 79 LINE",
"287 22 LINE",
"330 0 OFFCURVE {name = hr02;}",
"396 -14 OFFCURVE {name = hr03;}",
"451 -14 CURVE SMOOTH",
"582 -14 OFFCURVE",
"669 66 OFFCURVE",
"669 181 CURVE SMOOTH",
"669 300.874 OFFCURVE",
"580.298 377.302 OFFCURVE",
"437.338 384.45 CURVE",
"605.764 619.875 LINE",
"565.712 679.276 OFFCURVE",
"481.701 714 OFFCURVE",
"390 714 CURVE SMOOTH",
"225 714 OFFCURVE",
"120 601 OFFCURVE",
"120 420 CURVE SMOOTH",
"120 0 LINE {name = hr04;}"
);
}
);
userData = {
com.fontlab.metricsLeft = U;
com.fontlab.metricsRight = B;
};
vertWidth = 0;
width = 739;
}
);
unicode = "1E9E,00DF";
},
{
color = (153,255,154,255);
glyphname = T;
lastChange = "2022-05-26 13:06:07 +0000";
layers = (
{
anchors = (
{
name = bottom;
position = "{324, 0}";
},
{
name = center;
position = "{324, 350}";
},
{
name = top;
position = "{324, 700}";
}
);
background = {
anchors = (
{
name = bottom;
position = "{324, 0}";
},
{
name = top;
position = "{324, 765}";
}
);
paths = (
{
closed = 1;
nodes = (
"358 0 LINE",
"358 700 LINE",
"290 700 LINE",
"290 0 LINE"
);
},
{
closed = 1;
nodes = (
"348 680 LINE",
"358 680 LINE SMOOTH",
"367.973 680 OFFCURVE",
"388.64 678 OFFCURVE",
"420 674 CURVE SMOOTH",
"616 649 LINE",
"616 700 LINE",
"348 700 LINE"
);
},
{
closed = 1;
nodes = (
"32.448 700 LINE",
"32.448 649 LINE",
"228.448 674 LINE SMOOTH",
"259.808 678 OFFCURVE",
"280.475 680 OFFCURVE",
"290.448 680 CURVE SMOOTH",
"300.448 680 LINE",
"300.448 700 LINE"
);
}
);
};
layerId = "879304B0-C0BD-4EE0-9B7F-878EED11B82D";
paths = (
{
closed = 1;
nodes = (
"358 0 LINE",
"358 700 LINE",
"290 700 LINE",
"290 0 LINE"
);
},
{
closed = 1;
nodes = (
"348 680 LINE",
"358 680 LINE SMOOTH",
"367.973 680 OFFCURVE",
"388.64 678 OFFCURVE",
"420 674 CURVE SMOOTH",
"616 649 LINE",
"616 700 LINE",
"348 700 LINE"
);
},
{
closed = 1;
nodes = (
"32.448 700 LINE",
"32.448 649 LINE",
"228.448 674 LINE SMOOTH",
"259.808 678 OFFCURVE",
"280.475 680 OFFCURVE",
"290.448 680 CURVE SMOOTH",
"300.448 680 LINE",
"300.448 700 LINE"
);
}
);
vertWidth = 0;
width = 648;
}
);
leftKerningGroup = T_gr;
rightKerningGroup = T_gr;
unicode = "0054,0074";
},
{
color = (255,153,253,255);
glyphname = Tbar;
lastChange = "2022-05-26 13:05:44 +0000";
layers = (
{
background = {
anchors = (
{
name = bottom;
position = "{324, 0}";
},
{
name = top;
position = "{324, 765}";
}
);
paths = (
{
closed = 1;
nodes = (
"491 352 LINE",
"491 376 LINE",
"157 376 LINE",
"157 352 LINE"
);
},
{
closed = 1;
nodes = (
"358 0 LINE",
"358 700 LINE",
"290 700 LINE",
"290 0 LINE"
);
},
{
closed = 1;
nodes = (
"348 680 LINE",
"358 680 LINE SMOOTH",
"367.973 680 OFFCURVE",
"388.64 678 OFFCURVE",
"420 674 CURVE SMOOTH",
"616 649 LINE",
"616 700 LINE",
"348 700 LINE"
);
},
{
closed = 1;
nodes = (
"32.448 700 LINE",
"32.448 649 LINE",
"228.448 674 LINE SMOOTH",
"259.808 678 OFFCURVE",
"280.475 680 OFFCURVE",
"290.448 680 CURVE SMOOTH",
"300.448 680 LINE",
"300.448 700 LINE"
);
}
);
};
components = (
{
name = T;
}
);
guideLines = (
{
angle = 90;
position = "{324, 0}";
}
);
layerId = "879304B0-C0BD-4EE0-9B7F-878EED11B82D";
paths = (
{
closed = 1;
nodes = (
"491 352 LINE",
"491 376 LINE",
"157 376 LINE",
"157 352 LINE"
);
}
);
userData = {
com.fontlab.metricsLeft = T;
com.fontlab.metricsRight = T;
};
vertWidth = 0;
width = 648;
}
);
leftKerningGroup = T_gr;
rightKerningGroup = T_gr;
unicode = "0166,0167";
},
{
color = (255,153,253,255);
glyphname = Tcaron;
lastChange = "2022-05-26 13:10:59 +0000";
layers = (
{
background = {
anchors = (
{
name = bottom;
position = "{324, 0}";
},
{
name = top;
position = "{324, 765}";
}
);
paths = (
{
closed = 1;
nodes = (
"358 0 LINE",
"358 700 LINE",
"290 700 LINE",
"290 0 LINE"
);
},
{
closed = 1;
nodes = (
"348 680 LINE",
"358 680 LINE SMOOTH",
"367.973 680 OFFCURVE",
"388.64 678 OFFCURVE",
"420 674 CURVE SMOOTH",
"616 649 LINE",
"616 700 LINE",
"348 700 LINE"
);
},
{
closed = 1;
nodes = (
"32.448 700 LINE",
"32.448 649 LINE",
"228.448 674 LINE SMOOTH",
"259.808 678 OFFCURVE",
"280.475 680 OFFCURVE",
"290.448 680 CURVE SMOOTH",
"300.448 680 LINE",
"300.448 700 LINE"
);
},
{
closed = 1;
nodes = (
"337 775 LINE",
"458 905 LINE",
"445 917 LINE",
"324 837 LINE",
"203 917 LINE",
"190 905 LINE",
"311 775 LINE"
);
}
);
};
components = (
{
name = T;
},
{
name = caroncomb;
transform = "{1, 0, 0, 1, 120, 0}";
}
);
layerId = "879304B0-C0BD-4EE0-9B7F-878EED11B82D";
userData = {
com.fontlab.autolayer = 1;
com.fontlab.recipe = "T+caron";
};
width = 648;
}
);
leftKerningGroup = T_gr;
rightKerningGroup = T_gr;
unicode = "0164,0165";
},
{
color = (255,153,253,255);
glyphname = Tcedilla;
lastChange = "2022-05-26 13:09:29 +0000";
layers = (
{
background = {
anchors = (
{
name = bottom;
position = "{324, 0}";
},
{
name = top;
position = "{324, 765}";
}
);
paths = (
{
closed = 1;
nodes = (
"358 0 LINE",
"358 700 LINE",
"290 700 LINE",
"290 0 LINE"
);
},
{
closed = 1;
nodes = (
"348 680 LINE",
"358 680 LINE SMOOTH",
"367.973 680 OFFCURVE",
"388.64 678 OFFCURVE",
"420 674 CURVE SMOOTH",
"616 649 LINE",
"616 700 LINE",
"348 700 LINE"
);
},
{
closed = 1;
nodes = (
"32.448 700 LINE",
"32.448 649 LINE",
"228.448 674 LINE SMOOTH",
"259.808 678 OFFCURVE",
"280.475 680 OFFCURVE",
"290.448 680 CURVE SMOOTH",
"300.448 680 LINE",
"300.448 700 LINE"
);
},
{
closed = 1;
nodes = (
"328 -84 OFFCURVE",
"351 -107 OFFCURVE",
"351 -142 CURVE SMOOTH",
"351 -175 OFFCURVE",
"330 -196 OFFCURVE",
"295 -196 CURVE SMOOTH",
"282 -196 OFFCURVE",
"264 -193 OFFCURVE",
"246 -187 CURVE",
"241 -204 LINE",
"278 -216 OFFCURVE",
"295 -220 OFFCURVE",
"315 -220 CURVE SMOOTH",
"374 -220 OFFCURVE",
"411 -187 OFFCURVE",
"411 -136 CURVE SMOOTH",
"411 -90 OFFCURVE",
"380 -64 OFFCURVE",
"317 -52 CURVE",
"339 4 LINE",
"317 4 LINE",
"285 -76 LINE"
);
}
);
};
components = (
{
name = T;
},
{
name = cedillacomb;
transform = "{1, 0, 0, 1, 188, 0}";
}
);
layerId = "879304B0-C0BD-4EE0-9B7F-878EED11B82D";
userData = {
com.fontlab.autolayer = 1;
com.fontlab.recipe = "T+cedilla";
};
width = 648;
}
);
leftKerningGroup = T_gr;
rightKerningGroup = T_gr;
unicode = "0162,0163";
},
{
color = (255,153,253,255);
glyphname = Tcommaaccent;
lastChange = "2022-05-26 13:09:29 +0000";
layers = (
{
background = {
anchors = (
{
name = bottom;
position = "{324, 0}";
},
{
name = top;
position = "{324, 765}";
}
);
paths = (
{
closed = 1;
nodes = (
"358 0 LINE",
"358 700 LINE",
"290 700 LINE",
"290 0 LINE"
);
},
{
closed = 1;
nodes = (
"348 680 LINE",
"358 680 LINE SMOOTH",
"367.973 680 OFFCURVE",
"388.64 678 OFFCURVE",
"420 674 CURVE SMOOTH",
"616 649 LINE",
"616 700 LINE",
"348 700 LINE"
);
},
{
closed = 1;
nodes = (
"32.448 700 LINE",
"32.448 649 LINE",
"228.448 674 LINE SMOOTH",
"259.808 678 OFFCURVE",
"280.475 680 OFFCURVE",
"290.448 680 CURVE SMOOTH",
"300.448 680 LINE",
"300.448 700 LINE"
);
},
{
closed = 1;
nodes = (
"276 -73 OFFCURVE",
"296 -54 OFFCURVE",
"324 -54 CURVE SMOOTH",
"355 -54 OFFCURVE",
"373 -79 OFFCURVE",
"373 -124 CURVE SMOOTH",
"373 -174 OFFCURVE",
"351 -213 OFFCURVE",
"293 -256 CURVE",
"282 -242 LINE",
"331 -202 OFFCURVE",
"343 -174 OFFCURVE {name = hr01;}",
"343 -131 CURVE",
"337 -139 OFFCURVE",
"328 -143 OFFCURVE",
"317 -143 CURVE SMOOTH",
"292 -143 OFFCURVE",
"276 -124 OFFCURVE {name = hr02;}",
"276 -100 CURVE SMOOTH"
);
}
);
};
components = (
{
name = T;
},
{
name = commaaccentcomb;
transform = "{1, 0, 0, 1, 204, 0}";
}
);
layerId = "879304B0-C0BD-4EE0-9B7F-878EED11B82D";
userData = {
com.fontlab.autolayer = 1;
com.fontlab.recipe = "T+commaaccentcomb";
};
width = 648;
}
);
leftKerningGroup = T_gr;
rightKerningGroup = T_gr;
unicode = "021A,021B";
},
{
color = (153,255,154,255);
glyphname = U;
lastChange = "2022-05-26 13:21:37 +0000";
layers = (
{
anchors = (
{
name = bottom;
position = "{399, 0}";
},
{
name = ogonek;
position = "{449, 0}";
},
{
name = top;
position = "{403, 700}";
},
{
name = topright;
position = "{778, 700}";
}
);
background = {
anchors = (
{
name = bottom;
position = "{436, 0}";
},
{
name = top;
position = "{404, 765}";
}
);
paths = (
{
closed = 1;
nodes = (
"120 280 LINE SMOOTH",
"120 97 OFFCURVE",
"226.965 -14 OFFCURVE",
"406.626 -14 CURVE SMOOTH",
"573.824 -14 OFFCURVE",
"665.212 69.992 OFFCURVE",
"671 230 CURVE SMOOTH",
"688 700 LINE",
"620 700 LINE",
"637 230 LINE SMOOTH",
"641.411 108.057 OFFCURVE",
"550 22 OFFCURVE",
"415 22 CURVE SMOOTH",
"271 22 OFFCURVE",
"188 117 OFFCURVE",
"188 278 CURVE SMOOTH",
"188 700 LINE",
"120 700 LINE"
);
}
);
};
guideLines = (
{
angle = 90;
position = "{120, 0}";
},
{
position = "{0, 280}";
},
{
angle = 90;
position = "{404, 0}";
},
{
position = "{0, 424}";
}
);
layerId = "879304B0-C0BD-4EE0-9B7F-878EED11B82D";
paths = (
{
closed = 1;
nodes = (
"120 280 LINE SMOOTH",
"120 97 OFFCURVE",
"226.965 -14 OFFCURVE",
"406.626 -14 CURVE SMOOTH",
"573.824 -14 OFFCURVE",
"665.212 69.992 OFFCURVE",
"671 230 CURVE SMOOTH",
"688 700 LINE",
"620 700 LINE",
"637 230 LINE SMOOTH",
"641.411 108.057 OFFCURVE",
"550 22 OFFCURVE",
"415 22 CURVE SMOOTH",
"271 22 OFFCURVE",
"188 117 OFFCURVE",
"188 278 CURVE SMOOTH",
"188 700 LINE",
"120 700 LINE"
);
}
);
userData = {
com.fontlab.metricsRight = "N-5";
};
vertWidth = 0;
width = 798;
}
);
leftKerningGroup = U_gr;
rightKerningGroup = U_gr;
unicode = "0055,0075";
},
{
color = (255,153,253,255);
glyphname = Uacute;
lastChange = "2022-05-26 13:21:31 +0000";
layers = (
{
background = {
anchors = (
{
name = bottom;
position = "{436, 0}";
},
{
name = top;
position = "{404, 765}";
}
);
paths = (
{
closed = 1;
nodes = (
"120 280 LINE SMOOTH",
"120 97 OFFCURVE",
"226.965 -14 OFFCURVE",
"406.626 -14 CURVE SMOOTH",
"573.824 -14 OFFCURVE",
"665.212 69.992 OFFCURVE",
"671 230 CURVE SMOOTH",
"688 700 LINE",
"620 700 LINE",
"637 230 LINE SMOOTH",
"641.411 108.057 OFFCURVE",
"550 22 OFFCURVE",
"415 22 CURVE SMOOTH",
"271 22 OFFCURVE",
"188 117 OFFCURVE",
"188 278 CURVE SMOOTH",
"188 700 LINE",
"120 700 LINE"
);
},
{
closed = 1;
nodes = (
"358 763 LINE",
"532 891 LINE",
"532 897 LINE",
"442 897 LINE",
"345 775 LINE"
);
}
);
};
components = (
{
name = U;
},
{
name = acutecomb;
transform = "{1, 0, 0, 1, 312, 0}";
}
);
layerId = "879304B0-C0BD-4EE0-9B7F-878EED11B82D";
userData = {
com.fontlab.autolayer = 1;
com.fontlab.recipe = "U+acute";
};
width = 798;
}
);
leftKerningGroup = U_gr;
rightKerningGroup = U_gr;
unicode = "00DA,00FA";
},
{
color = (255,153,253,255);
glyphname = Ubreve;
lastChange = "2022-05-26 13:21:31 +0000";
layers = (
{
background = {
anchors = (
{
name = bottom;
position = "{436, 0}";
},
{
name = top;
position = "{404, 765}";
}
);
paths = (
{
closed = 1;
nodes = (
"120 280 LINE SMOOTH",
"120 97 OFFCURVE",
"226.965 -14 OFFCURVE",
"406.626 -14 CURVE SMOOTH",
"573.824 -14 OFFCURVE",
"665.212 69.992 OFFCURVE",
"671 230 CURVE SMOOTH",
"688 700 LINE",
"620 700 LINE",
"637 230 LINE SMOOTH",
"641.411 108.057 OFFCURVE",
"550 22 OFFCURVE",
"415 22 CURVE SMOOTH",
"271 22 OFFCURVE",
"188 117 OFFCURVE",
"188 278 CURVE SMOOTH",
"188 700 LINE",
"120 700 LINE"
);
},
{
closed = 1;
nodes = (
"468 777 OFFCURVE",
"515 824 OFFCURVE",
"533 906 CURVE",
"516 912 LINE",
"483 855 OFFCURVE",
"454 835 OFFCURVE",
"404 835 CURVE SMOOTH",
"354 835 OFFCURVE",
"325 855 OFFCURVE",
"292 912 CURVE",
"275 906 LINE",
"293 824 OFFCURVE",
"340 777 OFFCURVE",
"404 777 CURVE SMOOTH"
);
}
);
};
components = (
{
name = U;
},
{
name = brevecomb;
transform = "{1, 0, 0, 1, 204, 0}";
}
);
layerId = "879304B0-C0BD-4EE0-9B7F-878EED11B82D";
userData = {
com.fontlab.autolayer = 1;
com.fontlab.recipe = "U+breve";
};
width = 798;
}
);
leftKerningGroup = U_gr;
rightKerningGroup = U_gr;
unicode = "016C,016D";
},
{
color = (255,153,253,255);
glyphname = Ucircumflex;
lastChange = "2022-05-26 13:21:31 +0000";
layers = (
{
background = {
anchors = (
{
name = bottom;
position = "{436, 0}";
},
{
name = top;
position = "{404, 765}";
}
);
paths = (
{
closed = 1;
nodes = (
"120 280 LINE SMOOTH",
"120 97 OFFCURVE",
"226.965 -14 OFFCURVE",
"406.626 -14 CURVE SMOOTH",
"573.824 -14 OFFCURVE",
"665.212 69.992 OFFCURVE",
"671 230 CURVE SMOOTH",
"688 700 LINE",
"620 700 LINE",
"637 230 LINE SMOOTH",
"641.411 108.057 OFFCURVE",
"550 22 OFFCURVE",
"415 22 CURVE SMOOTH",
"271 22 OFFCURVE",
"188 117 OFFCURVE",
"188 278 CURVE SMOOTH",
"188 700 LINE",
"120 700 LINE"
);
},
{
closed = 1;
nodes = (
"391 905 LINE",
"270 775 LINE",
"283 763 LINE",
"404 843 LINE",
"525 763 LINE",
"538 775 LINE",
"417 905 LINE"
);
}
);
};
components = (
{
name = U;
},
{
name = circumflexcomb;
transform = "{1, 0, 0, 1, 199, 0}";
}
);
layerId = "879304B0-C0BD-4EE0-9B7F-878EED11B82D";
userData = {
com.fontlab.autolayer = 1;
com.fontlab.recipe = "U+circumflex";
};
width = 798;
}
);
leftKerningGroup = U_gr;
rightKerningGroup = U_gr;
unicode = "00DB,00FB";
},
{
color = (255,153,253,255);
glyphname = Udieresis;
lastChange = "2022-05-26 13:21:31 +0000";
layers = (
{
background = {
anchors = (
{
name = bottom;
position = "{436, 0}";
},
{
name = top;
position = "{404, 765}";
}
);
paths = (
{
closed = 1;
nodes = (
"120 280 LINE SMOOTH",
"120 97 OFFCURVE",
"226.965 -14 OFFCURVE",
"406.626 -14 CURVE SMOOTH",
"573.824 -14 OFFCURVE",
"665.212 69.992 OFFCURVE",
"671 230 CURVE SMOOTH",
"688 700 LINE",
"620 700 LINE",
"637 230 LINE SMOOTH",
"641.411 108.057 OFFCURVE",
"550 22 OFFCURVE",
"415 22 CURVE SMOOTH",
"271 22 OFFCURVE",
"188 117 OFFCURVE",
"188 278 CURVE SMOOTH",
"188 700 LINE",
"120 700 LINE"
);
},
{
closed = 1;
nodes = (
"462 819 OFFCURVE",
"481 800 OFFCURVE",
"507 800 CURVE SMOOTH",
"533 800 OFFCURVE",
"552 819 OFFCURVE",
"552 845 CURVE SMOOTH",
"552 871 OFFCURVE",
"533 890 OFFCURVE",
"507 890 CURVE SMOOTH",
"481 890 OFFCURVE",
"462 871 OFFCURVE",
"462 845 CURVE SMOOTH"
);
},
{
closed = 1;
nodes = (
"256 819 OFFCURVE",
"275 800 OFFCURVE",
"301 800 CURVE SMOOTH",
"327 800 OFFCURVE",
"346 819 OFFCURVE",
"346 845 CURVE SMOOTH",
"346 871 OFFCURVE",
"327 890 OFFCURVE",
"301 890 CURVE SMOOTH",
"275 890 OFFCURVE",
"256 871 OFFCURVE",
"256 845 CURVE SMOOTH"
);
}
);
};
components = (
{
name = U;
},
{
name = dieresiscomb;
transform = "{1, 0, 0, 1, 185, 0}";
}
);
layerId = "879304B0-C0BD-4EE0-9B7F-878EED11B82D";
userData = {
com.fontlab.autolayer = 1;
com.fontlab.recipe = "U+dieresis";
};
width = 798;
}
);
leftKerningGroup = U_gr;
rightKerningGroup = U_gr;
unicode = "00DC,00FC";
},
{
color = (255,153,253,255);
glyphname = Ugrave;
lastChange = "2022-05-26 13:21:31 +0000";
layers = (
{
background = {
anchors = (
{
name = bottom;
position = "{436, 0}";
},
{
name = top;
position = "{404, 765}";
}
);
paths = (
{
closed = 1;
nodes = (
"120 280 LINE SMOOTH",
"120 97 OFFCURVE",
"226.965 -14 OFFCURVE",
"406.626 -14 CURVE SMOOTH",
"573.824 -14 OFFCURVE",
"665.212 69.992 OFFCURVE",
"671 230 CURVE SMOOTH",
"688 700 LINE",
"620 700 LINE",
"637 230 LINE SMOOTH",
"641.411 108.057 OFFCURVE",
"550 22 OFFCURVE",
"415 22 CURVE SMOOTH",
"271 22 OFFCURVE",
"188 117 OFFCURVE",
"188 278 CURVE SMOOTH",
"188 700 LINE",
"120 700 LINE"
);
},
{
closed = 1;
nodes = (
"366 897 LINE",
"276 897 LINE",
"276 891 LINE",
"450 763 LINE",
"463 775 LINE"
);
}
);
};
components = (
{
name = U;
},
{
name = gravecomb;
transform = "{1, 0, 0, 1, 255, 0}";
}
);
layerId = "879304B0-C0BD-4EE0-9B7F-878EED11B82D";
userData = {
com.fontlab.autolayer = 1;
com.fontlab.recipe = "U+grave";
};
width = 798;
}
);
leftKerningGroup = U_gr;
rightKerningGroup = U_gr;
unicode = "00D9,00F9";
},
{
color = (255,153,253,255);
glyphname = Uhungarumlaut;
lastChange = "2022-05-26 13:21:31 +0000";
layers = (
{
background = {
anchors = (
{
name = bottom;
position = "{436, 0}";
},
{
name = top;
position = "{404, 765}";
}
);
paths = (
{
closed = 1;
nodes = (
"120 280 LINE SMOOTH",
"120 97 OFFCURVE",
"226.965 -14 OFFCURVE",
"406.626 -14 CURVE SMOOTH",
"573.824 -14 OFFCURVE",
"665.212 69.992 OFFCURVE",
"671 230 CURVE SMOOTH",
"688 700 LINE",
"620 700 LINE",
"637 230 LINE SMOOTH",
"641.411 108.057 OFFCURVE",
"550 22 OFFCURVE",
"415 22 CURVE SMOOTH",
"271 22 OFFCURVE",
"188 117 OFFCURVE",
"188 278 CURVE SMOOTH",
"188 700 LINE",
"120 700 LINE"
);
},
{
closed = 1;
nodes = (
"298 763 LINE",
"452 893 LINE",
"452 899 LINE",
"371 899 LINE",
"285 775 LINE"
);
},
{
closed = 1;
nodes = (
"458 763 LINE",
"612 893 LINE",
"612 899 LINE",
"531 899 LINE",
"445 775 LINE"
);
}
);
};
components = (
{
name = U;
},
{
name = hungarumlautcomb;
transform = "{1, 0, 0, 1, 254, 10}";
}
);
layerId = "879304B0-C0BD-4EE0-9B7F-878EED11B82D";
userData = {
com.fontlab.autolayer = 1;
com.fontlab.recipe = "U+hungarumlaut";
};
width = 798;
}
);
leftKerningGroup = U_gr;
rightKerningGroup = U_gr;
unicode = "0170,0171";
},
{
color = (255,153,253,255);
glyphname = Umacron;
lastChange = "2022-05-26 13:21:31 +0000";
layers = (
{
background = {
anchors = (
{
name = bottom;
position = "{436, 0}";
},
{
name = top;
position = "{404, 765}";
}
);
paths = (
{
closed = 1;
nodes = (
"120 280 LINE SMOOTH",
"120 97 OFFCURVE",
"226.965 -14 OFFCURVE",
"406.626 -14 CURVE SMOOTH",
"573.824 -14 OFFCURVE",
"665.212 69.992 OFFCURVE",
"671 230 CURVE SMOOTH",
"688 700 LINE",
"620 700 LINE",
"637 230 LINE SMOOTH",
"641.411 108.057 OFFCURVE",
"550 22 OFFCURVE",
"415 22 CURVE SMOOTH",
"271 22 OFFCURVE",
"188 117 OFFCURVE",
"188 278 CURVE SMOOTH",
"188 700 LINE",
"120 700 LINE"
);
},
{
closed = 1;
nodes = (
"538 818 LINE",
"538 858 LINE",
"270 858 LINE",
"270 818 LINE"
);
}
);
};
components = (
{
name = U;
},
{
name = macroncomb;
transform = "{1, 0, 0, 1, 219, 0}";
}
);
layerId = "879304B0-C0BD-4EE0-9B7F-878EED11B82D";
userData = {
com.fontlab.autolayer = 1;
com.fontlab.recipe = "U+macron";
};
width = 798;
}
);
leftKerningGroup = U_gr;
rightKerningGroup = U_gr;
unicode = "016A,016B";
},
{
color = (255,153,253,255);
glyphname = Uogonek;
lastChange = "2022-05-26 13:21:37 +0000";
layers = (
{
background = {
anchors = (
{
name = bottom;
position = "{436, 0}";
},
{
name = top;
position = "{404, 765}";
}
);
paths = (
{
closed = 1;
nodes = (
"485 -164 LINE",
"471 -174 OFFCURVE",
"454 -180 OFFCURVE",
"440 -180 CURVE SMOOTH",
"411 -180 OFFCURVE",
"393 -157.684 OFFCURVE",
"393 -114.731 CURVE SMOOTH",
"393 -87.946 OFFCURVE",
"400 -53.542 OFFCURVE",
"438 -9.542 CURVE",
"437 0.458 LINE",
"430 0.458 LINE",
"354.801 -50.233 OFFCURVE",
"333 -91.237 OFFCURVE",
"333 -134.903 CURVE SMOOTH",
"333 -187.823 OFFCURVE",
"365 -220 OFFCURVE",
"414 -220 CURVE SMOOTH",
"445 -220 OFFCURVE",
"470 -207 OFFCURVE",
"496 -178 CURVE"
);
},
{
closed = 1;
nodes = (
"120 280 LINE SMOOTH",
"120 97 OFFCURVE",
"226.965 -14 OFFCURVE",
"406.626 -14 CURVE SMOOTH",
"573.824 -14 OFFCURVE",
"665.212 69.992 OFFCURVE",
"671 230 CURVE SMOOTH",
"688 700 LINE",
"620 700 LINE",
"637 230 LINE SMOOTH",
"641.411 108.057 OFFCURVE",
"550 22 OFFCURVE",
"415 22 CURVE SMOOTH",
"271 22 OFFCURVE",
"188 117 OFFCURVE",
"188 278 CURVE SMOOTH",
"188 700 LINE",
"120 700 LINE"
);
}
);
};
components = (
{
name = U;
},
{
name = ogonekcomb;
transform = "{1, 0, 0, 1, 264, 0}";
}
);
layerId = "879304B0-C0BD-4EE0-9B7F-878EED11B82D";
userData = {
com.fontlab.metricsLeft = U;
com.fontlab.metricsRight = U;
com.fontlab.recipe = "U+ogonek";
};
width = 798;
}
);
leftKerningGroup = U_gr;
rightKerningGroup = U_gr;
unicode = "0172,0173";
},
{
color = (255,153,253,255);
glyphname = Uring;
lastChange = "2022-05-26 13:21:31 +0000";
layers = (
{
background = {
anchors = (
{
name = bottom;
position = "{436, 0}";
},
{
name = top;
position = "{404, 765}";
}
);
paths = (
{
closed = 1;
nodes = (
"120 280 LINE SMOOTH",
"120 97 OFFCURVE",
"226.965 -14 OFFCURVE",
"406.626 -14 CURVE SMOOTH",
"573.824 -14 OFFCURVE",
"665.212 69.992 OFFCURVE",
"671 230 CURVE SMOOTH",
"688 700 LINE",
"620 700 LINE",
"637 230 LINE SMOOTH",
"641.411 108.057 OFFCURVE",
"550 22 OFFCURVE",
"415 22 CURVE SMOOTH",
"271 22 OFFCURVE",
"188 117 OFFCURVE",
"188 278 CURVE SMOOTH",
"188 700 LINE",
"120 700 LINE"
);
},
{
closed = 1;
nodes = (
"310 784 OFFCURVE",
"349 747 OFFCURVE",
"404 747 CURVE SMOOTH",
"459 747 OFFCURVE",
"498 784 OFFCURVE",
"498 835 CURVE SMOOTH",
"498 886 OFFCURVE",
"459 923 OFFCURVE",
"404 923 CURVE SMOOTH",
"349 923 OFFCURVE",
"310 886 OFFCURVE",
"310 835 CURVE SMOOTH"
);
},
{
closed = 1;
nodes = (
"431 905 OFFCURVE",
"452 876 OFFCURVE",
"452 835 CURVE SMOOTH",
"452 794 OFFCURVE",
"431 765 OFFCURVE",
"404 765 CURVE SMOOTH",
"376 765 OFFCURVE",
"356 794 OFFCURVE",
"356 835 CURVE SMOOTH",
"356 876 OFFCURVE",
"376 905 OFFCURVE",
"404 905 CURVE SMOOTH"
);
}
);
};
components = (
{
name = U;
},
{
name = ringcomb;
transform = "{1, 0, 0, 1, 249, 0}";
}
);
layerId = "879304B0-C0BD-4EE0-9B7F-878EED11B82D";
userData = {
com.fontlab.autolayer = 1;
com.fontlab.recipe = "U+ring";
};
width = 798;
}
);
leftKerningGroup = U_gr;
rightKerningGroup = U_gr;
unicode = "016E,016F";
},
{
color = (255,153,253,255);
glyphname = Utilde;
lastChange = "2022-05-26 13:21:31 +0000";
layers = (
{
background = {
anchors = (
{
name = bottom;
position = "{436, 0}";
},
{
name = top;
position = "{404, 765}";
}
);
paths = (
{
closed = 1;
nodes = (
"120 280 LINE SMOOTH",
"120 97 OFFCURVE",
"226.965 -14 OFFCURVE",
"406.626 -14 CURVE SMOOTH",
"573.824 -14 OFFCURVE",
"665.212 69.992 OFFCURVE",
"671 230 CURVE SMOOTH",
"688 700 LINE",
"620 700 LINE",
"637 230 LINE SMOOTH",
"641.411 108.057 OFFCURVE",
"550 22 OFFCURVE",
"415 22 CURVE SMOOTH",
"271 22 OFFCURVE",
"188 117 OFFCURVE",
"188 278 CURVE SMOOTH",
"188 700 LINE",
"120 700 LINE"
);
},
{
closed = 1;
nodes = (
"392 887 OFFCURVE",
"370 900 OFFCURVE",
"342 900 CURVE SMOOTH",
"305 900 OFFCURVE",
"279 877 OFFCURVE",
"244 808 CURVE",
"259 798 LINE",
"287 836 OFFCURVE",
"307 846 OFFCURVE",
"328 846 CURVE SMOOTH",
"352 846 OFFCURVE",
"374 832 OFFCURVE",
"394 819 CURVE SMOOTH",
"416 805 OFFCURVE",
"438 792 OFFCURVE {name = hr01;}",
"466 792 CURVE SMOOTH",
"503 792 OFFCURVE",
"529 815 OFFCURVE",
"564 884 CURVE",
"549 894 LINE",
"521 856 OFFCURVE",
"501 846 OFFCURVE",
"480 846 CURVE SMOOTH",
"456 846 OFFCURVE",
"434 860 OFFCURVE",
"414 873 CURVE SMOOTH"
);
}
);
};
components = (
{
name = U;
},
{
name = tildecomb;
transform = "{1, 0, 0, 1, 200, 0}";
}
);
layerId = "879304B0-C0BD-4EE0-9B7F-878EED11B82D";
userData = {
com.fontlab.autolayer = 1;
com.fontlab.recipe = "U+tilde";
};
width = 798;
}
);
leftKerningGroup = U_gr;
rightKerningGroup = U_gr;
unicode = "0168,0169";
},
{
color = (153,255,154,255);
glyphname = V;
lastChange = "2022-05-26 13:06:07 +0000";
layers = (
{
anchors = (
{
name = bottom;
position = "{358, 0}";
},
{
name = top;
position = "{358, 700}";
}
);
background = {
paths = (
{
closed = 1;
nodes = (
"350 -14 LINE",
"372 -14 LINE",
"690 700 LINE",
"615 700 LINE",
"386 78 LINE",
"380 78 LINE",
"107 700 LINE",
"32 700 LINE"
);
}
);
};
guideLines = (
{
position = "{0, 44}";
}
);
layerId = "879304B0-C0BD-4EE0-9B7F-878EED11B82D";
paths = (
{
closed = 1;
nodes = (
"350 -14 LINE",
"372 -14 LINE",
"690 700 LINE",
"615 700 LINE",
"386 78 LINE",
"380 78 LINE",
"107 700 LINE",
"32 700 LINE"
);
}
);
vertWidth = 0;
width = 716;
}
);
leftKerningGroup = W_gr;
rightKerningGroup = W_gr;
unicode = "0056,0076";
},
{
color = (153,255,154,255);
glyphname = W;
lastChange = "2022-05-26 13:21:22 +0000";
layers = (
{
anchors = (
{
name = bottom;
position = "{527, 0}";
},
{
name = top;
position = "{496, 700}";
}
);
background = {
anchors = (
{
name = top;
position = "{493, 765}";
}
);
paths = (
{
closed = 1;
nodes = (
"320 -14 LINE",
"342 -14 LINE",
"545 489 LINE",
"523 501 LINE",
"356 88 LINE",
"350 88 LINE",
"105 700 LINE",
"32 700 LINE"
);
},
{
closed = 1;
nodes = (
"717 -14 LINE",
"739 -14 LINE",
"1027 700 LINE",
"954 700 LINE",
"752 90 LINE",
"746 90 LINE",
"502 700 LINE",
"429 700 LINE"
);
}
);
};
guideLines = (
{
angle = 90;
position = "{465, 0}";
},
{
angle = 90;
position = "{530, 0}";
}
);
layerId = "879304B0-C0BD-4EE0-9B7F-878EED11B82D";
paths = (
{
closed = 1;
nodes = (
"320 -14 LINE",
"342 -14 LINE",
"545 489 LINE",
"523 501 LINE",
"356 88 LINE",
"350 88 LINE",
"105 700 LINE",
"32 700 LINE"
);
},
{
closed = 1;
nodes = (
"717 -14 LINE",
"739 -14 LINE",
"1027 700 LINE",
"954 700 LINE",
"752 90 LINE",
"746 90 LINE",
"502 700 LINE",
"429 700 LINE"
);
}
);
userData = {
com.fontlab.metricsLeft = V;
com.fontlab.metricsRight = V;
};
vertWidth = 0;
width = 1053;
}
);
leftKerningGroup = W_gr;
rightKerningGroup = W_gr;
unicode = "0057,0077";
},
{
color = (255,153,255,255);
glyphname = Wacute;
lastChange = "2022-05-26 13:21:22 +0000";
layers = (
{
background = {
anchors = (
{
name = top;
position = "{493, 765}";
}
);
paths = (
{
closed = 1;
nodes = (
"320 -14 LINE",
"342 -14 LINE",
"545 489 LINE",
"523 501 LINE",
"356 88 LINE",
"350 88 LINE",
"105 700 LINE",
"32 700 LINE"
);
},
{
closed = 1;
nodes = (
"717 -14 LINE",
"739 -14 LINE",
"1027 700 LINE",
"954 700 LINE",
"752 90 LINE",
"746 90 LINE",
"502 700 LINE",
"429 700 LINE"
);
},
{
closed = 1;
nodes = (
"447 763 LINE",
"621 891 LINE",
"621 897 LINE",
"531 897 LINE",
"434 775 LINE"
);
}
);
};
components = (
{
name = W;
},
{
name = acutecomb;
transform = "{1, 0, 0, 1, 405, 0}";
}
);
layerId = "879304B0-C0BD-4EE0-9B7F-878EED11B82D";
userData = {
com.fontlab.autolayer = 1;
com.fontlab.recipe = "W+acute";
};
width = 1053;
}
);
leftKerningGroup = W_gr;
rightKerningGroup = W_gr;
unicode = "1E82,1E83";
},
{
color = (255,153,253,255);
glyphname = Wcircumflex;
lastChange = "2022-05-26 13:21:22 +0000";
layers = (
{
background = {
anchors = (
{
name = top;
position = "{493, 765}";
}
);
paths = (
{
closed = 1;
nodes = (
"320 -14 LINE",
"342 -14 LINE",
"545 489 LINE",
"523 501 LINE",
"356 88 LINE",
"350 88 LINE",
"105 700 LINE",
"32 700 LINE"
);
},
{
closed = 1;
nodes = (
"717 -14 LINE",
"739 -14 LINE",
"1027 700 LINE",
"954 700 LINE",
"752 90 LINE",
"746 90 LINE",
"502 700 LINE",
"429 700 LINE"
);
},
{
closed = 1;
nodes = (
"480 905 LINE",
"359 775 LINE",
"372 763 LINE",
"493 843 LINE",
"614 763 LINE",
"627 775 LINE",
"506 905 LINE"
);
}
);
};
components = (
{
name = W;
},
{
name = circumflexcomb;
transform = "{1, 0, 0, 1, 292, 0}";
}
);
layerId = "879304B0-C0BD-4EE0-9B7F-878EED11B82D";
userData = {
com.fontlab.autolayer = 1;
com.fontlab.recipe = "W+circumflex";
};
width = 1053;
}
);
leftKerningGroup = W_gr;
rightKerningGroup = W_gr;
unicode = "0174,0175";
},
{
color = (255,153,253,255);
glyphname = Wdieresis;
lastChange = "2022-05-26 13:21:22 +0000";
layers = (
{
background = {
anchors = (
{
name = top;
position = "{493, 765}";
}
);
paths = (
{
closed = 1;
nodes = (
"320 -14 LINE",
"342 -14 LINE",
"545 489 LINE",
"523 501 LINE",
"356 88 LINE",
"350 88 LINE",
"105 700 LINE",
"32 700 LINE"
);
},
{
closed = 1;
nodes = (
"717 -14 LINE",
"739 -14 LINE",
"1027 700 LINE",
"954 700 LINE",
"752 90 LINE",
"746 90 LINE",
"502 700 LINE",
"429 700 LINE"
);
},
{
closed = 1;
nodes = (
"551 819 OFFCURVE",
"570 800 OFFCURVE",
"596 800 CURVE SMOOTH",
"622 800 OFFCURVE",
"641 819 OFFCURVE",
"641 845 CURVE SMOOTH",
"641 871 OFFCURVE",
"622 890 OFFCURVE",
"596 890 CURVE SMOOTH",
"570 890 OFFCURVE",
"551 871 OFFCURVE",
"551 845 CURVE SMOOTH"
);
},
{
closed = 1;
nodes = (
"345 819 OFFCURVE",
"364 800 OFFCURVE",
"390 800 CURVE SMOOTH",
"416 800 OFFCURVE",
"435 819 OFFCURVE",
"435 845 CURVE SMOOTH",
"435 871 OFFCURVE",
"416 890 OFFCURVE",
"390 890 CURVE SMOOTH",
"364 890 OFFCURVE",
"345 871 OFFCURVE",
"345 845 CURVE SMOOTH"
);
}
);
};
components = (
{
name = W;
},
{
name = dieresiscomb;
transform = "{1, 0, 0, 1, 278, 0}";
}
);
layerId = "879304B0-C0BD-4EE0-9B7F-878EED11B82D";
userData = {
com.fontlab.autolayer = 1;
com.fontlab.recipe = "W+dieresis";
};
width = 1053;
}
);
leftKerningGroup = W_gr;
rightKerningGroup = W_gr;
unicode = "1E84,1E85";
},
{
color = (255,153,255,255);
glyphname = Wgrave;
lastChange = "2022-05-26 13:21:22 +0000";
layers = (
{
background = {
anchors = (
{
name = top;
position = "{493, 765}";
}
);
paths = (
{
closed = 1;
nodes = (
"320 -14 LINE",
"342 -14 LINE",
"545 489 LINE",
"523 501 LINE",
"356 88 LINE",
"350 88 LINE",
"105 700 LINE",
"32 700 LINE"
);
},
{
closed = 1;
nodes = (
"717 -14 LINE",
"739 -14 LINE",
"1027 700 LINE",
"954 700 LINE",
"752 90 LINE",
"746 90 LINE",
"502 700 LINE",
"429 700 LINE"
);
},
{
closed = 1;
nodes = (
"455 897 LINE",
"365 897 LINE",
"365 891 LINE",
"539 763 LINE",
"552 775 LINE"
);
}
);
};
components = (
{
name = W;
},
{
name = gravecomb;
transform = "{1, 0, 0, 1, 348, 0}";
}
);
layerId = "879304B0-C0BD-4EE0-9B7F-878EED11B82D";
userData = {
com.fontlab.autolayer = 1;
com.fontlab.recipe = "W+grave";
};
width = 1053;
}
);
leftKerningGroup = W_gr;
rightKerningGroup = W_gr;
unicode = "1E80,1E81";
},
{
color = (153,255,154,255);
glyphname = X;
lastChange = "2022-05-26 13:06:07 +0000";
layers = (
{
anchors = (
{
name = bottom;
position = "{316, 0}";
},
{
name = top;
position = "{316, 700}";
}
);
background = {
paths = (
{
closed = 1;
nodes = (
"606 0 LINE",
"132 700 LINE",
"52 700 LINE",
"526 0 LINE"
);
},
{
closed = 1;
nodes = (
"112 0 LINE",
"312 341 LINE",
"297 359 LINE",
"32 0 LINE"
);
},
{
closed = 1;
nodes = (
"328 397 LINE",
"343 379 LINE",
"586 700 LINE",
"506 700 LINE"
);
},
{
closed = 1;
nodes = (
"313 323 LINE",
"313 331 LINE",
"297 331 LINE",
"297 323 LINE"
);
},
{
closed = 1;
nodes = (
"342 401 LINE",
"342 409 LINE",
"326 409 LINE",
"326 401 LINE"
);
}
);
};
guideLines = (
{
position = "{0, 7967}";
},
{
angle = 90;
position = "{32, 0}";
}
);
layerId = "879304B0-C0BD-4EE0-9B7F-878EED11B82D";
paths = (
{
closed = 1;
nodes = (
"606 0 LINE",
"132 700 LINE",
"52 700 LINE",
"526 0 LINE"
);
},
{
closed = 1;
nodes = (
"112 0 LINE",
"312 341 LINE",
"297 359 LINE",
"32 0 LINE"
);
},
{
closed = 1;
nodes = (
"328 397 LINE",
"343 379 LINE",
"586 700 LINE",
"506 700 LINE"
);
},
{
closed = 1;
nodes = (
"313 323 LINE",
"313 331 LINE",
"297 331 LINE",
"297 323 LINE"
);
},
{
closed = 1;
nodes = (
"342 401 LINE",
"342 409 LINE",
"326 409 LINE",
"326 401 LINE"
);
}
);
userData = {
com.fontlab.metricsLeft = V;
com.fontlab.metricsRight = V;
};
vertWidth = 0;
width = 632;
}
);
unicode = "0058,0078";
},
{
color = (153,255,154,255);
glyphname = Y;
lastChange = "2022-05-26 13:35:59 +0000";
layers = (
{
anchors = (
{
name = bottom;
position = "{309, 0}";
},
{
name = top;
position = "{312, 700}";
},
{
name = topleft;
position = "{20, 700}";
}
);
background = {
anchors = (
{
name = top;
position = "{312, 765}";
}
);
paths = (
{
closed = 1;
nodes = (
"352 0 LINE",
"352 310 LINE",
"591 700 LINE",
"515 700 LINE",
"337 334 LINE",
"331 334 LINE",
"108 700 LINE",
"32 700 LINE",
"280 296 LINE",
"280 0 LINE"
);
}
);
};
guideLines = (
{
position = "{0, 349}";
},
{
angle = 90;
position = "{312, 0}";
}
);
layerId = "879304B0-C0BD-4EE0-9B7F-878EED11B82D";
paths = (
{
closed = 1;
nodes = (
"352 0 LINE",
"352 310 LINE",
"591 700 LINE",
"515 700 LINE",
"337 334 LINE",
"331 334 LINE",
"108 700 LINE",
"32 700 LINE",
"280 296 LINE",
"280 0 LINE"
);
}
);
userData = {
com.fontlab.metricsLeft = V;
com.fontlab.metricsRight = V;
};
vertWidth = 0;
width = 617;
}
);
leftKerningGroup = Y_gr;
rightKerningGroup = Y_gr;
unicode = "0059,0079";
},
{
color = (255,153,253,255);
glyphname = Yacute;
lastChange = "2022-05-26 13:36:01 +0000";
layers = (
{
background = {
anchors = (
{
name = top;
position = "{312, 765}";
}
);
paths = (
{
closed = 1;
nodes = (
"352 0 LINE",
"352 310 LINE",
"591 700 LINE",
"515 700 LINE",
"337 334 LINE",
"331 334 LINE",
"108 700 LINE",
"32 700 LINE",
"280 296 LINE",
"280 0 LINE"
);
},
{
closed = 1;
nodes = (
"266 763 LINE",
"440 891 LINE",
"440 897 LINE",
"350 897 LINE",
"253 775 LINE"
);
}
);
};
components = (
{
name = Y;
},
{
name = acutecomb;
transform = "{1, 0, 0, 1, 221, 0}";
}
);
layerId = "879304B0-C0BD-4EE0-9B7F-878EED11B82D";
userData = {
com.fontlab.autolayer = 1;
};
width = 617;
}
);
leftKerningGroup = Y_gr;
rightKerningGroup = Y_gr;
unicode = "00DD,00FD";
},
{
color = (255,153,253,255);
glyphname = Ycircumflex;
lastChange = "2022-05-26 13:36:01 +0000";
layers = (
{
background = {
anchors = (
{
name = top;
position = "{312, 765}";
}
);
paths = (
{
closed = 1;
nodes = (
"352 0 LINE",
"352 310 LINE",
"591 700 LINE",
"515 700 LINE",
"337 334 LINE",
"331 334 LINE",
"108 700 LINE",
"32 700 LINE",
"280 296 LINE",
"280 0 LINE"
);
},
{
closed = 1;
nodes = (
"299 905 LINE",
"178 775 LINE",
"191 763 LINE",
"312 843 LINE",
"433 763 LINE",
"446 775 LINE",
"325 905 LINE"
);
}
);
};
components = (
{
name = Y;
},
{
name = circumflexcomb;
transform = "{1, 0, 0, 1, 108, 0}";
}
);
layerId = "879304B0-C0BD-4EE0-9B7F-878EED11B82D";
userData = {
com.fontlab.autolayer = 1;
com.fontlab.recipe = "Y+circumflex";
};
width = 617;
}
);
leftKerningGroup = Y_gr;
rightKerningGroup = Y_gr;
unicode = "0176,0177";
},
{
color = (255,153,253,255);
glyphname = Ydieresis;
lastChange = "2022-05-26 13:36:02 +0000";
layers = (
{
background = {
anchors = (
{
name = top;
position = "{312, 765}";
}
);
paths = (
{
closed = 1;
nodes = (
"352 0 LINE",
"352 310 LINE",
"591 700 LINE",
"515 700 LINE",
"337 334 LINE",
"331 334 LINE",
"108 700 LINE",
"32 700 LINE",
"280 296 LINE",
"280 0 LINE"
);
},
{
closed = 1;
nodes = (
"370 819 OFFCURVE",
"389 800 OFFCURVE",
"415 800 CURVE SMOOTH",
"441 800 OFFCURVE",
"460 819 OFFCURVE",
"460 845 CURVE SMOOTH",
"460 871 OFFCURVE",
"441 890 OFFCURVE",
"415 890 CURVE SMOOTH",
"389 890 OFFCURVE",
"370 871 OFFCURVE",
"370 845 CURVE SMOOTH"
);
},
{
closed = 1;
nodes = (
"164 819 OFFCURVE",
"183 800 OFFCURVE",
"209 800 CURVE SMOOTH",
"235 800 OFFCURVE",
"254 819 OFFCURVE",
"254 845 CURVE SMOOTH",
"254 871 OFFCURVE",
"235 890 OFFCURVE",
"209 890 CURVE SMOOTH",
"183 890 OFFCURVE",
"164 871 OFFCURVE",
"164 845 CURVE SMOOTH"
);
}
);
};
components = (
{
name = Y;
},
{
name = dieresiscomb;
transform = "{1, 0, 0, 1, 94, 0}";
}
);
layerId = "879304B0-C0BD-4EE0-9B7F-878EED11B82D";
userData = {
com.fontlab.autolayer = 1;
com.fontlab.recipe = "Y+dieresis";
};
width = 617;
}
);
leftKerningGroup = Y_gr;
rightKerningGroup = Y_gr;
unicode = "0178,00FF";
},
{
color = (255,153,253,255);
glyphname = Ygrave;
lastChange = "2022-05-26 13:36:02 +0000";
layers = (
{
background = {
anchors = (
{
name = top;
position = "{312, 765}";
}
);
paths = (
{
closed = 1;
nodes = (
"352 0 LINE",
"352 310 LINE",
"591 700 LINE",
"515 700 LINE",
"337 334 LINE",
"331 334 LINE",
"108 700 LINE",
"32 700 LINE",
"280 296 LINE",
"280 0 LINE"
);
},
{
closed = 1;
nodes = (
"274 897 LINE",
"184 897 LINE",
"184 891 LINE",
"358 763 LINE",
"371 775 LINE"
);
}
);
};
components = (
{
name = Y;
},
{
name = gravecomb;
transform = "{1, 0, 0, 1, 164, 0}";
}
);
layerId = "879304B0-C0BD-4EE0-9B7F-878EED11B82D";
userData = {
com.fontlab.autolayer = 1;
com.fontlab.recipe = "Y+grave";
};
width = 617;
}
);
leftKerningGroup = Y_gr;
rightKerningGroup = Y_gr;
unicode = "1EF2,1EF3";
},
{
color = (255,153,253,255);
glyphname = Ymacron;
lastChange = "2022-05-26 13:36:02 +0000";
layers = (
{
background = {
anchors = (
{
name = top;
position = "{312, 765}";
}
);
paths = (
{
closed = 1;
nodes = (
"352 0 LINE",
"352 310 LINE",
"591 700 LINE",
"515 700 LINE",
"337 334 LINE",
"331 334 LINE",
"108 700 LINE",
"32 700 LINE",
"280 296 LINE",
"280 0 LINE"
);
},
{
closed = 1;
nodes = (
"446 818 LINE",
"446 858 LINE",
"178 858 LINE",
"178 818 LINE"
);
}
);
};
components = (
{
name = Y;
},
{
name = macroncomb;
transform = "{1, 0, 0, 1, 128, 0}";
}
);
layerId = "879304B0-C0BD-4EE0-9B7F-878EED11B82D";
userData = {
com.fontlab.autolayer = 1;
com.fontlab.recipe = "Y+macron";
};
width = 617;
}
);
leftKerningGroup = Y_gr;
rightKerningGroup = Y_gr;
unicode = "0232,0233";
},
{
color = (255,153,253,255);
glyphname = Ytilde;
lastChange = "2022-05-26 13:36:03 +0000";
layers = (
{
background = {
anchors = (
{
name = top;
position = "{312, 765}";
}
);
paths = (
{
closed = 1;
nodes = (
"352 0 LINE",
"352 310 LINE",
"591 700 LINE",
"515 700 LINE",
"337 334 LINE",
"331 334 LINE",
"108 700 LINE",
"32 700 LINE",
"280 296 LINE",
"280 0 LINE"
);
},
{
closed = 1;
nodes = (
"300 887 OFFCURVE",
"278 900 OFFCURVE",
"250 900 CURVE SMOOTH",
"213 900 OFFCURVE",
"187 877 OFFCURVE",
"152 808 CURVE",
"167 798 LINE",
"195 836 OFFCURVE",
"215 846 OFFCURVE",
"236 846 CURVE SMOOTH",
"260 846 OFFCURVE",
"282 832 OFFCURVE",
"302 819 CURVE SMOOTH",
"324 805 OFFCURVE",
"346 792 OFFCURVE {name = hr01;}",
"374 792 CURVE SMOOTH",
"411 792 OFFCURVE",
"437 815 OFFCURVE",
"472 884 CURVE",
"457 894 LINE",
"429 856 OFFCURVE",
"409 846 OFFCURVE",
"388 846 CURVE SMOOTH",
"364 846 OFFCURVE",
"342 860 OFFCURVE",
"322 873 CURVE SMOOTH"
);
}
);
};
components = (
{
name = Y;
},
{
name = tildecomb;
transform = "{1, 0, 0, 1, 109, 0}";
}
);
layerId = "879304B0-C0BD-4EE0-9B7F-878EED11B82D";
userData = {
com.fontlab.autolayer = 1;
com.fontlab.recipe = "Y+tilde";
};
width = 617;
}
);
leftKerningGroup = Y_gr;
rightKerningGroup = Y_gr;
unicode = "1EF8,1EF9";
},
{
color = (153,255,154,255);
glyphname = Z;
lastChange = "2022-05-26 13:21:59 +0000";
layers = (
{
anchors = (
{
name = bottom;
position = "{316, 0}";
},
{
name = center;
position = "{316, 350}";
},
{
name = top;
position = "{328, 700}";
}
);
background = {
anchors = (
{
name = top;
position = "{328, 765}";
}
);
paths = (
{
closed = 1;
nodes = (
"125 20 LINE",
"571 680 LINE",
"491 680 LINE",
"45 20 LINE"
);
},
{
closed = 1;
nodes = (
"71 651 LINE",
"418 676 LINE SMOOTH",
"455.924 678.732 OFFCURVE",
"480.257 680.066 OFFCURVE",
"491 680 CURVE",
"571 680 LINE",
"571 700 LINE",
"71 700 LINE"
);
},
{
closed = 1;
nodes = (
"575 51 LINE",
"198 24 LINE SMOOTH",
"160.667 21.333 OFFCURVE",
"136.333 20 OFFCURVE",
"125 20 CURVE SMOOTH",
"45 20 LINE",
"45 0 LINE",
"575 0 LINE"
);
}
);
};
guideLines = (
{
angle = 90;
position = "{45, 0}";
},
{
angle = 90;
position = "{575, 0}";
},
{
angle = 90;
position = "{324, 0}";
}
);
layerId = "879304B0-C0BD-4EE0-9B7F-878EED11B82D";
paths = (
{
closed = 1;
nodes = (
"125 20 LINE",
"571 680 LINE",
"491 680 LINE",
"45 20 LINE"
);
},
{
closed = 1;
nodes = (
"71 651 LINE",
"418 676 LINE SMOOTH",
"455.924 678.732 OFFCURVE",
"480.257 680.066 OFFCURVE",
"491 680 CURVE",
"571 680 LINE",
"571 700 LINE",
"71 700 LINE"
);
},
{
closed = 1;
nodes = (
"575 51 LINE",
"198 24 LINE SMOOTH",
"160.667 21.333 OFFCURVE",
"136.333 20 OFFCURVE",
"125 20 CURVE SMOOTH",
"45 20 LINE",
"45 0 LINE",
"575 0 LINE"
);
}
);
vertWidth = 0;
width = 631;
}
);
leftKerningGroup = Z_gr;
rightKerningGroup = Z_gr;
unicode = "005A,007A";
},
{
color = (255,153,253,255);
glyphname = Zacute;
lastChange = "2022-05-26 13:21:59 +0000";
layers = (
{
background = {
anchors = (
{
name = top;
position = "{328, 765}";
}
);
paths = (
{
closed = 1;
nodes = (
"125 20 LINE",
"571 680 LINE",
"491 680 LINE",
"45 20 LINE"
);
},
{
closed = 1;
nodes = (
"71 651 LINE",
"418 676 LINE SMOOTH",
"455.924 678.732 OFFCURVE",
"480.257 680.066 OFFCURVE",
"491 680 CURVE",
"571 680 LINE",
"571 700 LINE",
"71 700 LINE"
);
},
{
closed = 1;
nodes = (
"575 51 LINE",
"198 24 LINE SMOOTH",
"160.667 21.333 OFFCURVE",
"136.333 20 OFFCURVE",
"125 20 CURVE SMOOTH",
"45 20 LINE",
"45 0 LINE",
"575 0 LINE"
);
},
{
closed = 1;
nodes = (
"282 763 LINE",
"456 891 LINE",
"456 897 LINE",
"366 897 LINE",
"269 775 LINE"
);
}
);
};
components = (
{
name = Z;
},
{
name = acutecomb;
transform = "{1, 0, 0, 1, 237, 0}";
}
);
layerId = "879304B0-C0BD-4EE0-9B7F-878EED11B82D";
userData = {
com.fontlab.autolayer = 1;
com.fontlab.recipe = "Z+acute";
};
width = 631;
}
);
leftKerningGroup = Z_gr;
rightKerningGroup = Z_gr;
unicode = "0179,017A";
},
{
color = (255,153,253,255);
glyphname = Zcaron;
lastChange = "2022-05-26 13:21:59 +0000";
layers = (
{
background = {
anchors = (
{
name = top;
position = "{328, 765}";
}
);
paths = (
{
closed = 1;
nodes = (
"125 20 LINE",
"571 680 LINE",
"491 680 LINE",
"45 20 LINE"
);
},
{
closed = 1;
nodes = (
"71 651 LINE",
"418 676 LINE SMOOTH",
"455.924 678.732 OFFCURVE",
"480.257 680.066 OFFCURVE",
"491 680 CURVE",
"571 680 LINE",
"571 700 LINE",
"71 700 LINE"
);
},
{
closed = 1;
nodes = (
"575 51 LINE",
"198 24 LINE SMOOTH",
"160.667 21.333 OFFCURVE",
"136.333 20 OFFCURVE",
"125 20 CURVE SMOOTH",
"45 20 LINE",
"45 0 LINE",
"575 0 LINE"
);
},
{
closed = 1;
nodes = (
"341 775 LINE",
"462 905 LINE",
"449 917 LINE",
"328 837 LINE",
"207 917 LINE",
"194 905 LINE",
"315 775 LINE"
);
}
);
};
components = (
{
name = Z;
},
{
name = caroncomb;
transform = "{1, 0, 0, 1, 124, 0}";
}
);
layerId = "879304B0-C0BD-4EE0-9B7F-878EED11B82D";
userData = {
com.fontlab.autolayer = 1;
com.fontlab.recipe = "Z+caron";
};
width = 631;
}
);
leftKerningGroup = Z_gr;
rightKerningGroup = Z_gr;
unicode = "017D,017E";
},
{
color = (255,153,253,255);
glyphname = Zdotaccent;
lastChange = "2022-05-26 13:21:59 +0000";
layers = (
{
background = {
anchors = (
{
name = top;
position = "{328, 765}";
}
);
paths = (
{
closed = 1;
nodes = (
"125 20 LINE",
"571 680 LINE",
"491 680 LINE",
"45 20 LINE"
);
},
{
closed = 1;
nodes = (
"71 651 LINE",
"418 676 LINE SMOOTH",
"455.924 678.732 OFFCURVE",
"480.257 680.066 OFFCURVE",
"491 680 CURVE",
"571 680 LINE",
"571 700 LINE",
"71 700 LINE"
);
},
{
closed = 1;
nodes = (
"575 51 LINE",
"198 24 LINE SMOOTH",
"160.667 21.333 OFFCURVE",
"136.333 20 OFFCURVE",
"125 20 CURVE SMOOTH",
"45 20 LINE",
"45 0 LINE",
"575 0 LINE"
);
},
{
closed = 1;
nodes = (
"280 817 OFFCURVE",
"300 797 OFFCURVE",
"328 797 CURVE SMOOTH",
"356 797 OFFCURVE",
"376 817 OFFCURVE",
"376 845 CURVE SMOOTH",
"376 873 OFFCURVE",
"356 893 OFFCURVE",
"328 893 CURVE SMOOTH",
"300 893 OFFCURVE",
"280 873 OFFCURVE",
"280 845 CURVE SMOOTH"
);
}
);
};
components = (
{
name = Z;
},
{
name = dotaccentcomb;
transform = "{1, 0, 0, 1, 210, 0}";
}
);
layerId = "879304B0-C0BD-4EE0-9B7F-878EED11B82D";
userData = {
com.fontlab.autolayer = 1;
com.fontlab.recipe = "Z+dotaccent";
};
width = 631;
}
);
leftKerningGroup = Z_gr;
rightKerningGroup = Z_gr;
unicode = "017B,017C";
},
{
color = (255,153,253,255);
glyphname = i;
lastChange = "2022-05-26 13:09:29 +0000";
layers = (
{
anchors = (
{
name = bottom;
position = "{164, 0}";
}
);
background = {
anchors = (
{
name = bottom;
position = "{198, 0}";
},
{
name = top;
position = "{164, 765}";
}
);
paths = (
{
closed = 1;
nodes = (
"198 0 LINE",
"198 700 LINE",
"130 700 LINE",
"130 0 LINE"
);
}
);
};
components = (
{
name = I;
}
);
layerId = "879304B0-C0BD-4EE0-9B7F-878EED11B82D";
userData = {
com.fontlab.autolayer = 1;
com.fontlab.recipe = "=I";
};
width = 328;
}
);
unicode = 0069;
},
{
color = (255,153,253,255);
glyphname = kgreenlandic;
lastChange = "2022-05-26 13:09:29 +0000";
layers = (
{
anchors = (
{
name = bottom;
position = "{336, 0}";
},
{
name = top;
position = "{336, 700}";
}
);
background = {
anchors = (
{
name = bottom;
position = "{370, 0}";
}
);
paths = (
{
closed = 1;
nodes = (
"652 0 LINE",
"295 387 LINE",
"624 700 LINE",
"538 700 LINE",
"234 359 LINE",
"562 0 LINE"
);
},
{
closed = 1;
nodes = (
"198 0 LINE",
"198 700 LINE",
"130 700 LINE",
"130 0 LINE"
);
}
);
};
components = (
{
name = K;
}
);
layerId = "879304B0-C0BD-4EE0-9B7F-878EED11B82D";
userData = {
com.fontlab.autolayer = 1;
com.fontlab.recipe = K;
};
width = 672;
}
);
rightKerningGroup = K_gr;
unicode = 0138;
},
{
color = (255,255,153,255);
glyphname = ordfeminine;
layers = (
{
layerId = "879304B0-C0BD-4EE0-9B7F-878EED11B82D";
paths = (
{
closed = 1;
nodes = (
"88 348 LINE",
"182 669 LINE",
"185 669 LINE",
"312 348 LINE",
"366 348 LINE",
"224 700 LINE",
"176 700 LINE",
"34 348 LINE"
);
},
{
closed = 1;
nodes = (
"268 498 LINE",
"268 515 LINE",
"120 515 LINE",
"120 498 LINE"
);
}
);
userData = {
com.fontlab.metricsRight = "|";
};
vertWidth = 0;
width = 400;
}
);
unicode = 00AA;
},
{
color = (255,255,153,255);
glyphname = ordmasculine;
layers = (
{
guideLines = (
{
position = "{0, 524}";
},
{
angle = 90;
position = "{236, 0}";
}
);
layerId = "879304B0-C0BD-4EE0-9B7F-878EED11B82D";
paths = (
{
closed = 1;
nodes = (
"50 418 OFFCURVE",
"130 338 OFFCURVE",
"236 338 CURVE SMOOTH",
"342 338 OFFCURVE",
"422 418 OFFCURVE",
"422 524 CURVE SMOOTH",
"422 630 OFFCURVE",
"342 710 OFFCURVE",
"236 710 CURVE SMOOTH",
"130 710 OFFCURVE",
"50 630 OFFCURVE",
"50 524 CURVE SMOOTH"
);
},
{
closed = 1;
nodes = (
"106 625.519 OFFCURVE",
"157.707 693 OFFCURVE",
"236 693 CURVE SMOOTH",
"313.864 693 OFFCURVE",
"366 626 OFFCURVE",
"366 524 CURVE SMOOTH",
"366 422 OFFCURVE",
"313.864 355 OFFCURVE",
"236 355 CURVE SMOOTH",
"158.136 355 OFFCURVE",
"106 422 OFFCURVE",
"106 524 CURVE SMOOTH"
);
}
);
userData = {
com.fontlab.metricsRight = "|";
};
vertWidth = 0;
width = 472;
}
);
unicode = 00BA;
},
{
color = (153,254,255,255);
glyphname = Delta;
layers = (
{
layerId = "879304B0-C0BD-4EE0-9B7F-878EED11B82D";
paths = (
{
closed = 1;
nodes = (
"99 0 LINE",
"301 646 LINE",
"307 646 LINE",
"554 0 LINE",
"627 0 LINE",
"358 700 LINE",
"295 700 LINE",
"26 0 LINE"
);
},
{
closed = 1;
nodes = (
"571 0 LINE",
"571 28 LINE",
"61 28 LINE",
"61 0 LINE"
);
}
);
userData = {
com.fontlab.metricsLeft = A;
com.fontlab.metricsRight = A;
};
vertWidth = 0;
width = 659;
}
);
unicode = "0394,2206,03B4";
},
{
color = (153,254,255,255);
glyphname = Omega;
layers = (
{
guideLines = (
{
angle = 90;
position = "{81, 0}";
},
{
angle = 90;
position = "{778, 0}";
}
);
layerId = "879304B0-C0BD-4EE0-9B7F-878EED11B82D";
paths = (
{
closed = 1;
nodes = (
"222 714 OFFCURVE",
"79 589 OFFCURVE",
"79 405 CURVE SMOOTH",
"79 253 OFFCURVE",
"173 134 OFFCURVE",
"341 86 CURVE",
"344 103 LINE",
"219 175 OFFCURVE",
"155 278 OFFCURVE",
"155 406 CURVE SMOOTH",
"155 577 OFFCURVE",
"267 690 OFFCURVE",
"435 690 CURVE SMOOTH",
"603 690 OFFCURVE",
"715 577 OFFCURVE",
"715 406 CURVE SMOOTH",
"715 278 OFFCURVE",
"651 175 OFFCURVE",
"526 103 CURVE",
"529 86 LINE",
"697 134 OFFCURVE",
"791 253 OFFCURVE",
"791 405 CURVE SMOOTH",
"791 589 OFFCURVE",
"648 714 OFFCURVE",
"435 714 CURVE SMOOTH"
);
},
{
closed = 1;
nodes = (
"358 0 LINE",
"335 60 LINE",
"68 60 LINE",
"68 0 LINE"
);
},
{
closed = 1;
nodes = (
"358 0 LINE",
"344 103 LINE",
"318 106 LINE",
"327 39 LINE"
);
},
{
closed = 1;
nodes = (
"802 60 LINE",
"535 60 LINE",
"512 0 LINE",
"802 0 LINE"
);
},
{
closed = 1;
nodes = (
"552 106 LINE",
"526 103 LINE",
"512 0 LINE",
"543 39 LINE"
);
}
);
userData = {
com.fontlab.metricsRight = " |";
};
vertWidth = 0;
width = 870;
}
);
unicode = "03A9,03C9";
},
{
color = (153,254,255,255);
glyphname = mu;
layers = (
{
layerId = "879304B0-C0BD-4EE0-9B7F-878EED11B82D";
paths = (
{
closed = 1;
nodes = (
"105 53 OFFCURVE",
"164 -14 OFFCURVE",
"271 -14 CURVE SMOOTH",
"347 -14 OFFCURVE",
"402 20 OFFCURVE",
"469 108 CURVE",
"461 137 LINE",
"412 60 OFFCURVE",
"362 26 OFFCURVE {name = hr01;}",
"298 26 CURVE SMOOTH",
"215 26 OFFCURVE",
"167 83 OFFCURVE",
"167 180 CURVE SMOOTH",
"167 492 LINE",
"105 492 LINE",
"105 174 LINE SMOOTH"
);
},
{
closed = 1;
nodes = (
"446 23 OFFCURVE",
"475 -14 OFFCURVE",
"528 -14 CURVE SMOOTH",
"567 -14 OFFCURVE",
"588 5 OFFCURVE",
"607 56 CURVE",
"590 63 LINE",
"579 35 OFFCURVE",
"565 22 OFFCURVE {name = hr02;}",
"544 22 CURVE SMOOTH",
"519 22 OFFCURVE",
"508 42 OFFCURVE",
"508 87 CURVE SMOOTH",
"508 492 LINE",
"446 492 LINE",
"446 91 LINE SMOOTH"
);
},
{
closed = 1;
nodes = (
"181 -220 LINE",
"129 26 LINE {name = hr03;}",
"129 102 LINE",
"105 174 LINE",
"105 -220 LINE"
);
}
);
vertWidth = 0;
width = 629;
}
);
unicode = "03BC,00B5";
},
{
color = (153,254,255,255);
glyphname = pi;
layers = (
{
guideLines = (
{
position = "{0, 444}";
},
{
angle = 90;
position = "{567, 0}";
}
);
layerId = "879304B0-C0BD-4EE0-9B7F-878EED11B82D";
paths = (
{
closed = 1;
nodes = (
"571 438 LINE",
"571 492 LINE",
"138 492 LINE SMOOTH",
"72 492 OFFCURVE",
"35 461 OFFCURVE",
"17 389 CURVE",
"34 383 LINE",
"50 423 OFFCURVE",
"76 438 OFFCURVE",
"129 438 CURVE SMOOTH"
);
},
{
closed = 1;
nodes = (
"188 0 LINE",
"188 444 LINE",
"166 444 LINE",
"122 0 LINE"
);
},
{
closed = 1;
nodes = (
"395.787 33.007 OFFCURVE",
"427 -8 OFFCURVE",
"482 -8 CURVE SMOOTH",
"522 -8 OFFCURVE",
"547 14 OFFCURVE",
"569 82 CURVE",
"552 89 LINE",
"541 61 OFFCURVE",
"525 48 OFFCURVE",
"502 48 CURVE SMOOTH",
"476 48 OFFCURVE",
"463 64 OFFCURVE",
"461 110 CURVE SMOOTH",
"450 444 LINE",
"410 444 LINE",
"398 97 LINE SMOOTH"
);
}
);
vertWidth = 0;
width = 616;
}
);
unicode = 03C0;
},
{
color = (153,255,154,255);
glyphname = zero;
layers = (
{
guideLines = (
{
angle = 90;
position = "{321, 0}";
},
{
position = "{0, 615}";
}
);
layerId = "879304B0-C0BD-4EE0-9B7F-878EED11B82D";
paths = (
{
closed = 1;
nodes = (
"80 131 OFFCURVE",
"176 -14 OFFCURVE",
"321 -14 CURVE SMOOTH",
"466 -14 OFFCURVE",
"562 131 OFFCURVE",
"562 350 CURVE SMOOTH",
"562 569 OFFCURVE",
"466 714 OFFCURVE",
"321 714 CURVE SMOOTH",
"176 714 OFFCURVE",
"80 569 OFFCURVE",
"80 350 CURVE SMOOTH"
);
},
{
closed = 1;
nodes = (
"154 566.871 OFFCURVE",
"215.194 690 OFFCURVE",
"321 690 CURVE SMOOTH",
"426.822 690 OFFCURVE",
"488 566.67 OFFCURVE",
"488 350 CURVE SMOOTH",
"488 133 OFFCURVE",
"427 10 OFFCURVE",
"321 10 CURVE SMOOTH",
"215 10 OFFCURVE",
"154 133 OFFCURVE",
"154 350 CURVE SMOOTH"
);
}
);
userData = {
com.fontlab.metricsLeft = O;
com.fontlab.metricsRight = "|";
};
vertWidth = 0;
width = 642;
}
);
unicode = 0030;
},
{
color = (153,255,154,255);
glyphname = one;
layers = (
{
layerId = "879304B0-C0BD-4EE0-9B7F-878EED11B82D";
paths = (
{
closed = 1;
nodes = (
"259 0 LINE",
"259 714 LINE",
"239 714 LINE",
"38 590 LINE",
"46 574 LINE",
"191 642 LINE",
"191 0 LINE"
);
}
);
userData = {
com.fontlab.metricsRight = H;
};
vertWidth = 0;
width = 389;
}
);
unicode = 0031;
},
{
color = (153,255,154,255);
glyphname = two;
layers = (
{
guideLines = (
{
angle = 90;
position = "{478, 0}";
},
{
angle = 90;
position = "{46, 0}";
}
);
layerId = "879304B0-C0BD-4EE0-9B7F-878EED11B82D";
paths = (
{
closed = 1;
nodes = (
"476 0 LINE",
"476 60 LINE",
"110 60 LINE",
"332 315 LINE SMOOTH",
"424.161 420.86 OFFCURVE",
"457 489 OFFCURVE",
"457 551 CURVE SMOOTH",
"457 650 OFFCURVE",
"374 714 OFFCURVE",
"252 714 CURVE SMOOTH",
"190 714 OFFCURVE",
"126 697 OFFCURVE",
"80 671 CURVE",
"85 617 LINE",
"91 617 LINE",
"136 662 OFFCURVE",
"197 690 OFFCURVE",
"252 690 CURVE SMOOTH",
"330 690 OFFCURVE",
"383 634 OFFCURVE",
"383 545 CURVE SMOOTH",
"383 482 OFFCURVE",
"355.923 418.06 OFFCURVE",
"297 342 CURVE SMOOTH",
"46 18 LINE",
"46 0 LINE"
);
}
);
vertWidth = 0;
width = 536;
}
);
unicode = 0032;
},
{
color = (153,255,154,255);
glyphname = three;
layers = (
{
guideLines = (
{
angle = 90;
position = "{50, 0}";
},
{
angle = 90;
position = "{458, 0}";
},
{
position = "{0, 350}";
},
{
position = "{0, 190}";
},
{
angle = 90;
position = "{213, 0}";
},
{
position = "{0, -56}";
},
{
position = "{0, 384}";
}
);
layerId = "879304B0-C0BD-4EE0-9B7F-878EED11B82D";
paths = (
{
closed = 1;
nodes = (
"311 372 OFFCURVE",
"384 301 OFFCURVE",
"384 190 CURVE SMOOTH",
"384 80 OFFCURVE",
"321 10 OFFCURVE",
"224 10 CURVE SMOOTH",
"165 10 OFFCURVE",
"105 35 OFFCURVE",
"56 82 CURVE",
"50 82 LINE",
"56 22 LINE",
"102 0 OFFCURVE",
"166 -14 OFFCURVE",
"224 -14 CURVE SMOOTH",
"364 -14 OFFCURVE",
"458 66 OFFCURVE",
"458 187 CURVE SMOOTH",
"458 288 OFFCURVE",
"391 361 OFFCURVE",
"278 382 CURVE",
"278 388 LINE",
"374 411 OFFCURVE",
"426 469 OFFCURVE {name = hr01;}",
"426 549 CURVE SMOOTH",
"426 648 OFFCURVE",
"346 714 OFFCURVE",
"224 714 CURVE SMOOTH",
"167 714 OFFCURVE",
"104 700 OFFCURVE",
"61 680 CURVE",
"66 627 LINE",
"72 627 LINE",
"111 666 OFFCURVE",
"172 690 OFFCURVE",
"224 690 CURVE SMOOTH",
"302 690 OFFCURVE",
"354 633 OFFCURVE",
"354 544 CURVE SMOOTH",
"354 447 OFFCURVE",
"292 396 OFFCURVE",
"192 396 CURVE SMOOTH",
"174 396 LINE",
"174 372 LINE",
"196 372 LINE SMOOTH"
);
}
);
userData = {
com.fontlab.metricsRight = "B+5";
};
vertWidth = 0;
width = 533;
}
);
unicode = 0033;
},
{
color = (153,255,154,255);
glyphname = four;
layers = (
{
layerId = "879304B0-C0BD-4EE0-9B7F-878EED11B82D";
paths = (
{
closed = 1;
nodes = (
"534 196 LINE",
"534 220 LINE",
"64 220 LINE",
"376 700 LINE",
"300 700 LINE",
"34 216 LINE",
"34 196 LINE"
);
},
{
closed = 1;
nodes = (
"412 0 LINE",
"412 430 LINE",
"346 430 LINE",
"346 0 LINE"
);
}
);
userData = {
com.fontlab.metricsRight = "|";
};
vertWidth = 0;
width = 568;
}
);
unicode = 0034;
},
{
color = (153,255,154,255);
glyphname = five;
layers = (
{
guideLines = (
{
position = "{0, 350}";
},
{
position = "{0, -11}";
},
{
angle = 90;
position = "{456, 0}";
},
{
angle = 90;
position = "{61, 0}";
}
);
layerId = "879304B0-C0BD-4EE0-9B7F-878EED11B82D";
paths = (
{
closed = 1;
nodes = (
"55 82 LINE",
"61 22 LINE",
"125 1 OFFCURVE",
"188 -14 OFFCURVE",
"241 -14 CURVE SMOOTH",
"369 -14 OFFCURVE",
"456 74 OFFCURVE",
"456 205 CURVE SMOOTH",
"456 329 OFFCURVE",
"377 419 OFFCURVE",
"240 445 CURVE SMOOTH",
"119 468 LINE",
"95 406 LINE",
"222 382 LINE SMOOTH",
"333 361 OFFCURVE",
"398 284 OFFCURVE",
"398 181 CURVE SMOOTH",
"398 78 OFFCURVE",
"334 10 OFFCURVE",
"240 10 CURVE SMOOTH",
"176 10 OFFCURVE",
"113 40 OFFCURVE",
"61 82 CURVE"
);
},
{
closed = 1;
nodes = (
"120 406 LINE",
"147 683 LINE",
"124 700 LINE",
"95 406 LINE"
);
},
{
closed = 1;
nodes = (
"428 640 LINE",
"428 700 LINE",
"124 700 LINE",
"124 640 LINE"
);
}
);
userData = {
com.fontlab.metricsRight = "three-10";
};
vertWidth = 0;
width = 521;
}
);
unicode = 0035;
},
{
color = (153,255,154,255);
glyphname = six;
layers = (
{
guideLines = (
{
position = "{0, 298}";
},
{
position = "{0, 42}";
},
{
angle = 90;
position = "{527, 0}";
}
);
layerId = "879304B0-C0BD-4EE0-9B7F-878EED11B82D";
paths = (
{
closed = 1;
nodes = (
"440 -14 OFFCURVE",
"527 72 OFFCURVE",
"527 200 CURVE SMOOTH",
"527 323 OFFCURVE",
"449 405 OFFCURVE",
"334 405 CURVE SMOOTH",
"290 405 OFFCURVE",
"247 393 OFFCURVE",
"203 368 CURVE",
"212 352 LINE",
"243 368 OFFCURVE",
"278 377 OFFCURVE",
"309 377 CURVE SMOOTH",
"397 377 OFFCURVE",
"453 305 OFFCURVE",
"453 192 CURVE SMOOTH",
"453 82 OFFCURVE",
"396 10 OFFCURVE",
"312 10 CURVE SMOOTH",
"212 10 OFFCURVE",
"148 115 OFFCURVE",
"148 284 CURVE SMOOTH",
"148 519 OFFCURVE",
"274 675 OFFCURVE",
"444 696 CURVE",
"442 714 LINE",
"228 695 OFFCURVE",
"74 516 OFFCURVE",
"74 279 CURVE SMOOTH",
"74 98 OFFCURVE",
"165 -14 OFFCURVE",
"312 -14 CURVE SMOOTH"
);
}
);
userData = {
com.fontlab.metricsLeft = "zero-6";
com.fontlab.metricsRight = "|-12";
};
vertWidth = 0;
width = 589;
}
);
unicode = 0036;
},
